<svg xmlns="http://www.w3.org/2000/svg" fill="none" viewBox="21.6 0.96 358.07 470.3">
<path d="M73.1261 220.962L208.204 143.204C213.113 140.378 219.116 140.224 224.163 142.795L367.899 216.01C379.603 221.972 380.204 238.472 368.964 245.269L237.441 324.805C232.486 327.801 226.335 328.026 221.174 325.398L73.8828 250.405C62.0317 244.371 61.6006 227.597 73.1261 220.962Z" fill="#FB9A36"/>
<path d="M227.801 469.955V295.081C227.801 294.69 228.006 294.327 228.341 294.125L354.269 218.198C365.432 211.467 379.668 219.506 379.668 232.542V365.25C379.668 370.95 376.769 376.259 371.974 379.341L229.522 470.894C228.779 471.372 227.801 470.838 227.801 469.955Z" fill="#E47F17"/>
<path d="M63.6504 374.793V237.794C63.6504 225.344 76.7508 217.245 87.8876 222.811L228.299 292.974C228.678 293.163 228.917 293.55 228.917 293.973V470.148C228.917 470.989 228.023 471.528 227.279 471.136L72.5909 389.611C67.0922 386.713 63.6504 381.008 63.6504 374.793Z" fill="#F18E27"/>
<path d="M221.102 220.189L227.211 177.786C229.418 162.466 227.107 146.835 220.562 132.81V132.81C214.344 119.485 204.554 108.145 192.28 100.05L184.811 95.123" stroke="#43731D" stroke-width="4.46666" stroke-linecap="round"/>
<path d="M314.853 55.4752L354.772 12.524C354.92 12.3645 354.844 12.1045 354.633 12.0502L343.901 9.29043C327.657 5.11346 310.952 3 294.179 3H291.192C280.835 3 270.501 3.96046 260.322 5.86903L250.784 7.65741C245.621 8.62555 240.573 10.1322 235.724 12.1528L231.687 13.8346C215.483 20.5864 202.708 33.6189 196.281 49.9546C194.836 53.6273 193.729 57.4243 192.974 61.2983L186.567 94.1906C186.515 94.4568 186.719 94.7043 186.99 94.7043H227.734H230.764C263.215 94.7043 294.002 80.3415 314.853 55.4752Z" fill="#6AB92B" stroke="#6AB92B" stroke-width="4.07575" stroke-linecap="round"/>
<path d="M35.5692 142.721L21.7758 147.075C21.678 147.106 21.5831 147.02 21.6043 146.92L24.4188 133.571C29.6739 108.646 44.2641 86.6754 65.1983 72.1628C86.3366 60.5909 110.575 55.9479 134.493 58.8887L136.795 59.1718C152.524 63.1431 166.647 71.8649 177.242 84.1499L187.026 95.4953C187.05 95.522 187.054 95.5602 187.037 95.5911C177.357 113.303 161.662 126.97 142.787 134.122L128.778 139.431L123.651 140.623C110.283 143.732 96.3834 143.774 82.9961 140.746C67.2911 137.193 50.9243 137.875 35.5692 142.721Z" fill="#6AB92B"/>
<path d="M212.039 300.039L81.3895 235.735C79.9054 235.005 78.1699 236.085 78.1699 237.739V381.164C78.1699 382.012 78.6502 382.787 79.4097 383.165L210.059 448.064C211.544 448.801 213.286 447.721 213.286 446.064V302.043C213.286 301.192 212.803 300.415 212.039 300.039Z" stroke="#FFE6CC" stroke-width="11.1666" stroke-linecap="round"/>
<circle cx="140.703" cy="345.817" r="8.93332" fill="#FFE6CC"/>
<path d="M90.4885 318.584L91.3759 281.757C91.4331 279.384 94.5368 278.533 95.7962 280.544L129.074 333.694C130.345 335.724 128.175 338.155 126.014 337.123L91.8491 320.801C90.9985 320.394 90.4658 319.526 90.4885 318.584Z" fill="#FFB66B"/>
<path d="M135.186 329.328L95.7658 262.484C94.5478 260.419 96.7866 258.045 98.9196 259.14L126.465 273.28C127.096 273.604 127.551 274.191 127.707 274.883L139.582 327.586C140.182 330.249 136.573 331.679 135.186 329.328Z" fill="#FFB66B"/>
<path d="M146.721 328.405L140.749 283.383C140.494 281.462 142.509 280.051 144.228 280.947L175.926 297.486C177.314 298.21 177.644 300.049 176.595 301.211L150.869 329.694C149.502 331.208 146.989 330.427 146.721 328.405Z" fill="#FFB66B"/>
<path d="M200.493 320.352L188.723 306.48C187.818 305.413 186.195 305.347 185.206 306.336L155.361 336.181C153.534 338.008 155.498 341.033 157.91 340.107L199.526 324.134C201.065 323.543 201.56 321.609 200.493 320.352Z" fill="#FFB66B"/>
<path d="M198.443 334.645L156.431 349.64C154.483 350.336 154.275 353.008 156.093 353.996L199.04 377.34C200.657 378.219 202.62 377.02 202.575 375.179L201.64 336.84C201.6 335.211 199.979 334.097 198.443 334.645Z" fill="#FFB66B"/>
<path d="M91.5678 359.506V334.316C91.5678 332.552 93.4131 331.394 95.002 332.162L122.717 345.557C124.567 346.452 124.503 349.109 122.612 349.914L94.8977 361.708C93.3194 362.379 91.5678 361.221 91.5678 359.506Z" fill="#FFB66B"/>
<path d="M95.6125 372.637L126.967 356.101C128.788 355.141 130.892 356.776 130.41 358.778L123.39 387.949C123.027 389.46 121.341 390.229 119.961 389.513L95.6261 376.877C93.912 375.987 93.9042 373.538 95.6125 372.637Z" fill="#FFB66B"/>
<path d="M131.885 390.517L135.882 363.544C136.252 361.053 139.723 360.749 140.519 363.138L152.65 399.531C153.349 401.625 151.08 403.467 149.174 402.354L133.046 392.934C132.201 392.441 131.742 391.484 131.885 390.517Z" fill="#FFB66B"/>
<path d="M164.953 409.198L148.03 364.713C147.239 362.636 149.462 360.697 151.413 361.762L199.196 387.848C199.965 388.268 200.443 389.073 200.443 389.949V425.177C200.443 426.993 198.499 428.147 196.904 427.278L166.044 410.448C165.543 410.174 165.156 409.731 164.953 409.198Z" fill="#FFB66B"/>
<path d="M90.4885 318.584L91.3759 281.757C91.4331 279.384 94.5368 278.533 95.7962 280.544L129.074 333.694C130.345 335.724 128.175 338.155 126.014 337.123L91.8491 320.801C90.9985 320.394 90.4658 319.526 90.4885 318.584Z" stroke="#FFB66B" stroke-width="4.7857" stroke-linecap="round"/>
<path d="M135.186 329.328L95.7658 262.484C94.5478 260.419 96.7866 258.045 98.9196 259.14L126.465 273.28C127.096 273.604 127.551 274.191 127.707 274.883L139.582 327.586C140.182 330.249 136.573 331.679 135.186 329.328Z" stroke="#FFB66B" stroke-width="4.7857" stroke-linecap="round"/>
<path d="M146.721 328.405L140.749 283.383C140.494 281.462 142.509 280.051 144.228 280.947L175.926 297.486C177.314 298.21 177.644 300.049 176.595 301.211L150.869 329.694C149.502 331.208 146.989 330.427 146.721 328.405Z" stroke="#FFB66B" stroke-width="4.7857" stroke-linecap="round"/>
<path d="M200.493 320.352L188.723 306.48C187.818 305.413 186.195 305.347 185.206 306.336L155.361 336.181C153.534 338.008 155.498 341.033 157.91 340.107L199.526 324.134C201.065 323.543 201.56 321.609 200.493 320.352Z" stroke="#FFB66B" stroke-width="4.7857" stroke-linecap="round"/>
<path d="M198.443 334.645L156.431 349.64C154.483 350.336 154.275 353.008 156.093 353.996L199.04 377.34C200.657 378.219 202.62 377.02 202.575 375.179L201.64 336.84C201.6 335.211 199.979 334.097 198.443 334.645Z" stroke="#FFB66B" stroke-width="4.7857" stroke-linecap="round"/>
<path d="M91.5678 359.506V334.316C91.5678 332.552 93.4131 331.394 95.002 332.162L122.717 345.557C124.567 346.452 124.503 349.109 122.612 349.914L94.8977 361.708C93.3194 362.379 91.5678 361.221 91.5678 359.506Z" stroke="#FFB66B" stroke-width="4.7857" stroke-linecap="round"/>
<path d="M95.6125 372.637L126.967 356.101C128.788 355.141 130.892 356.776 130.41 358.778L123.39 387.949C123.027 389.46 121.341 390.229 119.961 389.513L95.6261 376.877C93.912 375.987 93.9042 373.538 95.6125 372.637Z" stroke="#FFB66B" stroke-width="4.7857" stroke-linecap="round"/>
<path d="M131.885 390.517L135.882 363.544C136.252 361.053 139.723 360.749 140.519 363.138L152.65 399.531C153.349 401.625 151.08 403.467 149.174 402.354L133.046 392.934C132.201 392.441 131.742 391.484 131.885 390.517Z" stroke="#FFB66B" stroke-width="4.7857" stroke-linecap="round"/>
<path d="M164.953 409.198L148.03 364.713C147.239 362.636 149.462 360.697 151.413 361.762L199.196 387.848C199.965 388.268 200.443 389.073 200.443 389.949V425.177C200.443 426.993 198.499 428.147 196.904 427.278L166.044 410.448C165.543 410.174 165.156 409.731 164.953 409.198Z" stroke="#FFB66B" stroke-width="4.7857" stroke-linecap="round"/>
</svg>