<svg width="1920" height="720" viewBox="0 0 1920 720" fill="none" xmlns="http://www.w3.org/2000/svg">
<g clip-path="url(#clip0_14_194)">
<g filter="url(#filter0_f_14_194)">
<path d="M1751.43 75.4286L1753 70.7144L1754.57 75.4286L1759.29 77.0001L1754.57 78.5715L1753 83.2858L1751.43 78.5715L1746.71 77.0001L1751.43 75.4286Z" fill="white"/>
<path d="M1751.43 75.4286L1753 70.7144L1754.57 75.4286L1759.29 77.0001L1754.57 78.5715L1753 83.2858L1751.43 78.5715L1746.71 77.0001L1751.43 75.4286Z" stroke="white"/>
</g>
<path d="M1751.43 75.4286L1753 70.7144L1754.57 75.4286L1759.29 77.0001L1754.57 78.5715L1753 83.2858L1751.43 78.5715L1746.71 77.0001L1751.43 75.4286Z" fill="white"/>
</g>
<g clip-path="url(#clip1_14_194)">
<g filter="url(#filter1_f_14_194)">
<path d="M344.144 30.1427L345.501 26.0713L346.858 30.1427L350.929 31.4999L346.858 32.857L345.501 36.9284L344.144 32.857L340.072 31.4999L344.144 30.1427Z" fill="white"/>
<path d="M344.144 30.1427L345.501 26.0713L346.858 30.1427L350.929 31.4999L346.858 32.857L345.501 36.9284L344.144 32.857L340.072 31.4999L344.144 30.1427Z" stroke="white"/>
</g>
<path d="M344.144 30.1427L345.501 26.0713L346.858 30.1427L350.929 31.4999L346.858 32.857L345.501 36.9284L344.144 32.857L340.072 31.4999L344.144 30.1427Z" fill="white"/>
</g>
<g clip-path="url(#clip2_14_194)">
<g filter="url(#filter2_f_14_194)">
<path d="M85.7146 116.714L87.0003 112.857L88.286 116.714L92.1431 118L88.286 119.286L87.0003 123.143L85.7146 119.286L81.8574 118L85.7146 116.714Z" fill="white"/>
<path d="M85.7146 116.714L87.0003 112.857L88.286 116.714L92.1431 118L88.286 119.286L87.0003 123.143L85.7146 119.286L81.8574 118L85.7146 116.714Z" stroke="white"/>
</g>
<path d="M85.7146 116.714L87.0003 112.857L88.286 116.714L92.1431 118L88.286 119.286L87.0003 123.143L85.7146 119.286L81.8574 118L85.7146 116.714Z" fill="white"/>
</g>
<g clip-path="url(#clip3_14_194)">
<g filter="url(#filter3_f_14_194)">
<path d="M170 341L171 338L172 341L175 342L172 343L171 346L170 343L167 342L170 341Z" fill="white"/>
<path d="M170 341L171 338L172 341L175 342L172 343L171 346L170 343L167 342L170 341Z" stroke="white"/>
</g>
<path d="M170 341L171 338L172 341L175 342L172 343L171 346L170 343L167 342L170 341Z" fill="white"/>
</g>
<g clip-path="url(#clip4_14_194)">
<g filter="url(#filter4_f_14_194)">
<path d="M1819 700L1820 697L1821 700L1824 701L1821 702L1820 705L1819 702L1816 701L1819 700Z" fill="white"/>
<path d="M1819 700L1820 697L1821 700L1824 701L1821 702L1820 705L1819 702L1816 701L1819 700Z" stroke="white"/>
</g>
<path d="M1819 700L1820 697L1821 700L1824 701L1821 702L1820 705L1819 702L1816 701L1819 700Z" fill="white"/>
</g>
<g clip-path="url(#clip5_14_194)">
<g filter="url(#filter5_f_14_194)">
<path d="M18.4291 693.429L20.0006 688.714L21.572 693.429L26.2863 695L21.572 696.571L20.0006 701.286L18.4291 696.571L13.7148 695L18.4291 693.429Z" fill="white"/>
<path d="M18.4291 693.429L20.0006 688.714L21.572 693.429L26.2863 695L21.572 696.571L20.0006 701.286L18.4291 696.571L13.7148 695L18.4291 693.429Z" stroke="white"/>
</g>
<path d="M18.4291 693.429L20.0006 688.714L21.572 693.429L26.2863 695L21.572 696.571L20.0006 701.286L18.4291 696.571L13.7148 695L18.4291 693.429Z" fill="white"/>
</g>
<g clip-path="url(#clip6_14_194)">
<g filter="url(#filter6_f_14_194)">
<path d="M1877.43 574.429L1879 569.714L1880.57 574.429L1885.29 576L1880.57 577.571L1879 582.286L1877.43 577.571L1872.71 576L1877.43 574.429Z" fill="white"/>
<path d="M1877.43 574.429L1879 569.714L1880.57 574.429L1885.29 576L1880.57 577.571L1879 582.286L1877.43 577.571L1872.71 576L1877.43 574.429Z" stroke="white"/>
</g>
<path d="M1877.43 574.429L1879 569.714L1880.57 574.429L1885.29 576L1880.57 577.571L1879 582.286L1877.43 577.571L1872.71 576L1877.43 574.429Z" fill="white"/>
</g>
<g clip-path="url(#clip7_14_194)">
<g filter="url(#filter7_f_14_194)">
<path d="M412.429 626.429L414.001 621.714L415.572 626.429L420.286 628L415.572 629.571L414.001 634.286L412.429 629.571L407.715 628L412.429 626.429Z" fill="white"/>
<path d="M412.429 626.429L414.001 621.714L415.572 626.429L420.286 628L415.572 629.571L414.001 634.286L412.429 629.571L407.715 628L412.429 626.429Z" stroke="white"/>
</g>
<path d="M412.429 626.429L414.001 621.714L415.572 626.429L420.286 628L415.572 629.571L414.001 634.286L412.429 629.571L407.715 628L412.429 626.429Z" fill="white"/>
</g>
<g filter="url(#filter8_f_14_194)">
<path d="M1676 421L1678 415L1680 421L1686 423L1680 425L1678 431L1676 425L1670 423L1676 421Z" fill="white"/>
<path d="M1676 421L1678 415L1680 421L1686 423L1680 425L1678 431L1676 425L1670 423L1676 421Z" stroke="white"/>
</g>
<path d="M1676 421L1678 415L1680 421L1686 423L1680 425L1678 431L1676 425L1670 423L1676 421Z" fill="white"/>
<g filter="url(#filter9_f_14_194)">
<path d="M1768.5 85C1769.33 85 1770 84.3284 1770 83.5C1770 82.6716 1769.33 82 1768.5 82C1767.67 82 1767 82.6716 1767 83.5C1767 84.3284 1767.67 85 1768.5 85Z" fill="white"/>
</g>
<g filter="url(#filter10_f_14_194)">
<path d="M1745.5 393C1746.33 393 1747 392.328 1747 391.5C1747 390.672 1746.33 390 1745.5 390C1744.67 390 1744 390.672 1744 391.5C1744 392.328 1744.67 393 1745.5 393Z" fill="white"/>
</g>
<g filter="url(#filter11_f_14_194)">
<path d="M322.5 47C323.328 47 324 46.3284 324 45.5C324 44.6716 323.328 44 322.5 44C321.672 44 321 44.6716 321 45.5C321 46.3284 321.672 47 322.5 47Z" fill="white"/>
</g>
<g filter="url(#filter12_f_14_194)">
<path d="M210.5 302C211.328 302 212 301.328 212 300.5C212 299.672 211.328 299 210.5 299C209.672 299 209 299.672 209 300.5C209 301.328 209.672 302 210.5 302Z" fill="white"/>
</g>
<g filter="url(#filter13_f_14_194)">
<path d="M51.5 706C52.3284 706 53 705.328 53 704.5C53 703.672 52.3284 703 51.5 703C50.6716 703 50 703.672 50 704.5C50 705.328 50.6716 706 51.5 706Z" fill="white"/>
</g>
<g filter="url(#filter14_f_14_194)">
<path d="M319.5 663C320.328 663 321 662.328 321 661.5C321 660.672 320.328 660 319.5 660C318.672 660 318 660.672 318 661.5C318 662.328 318.672 663 319.5 663Z" fill="white"/>
</g>
<g filter="url(#filter15_f_14_194)">
<path d="M1625.5 579C1626.33 579 1627 578.328 1627 577.5C1627 576.672 1626.33 576 1625.5 576C1624.67 576 1624 576.672 1624 577.5C1624 578.328 1624.67 579 1625.5 579Z" fill="white"/>
</g>
<g filter="url(#filter16_f_14_194)">
<path d="M1808.5 268C1809.33 268 1810 267.328 1810 266.5C1810 265.672 1809.33 265 1808.5 265C1807.67 265 1807 265.672 1807 266.5C1807 267.328 1807.67 268 1808.5 268Z" fill="white"/>
</g>
<g filter="url(#filter17_f_14_194)">
<path d="M121.5 111C122.328 111 123 110.328 123 109.5C123 108.672 122.328 108 121.5 108C120.672 108 120 108.672 120 109.5C120 110.328 120.672 111 121.5 111Z" fill="white"/>
</g>
<g filter="url(#filter18_f_14_194)">
<path d="M140.5 557C141.328 557 142 556.328 142 555.5C142 554.672 141.328 554 140.5 554C139.672 554 139 554.672 139 555.5C139 556.328 139.672 557 140.5 557Z" fill="white"/>
</g>
<g filter="url(#filter19_f_14_194)">
<path d="M9.5 388C10.3284 388 11 387.328 11 386.5C11 385.672 10.3284 385 9.5 385C8.67157 385 8 385.672 8 386.5C8 387.328 8.67157 388 9.5 388Z" fill="white"/>
</g>
<g filter="url(#filter20_f_14_194)">
<path d="M1885.5 46C1886.33 46 1887 45.3284 1887 44.5C1887 43.6716 1886.33 43 1885.5 43C1884.67 43 1884 43.6716 1884 44.5C1884 45.3284 1884.67 46 1885.5 46Z" fill="white"/>
</g>
<g filter="url(#filter21_f_14_194)">
<path d="M30.5 47C31.3284 47 32 46.3284 32 45.5C32 44.6716 31.3284 44 30.5 44C29.6716 44 29 44.6716 29 45.5C29 46.3284 29.6716 47 30.5 47Z" fill="white"/>
</g>
<g filter="url(#filter22_f_14_194)">
<path d="M1904.5 550C1905.33 550 1906 549.328 1906 548.5C1906 547.672 1905.33 547 1904.5 547C1903.67 547 1903 547.672 1903 548.5C1903 549.328 1903.67 550 1904.5 550Z" fill="white"/>
</g>
<g filter="url(#filter23_f_14_194)">
<path d="M1659.5 409C1660.33 409 1661 408.328 1661 407.5C1661 406.672 1660.33 406 1659.5 406C1658.67 406 1658 406.672 1658 407.5C1658 408.328 1658.67 409 1659.5 409Z" fill="white"/>
</g>
<g filter="url(#filter24_f_14_194)">
<path d="M429.5 648C430.328 648 431 647.328 431 646.5C431 645.672 430.328 645 429.5 645C428.672 645 428 645.672 428 646.5C428 647.328 428.672 648 429.5 648Z" fill="white"/>
</g>
<g filter="url(#filter25_f_14_194)">
<path d="M1616.5 155C1617.33 155 1618 154.328 1618 153.5C1618 152.672 1617.33 152 1616.5 152C1615.67 152 1615 152.672 1615 153.5C1615 154.328 1615.67 155 1616.5 155Z" fill="white"/>
</g>
<g filter="url(#filter26_f_14_194)">
<path d="M398.5 111C399.328 111 400 110.328 400 109.5C400 108.672 399.328 108 398.5 108C397.672 108 397 108.672 397 109.5C397 110.328 397.672 111 398.5 111Z" fill="white"/>
</g>
<g filter="url(#filter27_f_14_194)">
<path d="M1398.5 550C1399.33 550 1400 549.328 1400 548.5C1400 547.672 1399.33 547 1398.5 547C1397.67 547 1397 547.672 1397 548.5C1397 549.328 1397.67 550 1398.5 550Z" fill="white"/>
</g>
<g filter="url(#filter28_f_14_194)">
<path d="M601.5 186C602.328 186 603 185.328 603 184.5C603 183.672 602.328 183 601.5 183C600.672 183 600 183.672 600 184.5C600 185.328 600.672 186 601.5 186Z" fill="white"/>
</g>
<g filter="url(#filter29_f_14_194)">
<path d="M759.5 20C760.328 20 761 19.3284 761 18.5C761 17.6716 760.328 17 759.5 17C758.672 17 758 17.6716 758 18.5C758 19.3284 758.672 20 759.5 20Z" fill="white"/>
</g>
<g filter="url(#filter30_f_14_194)">
<path d="M796.5 41C797.328 41 798 40.3284 798 39.5C798 38.6716 797.328 38 796.5 38C795.672 38 795 38.6716 795 39.5C795 40.3284 795.672 41 796.5 41Z" fill="white"/>
</g>
<g filter="url(#filter31_f_14_194)">
<path d="M1218.5 80C1219.33 80 1220 79.3284 1220 78.5C1220 77.6716 1219.33 77 1218.5 77C1217.67 77 1217 77.6716 1217 78.5C1217 79.3284 1217.67 80 1218.5 80Z" fill="white"/>
</g>
<g filter="url(#filter32_f_14_194)">
<path d="M715.5 622C716.328 622 717 621.328 717 620.5C717 619.672 716.328 619 715.5 619C714.672 619 714 619.672 714 620.5C714 621.328 714.672 622 715.5 622Z" fill="white"/>
</g>
<g filter="url(#filter33_f_14_194)">
<path d="M580.5 683C581.328 683 582 682.328 582 681.5C582 680.672 581.328 680 580.5 680C579.672 680 579 680.672 579 681.5C579 682.328 579.672 683 580.5 683Z" fill="white"/>
</g>
<g filter="url(#filter34_f_14_194)">
<path d="M607.5 700C608.328 700 609 699.328 609 698.5C609 697.672 608.328 697 607.5 697C606.672 697 606 697.672 606 698.5C606 699.328 606.672 700 607.5 700Z" fill="white"/>
</g>
<g filter="url(#filter35_f_14_194)">
<path d="M631.5 699C632.328 699 633 698.328 633 697.5C633 696.672 632.328 696 631.5 696C630.672 696 630 696.672 630 697.5C630 698.328 630.672 699 631.5 699Z" fill="white"/>
</g>
<g filter="url(#filter36_f_14_194)">
<path d="M1238.5 669C1239.33 669 1240 668.328 1240 667.5C1240 666.672 1239.33 666 1238.5 666C1237.67 666 1237 666.672 1237 667.5C1237 668.328 1237.67 669 1238.5 669Z" fill="white"/>
</g>
<g filter="url(#filter37_f_14_194)">
<path d="M1209.5 690C1210.33 690 1211 689.328 1211 688.5C1211 687.672 1210.33 687 1209.5 687C1208.67 687 1208 687.672 1208 688.5C1208 689.328 1208.67 690 1209.5 690Z" fill="white"/>
</g>
<g filter="url(#filter38_f_14_194)">
<path d="M346.5 337C347.328 337 348 336.328 348 335.5C348 334.672 347.328 334 346.5 334C345.672 334 345 334.672 345 335.5C345 336.328 345.672 337 346.5 337Z" fill="white"/>
</g>
<g filter="url(#filter39_f_14_194)">
<path d="M366.5 346C367.328 346 368 345.328 368 344.5C368 343.672 367.328 343 366.5 343C365.672 343 365 343.672 365 344.5C365 345.328 365.672 346 366.5 346Z" fill="white"/>
</g>
<g filter="url(#filter40_f_14_194)">
<path d="M1491.5 121C1492.33 121 1493 120.328 1493 119.5C1493 118.672 1492.33 118 1491.5 118C1490.67 118 1490 118.672 1490 119.5C1490 120.328 1490.67 121 1491.5 121Z" fill="white"/>
</g>
<g filter="url(#filter41_f_14_194)">
<path d="M1459.5 166C1460.33 166 1461 165.328 1461 164.5C1461 163.672 1460.33 163 1459.5 163C1458.67 163 1458 163.672 1458 164.5C1458 165.328 1458.67 166 1459.5 166Z" fill="white"/>
</g>
<g filter="url(#filter42_f_14_194)">
<path d="M238.5 413C239.328 413 240 412.328 240 411.5C240 410.672 239.328 410 238.5 410C237.672 410 237 410.672 237 411.5C237 412.328 237.672 413 238.5 413Z" fill="white"/>
</g>
<g filter="url(#filter43_f_14_194)">
<path d="M18.5 438C19.3284 438 20 437.328 20 436.5C20 435.672 19.3284 435 18.5 435C17.6716 435 17 435.672 17 436.5C17 437.328 17.6716 438 18.5 438Z" fill="white"/>
</g>
<g filter="url(#filter44_f_14_194)">
<path d="M27.5 415C28.3284 415 29 414.328 29 413.5C29 412.672 28.3284 412 27.5 412C26.6716 412 26 412.672 26 413.5C26 414.328 26.6716 415 27.5 415Z" fill="white"/>
</g>
<g filter="url(#filter45_f_14_194)">
<path d="M42.5 403C43.3284 403 44 402.328 44 401.5C44 400.672 43.3284 400 42.5 400C41.6716 400 41 400.672 41 401.5C41 402.328 41.6716 403 42.5 403Z" fill="white"/>
</g>
<g filter="url(#filter46_f_14_194)">
<path d="M1845.5 277C1846.33 277 1847 276.328 1847 275.5C1847 274.672 1846.33 274 1845.5 274C1844.67 274 1844 274.672 1844 275.5C1844 276.328 1844.67 277 1845.5 277Z" fill="white"/>
</g>
<g filter="url(#filter47_f_14_194)">
<path d="M1863.5 226C1864.33 226 1865 225.328 1865 224.5C1865 223.672 1864.33 223 1863.5 223C1862.67 223 1862 223.672 1862 224.5C1862 225.328 1862.67 226 1863.5 226Z" fill="white"/>
</g>
<g filter="url(#filter48_f_14_194)">
<path d="M149.5 123C150.328 123 151 122.328 151 121.5C151 120.672 150.328 120 149.5 120C148.672 120 148 120.672 148 121.5C148 122.328 148.672 123 149.5 123Z" fill="white"/>
</g>
<g filter="url(#filter49_f_14_194)">
<path d="M127.5 133C128.328 133 129 132.328 129 131.5C129 130.672 128.328 130 127.5 130C126.672 130 126 130.672 126 131.5C126 132.328 126.672 133 127.5 133Z" fill="white"/>
</g>
<g filter="url(#filter50_f_14_194)">
<path d="M1646.5 164C1647.33 164 1648 163.328 1648 162.5C1648 161.672 1647.33 161 1646.5 161C1645.67 161 1645 161.672 1645 162.5C1645 163.328 1645.67 164 1646.5 164Z" fill="white"/>
</g>
<g filter="url(#filter51_f_14_194)">
<path d="M1649.5 570C1650.33 570 1651 569.328 1651 568.5C1651 567.672 1650.33 567 1649.5 567C1648.67 567 1648 567.672 1648 568.5C1648 569.328 1648.67 570 1649.5 570Z" fill="white"/>
</g>
<g filter="url(#filter52_f_14_194)">
<path d="M1637.5 593C1638.33 593 1639 592.328 1639 591.5C1639 590.672 1638.33 590 1637.5 590C1636.67 590 1636 590.672 1636 591.5C1636 592.328 1636.67 593 1637.5 593Z" fill="white"/>
</g>
<g filter="url(#filter53_f_14_194)">
<path d="M1636.5 613C1637.33 613 1638 612.328 1638 611.5C1638 610.672 1637.33 610 1636.5 610C1635.67 610 1635 610.672 1635 611.5C1635 612.328 1635.67 613 1636.5 613Z" fill="white"/>
</g>
<g filter="url(#filter54_f_14_194)">
<path d="M1621.5 630C1622.33 630 1623 629.328 1623 628.5C1623 627.672 1622.33 627 1621.5 627C1620.67 627 1620 627.672 1620 628.5C1620 629.328 1620.67 630 1621.5 630Z" fill="white"/>
</g>
<g filter="url(#filter55_f_14_194)">
<path d="M188.5 580C189.328 580 190 579.328 190 578.5C190 577.672 189.328 577 188.5 577C187.672 577 187 577.672 187 578.5C187 579.328 187.672 580 188.5 580Z" fill="white"/>
</g>
<g filter="url(#filter56_f_14_194)">
<path d="M168.5 628C169.328 628 170 627.328 170 626.5C170 625.672 169.328 625 168.5 625C167.672 625 167 625.672 167 626.5C167 627.328 167.672 628 168.5 628Z" fill="white"/>
</g>
<g filter="url(#filter57_f_14_194)">
<path d="M186.5 512C187.328 512 188 511.328 188 510.5C188 509.672 187.328 509 186.5 509C185.672 509 185 509.672 185 510.5C185 511.328 185.672 512 186.5 512Z" fill="white"/>
</g>
<g filter="url(#filter58_f_14_194)">
<path d="M171.5 553C172.328 553 173 552.328 173 551.5C173 550.672 172.328 550 171.5 550C170.672 550 170 550.672 170 551.5C170 552.328 170.672 553 171.5 553Z" fill="white"/>
</g>
<g filter="url(#filter59_f_14_194)">
<path d="M1724.5 653C1725.33 653 1726 652.328 1726 651.5C1726 650.672 1725.33 650 1724.5 650C1723.67 650 1723 650.672 1723 651.5C1723 652.328 1723.67 653 1724.5 653Z" fill="white"/>
</g>
<g filter="url(#filter60_f_14_194)">
<path d="M1482.5 692C1483.33 692 1484 691.328 1484 690.5C1484 689.672 1483.33 689 1482.5 689C1481.67 689 1481 689.672 1481 690.5C1481 691.328 1481.67 692 1482.5 692Z" fill="white"/>
</g>
<g filter="url(#filter61_f_14_194)">
<path d="M1426.5 18C1427.33 18 1428 17.3284 1428 16.5C1428 15.6716 1427.33 15 1426.5 15C1425.67 15 1425 15.6716 1425 16.5C1425 17.3284 1425.67 18 1426.5 18Z" fill="white"/>
</g>
<g filter="url(#filter62_f_14_194)">
<path d="M1848.5 693C1849.33 693 1850 692.328 1850 691.5C1850 690.672 1849.33 690 1848.5 690C1847.67 690 1847 690.672 1847 691.5C1847 692.328 1847.67 693 1848.5 693Z" fill="white"/>
</g>
<g filter="url(#filter63_f_14_194)">
<path d="M67.5 208C68.3284 208 69 207.328 69 206.5C69 205.672 68.3284 205 67.5 205C66.6716 205 66 205.672 66 206.5C66 207.328 66.6716 208 67.5 208Z" fill="white"/>
</g>
<g filter="url(#filter64_f_14_194)">
<path d="M118.5 527C119.328 527 120 526.328 120 525.5C120 524.672 119.328 524 118.5 524C117.672 524 117 524.672 117 525.5C117 526.328 117.672 527 118.5 527Z" fill="white"/>
</g>
<g filter="url(#filter65_f_14_194)">
<path d="M1649.5 118C1650.33 118 1651 117.328 1651 116.5C1651 115.672 1650.33 115 1649.5 115C1648.67 115 1648 115.672 1648 116.5C1648 117.328 1648.67 118 1649.5 118Z" fill="white"/>
</g>
<g filter="url(#filter66_f_14_194)">
<path d="M1706.5 18C1707.33 18 1708 17.3284 1708 16.5C1708 15.6716 1707.33 15 1706.5 15C1705.67 15 1705 15.6716 1705 16.5C1705 17.3284 1705.67 18 1706.5 18Z" fill="white"/>
</g>
<g filter="url(#filter67_f_14_194)">
<path d="M1900.5 207C1901.33 207 1902 206.328 1902 205.5C1902 204.672 1901.33 204 1900.5 204C1899.67 204 1899 204.672 1899 205.5C1899 206.328 1899.67 207 1900.5 207Z" fill="white"/>
</g>
<g filter="url(#filter68_f_14_194)">
<path d="M182.5 15C183.328 15 184 14.3284 184 13.5C184 12.6716 183.328 12 182.5 12C181.672 12 181 12.6716 181 13.5C181 14.3284 181.672 15 182.5 15Z" fill="white"/>
</g>
<defs>
<filter id="filter0_f_14_194" x="1741.13" y="65.1333" width="23.7344" height="23.7334" filterUnits="userSpaceOnUse" color-interpolation-filters="sRGB">
<feFlood flood-opacity="0" result="BackgroundImageFix"/>
<feBlend mode="normal" in="SourceGraphic" in2="BackgroundImageFix" result="shape"/>
<feGaussianBlur stdDeviation="2" result="effect1_foregroundBlur_14_194"/>
</filter>
<filter id="filter1_f_14_194" x="334.49" y="20.4902" width="22.0195" height="22.0195" filterUnits="userSpaceOnUse" color-interpolation-filters="sRGB">
<feFlood flood-opacity="0" result="BackgroundImageFix"/>
<feBlend mode="normal" in="SourceGraphic" in2="BackgroundImageFix" result="shape"/>
<feGaussianBlur stdDeviation="2" result="effect1_foregroundBlur_14_194"/>
</filter>
<filter id="filter2_f_14_194" x="76.2754" y="107.276" width="21.4492" height="21.4478" filterUnits="userSpaceOnUse" color-interpolation-filters="sRGB">
<feFlood flood-opacity="0" result="BackgroundImageFix"/>
<feBlend mode="normal" in="SourceGraphic" in2="BackgroundImageFix" result="shape"/>
<feGaussianBlur stdDeviation="2" result="effect1_foregroundBlur_14_194"/>
</filter>
<filter id="filter3_f_14_194" x="161.418" y="332.419" width="19.1641" height="19.1621" filterUnits="userSpaceOnUse" color-interpolation-filters="sRGB">
<feFlood flood-opacity="0" result="BackgroundImageFix"/>
<feBlend mode="normal" in="SourceGraphic" in2="BackgroundImageFix" result="shape"/>
<feGaussianBlur stdDeviation="2" result="effect1_foregroundBlur_14_194"/>
</filter>
<filter id="filter4_f_14_194" x="1810.42" y="691.419" width="19.1641" height="19.1621" filterUnits="userSpaceOnUse" color-interpolation-filters="sRGB">
<feFlood flood-opacity="0" result="BackgroundImageFix"/>
<feBlend mode="normal" in="SourceGraphic" in2="BackgroundImageFix" result="shape"/>
<feGaussianBlur stdDeviation="2" result="effect1_foregroundBlur_14_194"/>
</filter>
<filter id="filter5_f_14_194" x="8.13281" y="683.133" width="23.7344" height="23.7334" filterUnits="userSpaceOnUse" color-interpolation-filters="sRGB">
<feFlood flood-opacity="0" result="BackgroundImageFix"/>
<feBlend mode="normal" in="SourceGraphic" in2="BackgroundImageFix" result="shape"/>
<feGaussianBlur stdDeviation="2" result="effect1_foregroundBlur_14_194"/>
</filter>
<filter id="filter6_f_14_194" x="1867.13" y="564.133" width="23.7344" height="23.7334" filterUnits="userSpaceOnUse" color-interpolation-filters="sRGB">
<feFlood flood-opacity="0" result="BackgroundImageFix"/>
<feBlend mode="normal" in="SourceGraphic" in2="BackgroundImageFix" result="shape"/>
<feGaussianBlur stdDeviation="2" result="effect1_foregroundBlur_14_194"/>
</filter>
<filter id="filter7_f_14_194" x="402.133" y="616.133" width="23.7344" height="23.7334" filterUnits="userSpaceOnUse" color-interpolation-filters="sRGB">
<feFlood flood-opacity="0" result="BackgroundImageFix"/>
<feBlend mode="normal" in="SourceGraphic" in2="BackgroundImageFix" result="shape"/>
<feGaussianBlur stdDeviation="2" result="effect1_foregroundBlur_14_194"/>
</filter>
<filter id="filter8_f_14_194" x="1664.42" y="409.419" width="27.1641" height="27.1621" filterUnits="userSpaceOnUse" color-interpolation-filters="sRGB">
<feFlood flood-opacity="0" result="BackgroundImageFix"/>
<feBlend mode="normal" in="SourceGraphic" in2="BackgroundImageFix" result="shape"/>
<feGaussianBlur stdDeviation="2" result="effect1_foregroundBlur_14_194"/>
</filter>
<filter id="filter9_f_14_194" x="1764" y="79" width="9" height="9" filterUnits="userSpaceOnUse" color-interpolation-filters="sRGB">
<feFlood flood-opacity="0" result="BackgroundImageFix"/>
<feBlend mode="normal" in="SourceGraphic" in2="BackgroundImageFix" result="shape"/>
<feGaussianBlur stdDeviation="1.5" result="effect1_foregroundBlur_14_194"/>
</filter>
<filter id="filter10_f_14_194" x="1741" y="387" width="9" height="9" filterUnits="userSpaceOnUse" color-interpolation-filters="sRGB">
<feFlood flood-opacity="0" result="BackgroundImageFix"/>
<feBlend mode="normal" in="SourceGraphic" in2="BackgroundImageFix" result="shape"/>
<feGaussianBlur stdDeviation="1.5" result="effect1_foregroundBlur_14_194"/>
</filter>
<filter id="filter11_f_14_194" x="318" y="41" width="9" height="9" filterUnits="userSpaceOnUse" color-interpolation-filters="sRGB">
<feFlood flood-opacity="0" result="BackgroundImageFix"/>
<feBlend mode="normal" in="SourceGraphic" in2="BackgroundImageFix" result="shape"/>
<feGaussianBlur stdDeviation="1.5" result="effect1_foregroundBlur_14_194"/>
</filter>
<filter id="filter12_f_14_194" x="206" y="296" width="9" height="9" filterUnits="userSpaceOnUse" color-interpolation-filters="sRGB">
<feFlood flood-opacity="0" result="BackgroundImageFix"/>
<feBlend mode="normal" in="SourceGraphic" in2="BackgroundImageFix" result="shape"/>
<feGaussianBlur stdDeviation="1.5" result="effect1_foregroundBlur_14_194"/>
</filter>
<filter id="filter13_f_14_194" x="47" y="700" width="9" height="9" filterUnits="userSpaceOnUse" color-interpolation-filters="sRGB">
<feFlood flood-opacity="0" result="BackgroundImageFix"/>
<feBlend mode="normal" in="SourceGraphic" in2="BackgroundImageFix" result="shape"/>
<feGaussianBlur stdDeviation="1.5" result="effect1_foregroundBlur_14_194"/>
</filter>
<filter id="filter14_f_14_194" x="315" y="657" width="9" height="9" filterUnits="userSpaceOnUse" color-interpolation-filters="sRGB">
<feFlood flood-opacity="0" result="BackgroundImageFix"/>
<feBlend mode="normal" in="SourceGraphic" in2="BackgroundImageFix" result="shape"/>
<feGaussianBlur stdDeviation="1.5" result="effect1_foregroundBlur_14_194"/>
</filter>
<filter id="filter15_f_14_194" x="1621" y="573" width="9" height="9" filterUnits="userSpaceOnUse" color-interpolation-filters="sRGB">
<feFlood flood-opacity="0" result="BackgroundImageFix"/>
<feBlend mode="normal" in="SourceGraphic" in2="BackgroundImageFix" result="shape"/>
<feGaussianBlur stdDeviation="1.5" result="effect1_foregroundBlur_14_194"/>
</filter>
<filter id="filter16_f_14_194" x="1804" y="262" width="9" height="9" filterUnits="userSpaceOnUse" color-interpolation-filters="sRGB">
<feFlood flood-opacity="0" result="BackgroundImageFix"/>
<feBlend mode="normal" in="SourceGraphic" in2="BackgroundImageFix" result="shape"/>
<feGaussianBlur stdDeviation="1.5" result="effect1_foregroundBlur_14_194"/>
</filter>
<filter id="filter17_f_14_194" x="117" y="105" width="9" height="9" filterUnits="userSpaceOnUse" color-interpolation-filters="sRGB">
<feFlood flood-opacity="0" result="BackgroundImageFix"/>
<feBlend mode="normal" in="SourceGraphic" in2="BackgroundImageFix" result="shape"/>
<feGaussianBlur stdDeviation="1.5" result="effect1_foregroundBlur_14_194"/>
</filter>
<filter id="filter18_f_14_194" x="136" y="551" width="9" height="9" filterUnits="userSpaceOnUse" color-interpolation-filters="sRGB">
<feFlood flood-opacity="0" result="BackgroundImageFix"/>
<feBlend mode="normal" in="SourceGraphic" in2="BackgroundImageFix" result="shape"/>
<feGaussianBlur stdDeviation="1.5" result="effect1_foregroundBlur_14_194"/>
</filter>
<filter id="filter19_f_14_194" x="5" y="382" width="9" height="9" filterUnits="userSpaceOnUse" color-interpolation-filters="sRGB">
<feFlood flood-opacity="0" result="BackgroundImageFix"/>
<feBlend mode="normal" in="SourceGraphic" in2="BackgroundImageFix" result="shape"/>
<feGaussianBlur stdDeviation="1.5" result="effect1_foregroundBlur_14_194"/>
</filter>
<filter id="filter20_f_14_194" x="1881" y="40" width="9" height="9" filterUnits="userSpaceOnUse" color-interpolation-filters="sRGB">
<feFlood flood-opacity="0" result="BackgroundImageFix"/>
<feBlend mode="normal" in="SourceGraphic" in2="BackgroundImageFix" result="shape"/>
<feGaussianBlur stdDeviation="1.5" result="effect1_foregroundBlur_14_194"/>
</filter>
<filter id="filter21_f_14_194" x="26" y="41" width="9" height="9" filterUnits="userSpaceOnUse" color-interpolation-filters="sRGB">
<feFlood flood-opacity="0" result="BackgroundImageFix"/>
<feBlend mode="normal" in="SourceGraphic" in2="BackgroundImageFix" result="shape"/>
<feGaussianBlur stdDeviation="1.5" result="effect1_foregroundBlur_14_194"/>
</filter>
<filter id="filter22_f_14_194" x="1900" y="544" width="9" height="9" filterUnits="userSpaceOnUse" color-interpolation-filters="sRGB">
<feFlood flood-opacity="0" result="BackgroundImageFix"/>
<feBlend mode="normal" in="SourceGraphic" in2="BackgroundImageFix" result="shape"/>
<feGaussianBlur stdDeviation="1.5" result="effect1_foregroundBlur_14_194"/>
</filter>
<filter id="filter23_f_14_194" x="1655" y="403" width="9" height="9" filterUnits="userSpaceOnUse" color-interpolation-filters="sRGB">
<feFlood flood-opacity="0" result="BackgroundImageFix"/>
<feBlend mode="normal" in="SourceGraphic" in2="BackgroundImageFix" result="shape"/>
<feGaussianBlur stdDeviation="1.5" result="effect1_foregroundBlur_14_194"/>
</filter>
<filter id="filter24_f_14_194" x="425" y="642" width="9" height="9" filterUnits="userSpaceOnUse" color-interpolation-filters="sRGB">
<feFlood flood-opacity="0" result="BackgroundImageFix"/>
<feBlend mode="normal" in="SourceGraphic" in2="BackgroundImageFix" result="shape"/>
<feGaussianBlur stdDeviation="1.5" result="effect1_foregroundBlur_14_194"/>
</filter>
<filter id="filter25_f_14_194" x="1612" y="149" width="9" height="9" filterUnits="userSpaceOnUse" color-interpolation-filters="sRGB">
<feFlood flood-opacity="0" result="BackgroundImageFix"/>
<feBlend mode="normal" in="SourceGraphic" in2="BackgroundImageFix" result="shape"/>
<feGaussianBlur stdDeviation="1.5" result="effect1_foregroundBlur_14_194"/>
</filter>
<filter id="filter26_f_14_194" x="394" y="105" width="9" height="9" filterUnits="userSpaceOnUse" color-interpolation-filters="sRGB">
<feFlood flood-opacity="0" result="BackgroundImageFix"/>
<feBlend mode="normal" in="SourceGraphic" in2="BackgroundImageFix" result="shape"/>
<feGaussianBlur stdDeviation="1.5" result="effect1_foregroundBlur_14_194"/>
</filter>
<filter id="filter27_f_14_194" x="1394" y="544" width="9" height="9" filterUnits="userSpaceOnUse" color-interpolation-filters="sRGB">
<feFlood flood-opacity="0" result="BackgroundImageFix"/>
<feBlend mode="normal" in="SourceGraphic" in2="BackgroundImageFix" result="shape"/>
<feGaussianBlur stdDeviation="1.5" result="effect1_foregroundBlur_14_194"/>
</filter>
<filter id="filter28_f_14_194" x="597" y="180" width="9" height="9" filterUnits="userSpaceOnUse" color-interpolation-filters="sRGB">
<feFlood flood-opacity="0" result="BackgroundImageFix"/>
<feBlend mode="normal" in="SourceGraphic" in2="BackgroundImageFix" result="shape"/>
<feGaussianBlur stdDeviation="1.5" result="effect1_foregroundBlur_14_194"/>
</filter>
<filter id="filter29_f_14_194" x="755" y="14" width="9" height="9" filterUnits="userSpaceOnUse" color-interpolation-filters="sRGB">
<feFlood flood-opacity="0" result="BackgroundImageFix"/>
<feBlend mode="normal" in="SourceGraphic" in2="BackgroundImageFix" result="shape"/>
<feGaussianBlur stdDeviation="1.5" result="effect1_foregroundBlur_14_194"/>
</filter>
<filter id="filter30_f_14_194" x="792" y="35" width="9" height="9" filterUnits="userSpaceOnUse" color-interpolation-filters="sRGB">
<feFlood flood-opacity="0" result="BackgroundImageFix"/>
<feBlend mode="normal" in="SourceGraphic" in2="BackgroundImageFix" result="shape"/>
<feGaussianBlur stdDeviation="1.5" result="effect1_foregroundBlur_14_194"/>
</filter>
<filter id="filter31_f_14_194" x="1214" y="74" width="9" height="9" filterUnits="userSpaceOnUse" color-interpolation-filters="sRGB">
<feFlood flood-opacity="0" result="BackgroundImageFix"/>
<feBlend mode="normal" in="SourceGraphic" in2="BackgroundImageFix" result="shape"/>
<feGaussianBlur stdDeviation="1.5" result="effect1_foregroundBlur_14_194"/>
</filter>
<filter id="filter32_f_14_194" x="711" y="616" width="9" height="9" filterUnits="userSpaceOnUse" color-interpolation-filters="sRGB">
<feFlood flood-opacity="0" result="BackgroundImageFix"/>
<feBlend mode="normal" in="SourceGraphic" in2="BackgroundImageFix" result="shape"/>
<feGaussianBlur stdDeviation="1.5" result="effect1_foregroundBlur_14_194"/>
</filter>
<filter id="filter33_f_14_194" x="576" y="677" width="9" height="9" filterUnits="userSpaceOnUse" color-interpolation-filters="sRGB">
<feFlood flood-opacity="0" result="BackgroundImageFix"/>
<feBlend mode="normal" in="SourceGraphic" in2="BackgroundImageFix" result="shape"/>
<feGaussianBlur stdDeviation="1.5" result="effect1_foregroundBlur_14_194"/>
</filter>
<filter id="filter34_f_14_194" x="603" y="694" width="9" height="9" filterUnits="userSpaceOnUse" color-interpolation-filters="sRGB">
<feFlood flood-opacity="0" result="BackgroundImageFix"/>
<feBlend mode="normal" in="SourceGraphic" in2="BackgroundImageFix" result="shape"/>
<feGaussianBlur stdDeviation="1.5" result="effect1_foregroundBlur_14_194"/>
</filter>
<filter id="filter35_f_14_194" x="627" y="693" width="9" height="9" filterUnits="userSpaceOnUse" color-interpolation-filters="sRGB">
<feFlood flood-opacity="0" result="BackgroundImageFix"/>
<feBlend mode="normal" in="SourceGraphic" in2="BackgroundImageFix" result="shape"/>
<feGaussianBlur stdDeviation="1.5" result="effect1_foregroundBlur_14_194"/>
</filter>
<filter id="filter36_f_14_194" x="1234" y="663" width="9" height="9" filterUnits="userSpaceOnUse" color-interpolation-filters="sRGB">
<feFlood flood-opacity="0" result="BackgroundImageFix"/>
<feBlend mode="normal" in="SourceGraphic" in2="BackgroundImageFix" result="shape"/>
<feGaussianBlur stdDeviation="1.5" result="effect1_foregroundBlur_14_194"/>
</filter>
<filter id="filter37_f_14_194" x="1205" y="684" width="9" height="9" filterUnits="userSpaceOnUse" color-interpolation-filters="sRGB">
<feFlood flood-opacity="0" result="BackgroundImageFix"/>
<feBlend mode="normal" in="SourceGraphic" in2="BackgroundImageFix" result="shape"/>
<feGaussianBlur stdDeviation="1.5" result="effect1_foregroundBlur_14_194"/>
</filter>
<filter id="filter38_f_14_194" x="342" y="331" width="9" height="9" filterUnits="userSpaceOnUse" color-interpolation-filters="sRGB">
<feFlood flood-opacity="0" result="BackgroundImageFix"/>
<feBlend mode="normal" in="SourceGraphic" in2="BackgroundImageFix" result="shape"/>
<feGaussianBlur stdDeviation="1.5" result="effect1_foregroundBlur_14_194"/>
</filter>
<filter id="filter39_f_14_194" x="362" y="340" width="9" height="9" filterUnits="userSpaceOnUse" color-interpolation-filters="sRGB">
<feFlood flood-opacity="0" result="BackgroundImageFix"/>
<feBlend mode="normal" in="SourceGraphic" in2="BackgroundImageFix" result="shape"/>
<feGaussianBlur stdDeviation="1.5" result="effect1_foregroundBlur_14_194"/>
</filter>
<filter id="filter40_f_14_194" x="1487" y="115" width="9" height="9" filterUnits="userSpaceOnUse" color-interpolation-filters="sRGB">
<feFlood flood-opacity="0" result="BackgroundImageFix"/>
<feBlend mode="normal" in="SourceGraphic" in2="BackgroundImageFix" result="shape"/>
<feGaussianBlur stdDeviation="1.5" result="effect1_foregroundBlur_14_194"/>
</filter>
<filter id="filter41_f_14_194" x="1455" y="160" width="9" height="9" filterUnits="userSpaceOnUse" color-interpolation-filters="sRGB">
<feFlood flood-opacity="0" result="BackgroundImageFix"/>
<feBlend mode="normal" in="SourceGraphic" in2="BackgroundImageFix" result="shape"/>
<feGaussianBlur stdDeviation="1.5" result="effect1_foregroundBlur_14_194"/>
</filter>
<filter id="filter42_f_14_194" x="234" y="407" width="9" height="9" filterUnits="userSpaceOnUse" color-interpolation-filters="sRGB">
<feFlood flood-opacity="0" result="BackgroundImageFix"/>
<feBlend mode="normal" in="SourceGraphic" in2="BackgroundImageFix" result="shape"/>
<feGaussianBlur stdDeviation="1.5" result="effect1_foregroundBlur_14_194"/>
</filter>
<filter id="filter43_f_14_194" x="14" y="432" width="9" height="9" filterUnits="userSpaceOnUse" color-interpolation-filters="sRGB">
<feFlood flood-opacity="0" result="BackgroundImageFix"/>
<feBlend mode="normal" in="SourceGraphic" in2="BackgroundImageFix" result="shape"/>
<feGaussianBlur stdDeviation="1.5" result="effect1_foregroundBlur_14_194"/>
</filter>
<filter id="filter44_f_14_194" x="23" y="409" width="9" height="9" filterUnits="userSpaceOnUse" color-interpolation-filters="sRGB">
<feFlood flood-opacity="0" result="BackgroundImageFix"/>
<feBlend mode="normal" in="SourceGraphic" in2="BackgroundImageFix" result="shape"/>
<feGaussianBlur stdDeviation="1.5" result="effect1_foregroundBlur_14_194"/>
</filter>
<filter id="filter45_f_14_194" x="38" y="397" width="9" height="9" filterUnits="userSpaceOnUse" color-interpolation-filters="sRGB">
<feFlood flood-opacity="0" result="BackgroundImageFix"/>
<feBlend mode="normal" in="SourceGraphic" in2="BackgroundImageFix" result="shape"/>
<feGaussianBlur stdDeviation="1.5" result="effect1_foregroundBlur_14_194"/>
</filter>
<filter id="filter46_f_14_194" x="1841" y="271" width="9" height="9" filterUnits="userSpaceOnUse" color-interpolation-filters="sRGB">
<feFlood flood-opacity="0" result="BackgroundImageFix"/>
<feBlend mode="normal" in="SourceGraphic" in2="BackgroundImageFix" result="shape"/>
<feGaussianBlur stdDeviation="1.5" result="effect1_foregroundBlur_14_194"/>
</filter>
<filter id="filter47_f_14_194" x="1859" y="220" width="9" height="9" filterUnits="userSpaceOnUse" color-interpolation-filters="sRGB">
<feFlood flood-opacity="0" result="BackgroundImageFix"/>
<feBlend mode="normal" in="SourceGraphic" in2="BackgroundImageFix" result="shape"/>
<feGaussianBlur stdDeviation="1.5" result="effect1_foregroundBlur_14_194"/>
</filter>
<filter id="filter48_f_14_194" x="145" y="117" width="9" height="9" filterUnits="userSpaceOnUse" color-interpolation-filters="sRGB">
<feFlood flood-opacity="0" result="BackgroundImageFix"/>
<feBlend mode="normal" in="SourceGraphic" in2="BackgroundImageFix" result="shape"/>
<feGaussianBlur stdDeviation="1.5" result="effect1_foregroundBlur_14_194"/>
</filter>
<filter id="filter49_f_14_194" x="123" y="127" width="9" height="9" filterUnits="userSpaceOnUse" color-interpolation-filters="sRGB">
<feFlood flood-opacity="0" result="BackgroundImageFix"/>
<feBlend mode="normal" in="SourceGraphic" in2="BackgroundImageFix" result="shape"/>
<feGaussianBlur stdDeviation="1.5" result="effect1_foregroundBlur_14_194"/>
</filter>
<filter id="filter50_f_14_194" x="1642" y="158" width="9" height="9" filterUnits="userSpaceOnUse" color-interpolation-filters="sRGB">
<feFlood flood-opacity="0" result="BackgroundImageFix"/>
<feBlend mode="normal" in="SourceGraphic" in2="BackgroundImageFix" result="shape"/>
<feGaussianBlur stdDeviation="1.5" result="effect1_foregroundBlur_14_194"/>
</filter>
<filter id="filter51_f_14_194" x="1645" y="564" width="9" height="9" filterUnits="userSpaceOnUse" color-interpolation-filters="sRGB">
<feFlood flood-opacity="0" result="BackgroundImageFix"/>
<feBlend mode="normal" in="SourceGraphic" in2="BackgroundImageFix" result="shape"/>
<feGaussianBlur stdDeviation="1.5" result="effect1_foregroundBlur_14_194"/>
</filter>
<filter id="filter52_f_14_194" x="1633" y="587" width="9" height="9" filterUnits="userSpaceOnUse" color-interpolation-filters="sRGB">
<feFlood flood-opacity="0" result="BackgroundImageFix"/>
<feBlend mode="normal" in="SourceGraphic" in2="BackgroundImageFix" result="shape"/>
<feGaussianBlur stdDeviation="1.5" result="effect1_foregroundBlur_14_194"/>
</filter>
<filter id="filter53_f_14_194" x="1632" y="607" width="9" height="9" filterUnits="userSpaceOnUse" color-interpolation-filters="sRGB">
<feFlood flood-opacity="0" result="BackgroundImageFix"/>
<feBlend mode="normal" in="SourceGraphic" in2="BackgroundImageFix" result="shape"/>
<feGaussianBlur stdDeviation="1.5" result="effect1_foregroundBlur_14_194"/>
</filter>
<filter id="filter54_f_14_194" x="1617" y="624" width="9" height="9" filterUnits="userSpaceOnUse" color-interpolation-filters="sRGB">
<feFlood flood-opacity="0" result="BackgroundImageFix"/>
<feBlend mode="normal" in="SourceGraphic" in2="BackgroundImageFix" result="shape"/>
<feGaussianBlur stdDeviation="1.5" result="effect1_foregroundBlur_14_194"/>
</filter>
<filter id="filter55_f_14_194" x="184" y="574" width="9" height="9" filterUnits="userSpaceOnUse" color-interpolation-filters="sRGB">
<feFlood flood-opacity="0" result="BackgroundImageFix"/>
<feBlend mode="normal" in="SourceGraphic" in2="BackgroundImageFix" result="shape"/>
<feGaussianBlur stdDeviation="1.5" result="effect1_foregroundBlur_14_194"/>
</filter>
<filter id="filter56_f_14_194" x="164" y="622" width="9" height="9" filterUnits="userSpaceOnUse" color-interpolation-filters="sRGB">
<feFlood flood-opacity="0" result="BackgroundImageFix"/>
<feBlend mode="normal" in="SourceGraphic" in2="BackgroundImageFix" result="shape"/>
<feGaussianBlur stdDeviation="1.5" result="effect1_foregroundBlur_14_194"/>
</filter>
<filter id="filter57_f_14_194" x="182" y="506" width="9" height="9" filterUnits="userSpaceOnUse" color-interpolation-filters="sRGB">
<feFlood flood-opacity="0" result="BackgroundImageFix"/>
<feBlend mode="normal" in="SourceGraphic" in2="BackgroundImageFix" result="shape"/>
<feGaussianBlur stdDeviation="1.5" result="effect1_foregroundBlur_14_194"/>
</filter>
<filter id="filter58_f_14_194" x="167" y="547" width="9" height="9" filterUnits="userSpaceOnUse" color-interpolation-filters="sRGB">
<feFlood flood-opacity="0" result="BackgroundImageFix"/>
<feBlend mode="normal" in="SourceGraphic" in2="BackgroundImageFix" result="shape"/>
<feGaussianBlur stdDeviation="1.5" result="effect1_foregroundBlur_14_194"/>
</filter>
<filter id="filter59_f_14_194" x="1720" y="647" width="9" height="9" filterUnits="userSpaceOnUse" color-interpolation-filters="sRGB">
<feFlood flood-opacity="0" result="BackgroundImageFix"/>
<feBlend mode="normal" in="SourceGraphic" in2="BackgroundImageFix" result="shape"/>
<feGaussianBlur stdDeviation="1.5" result="effect1_foregroundBlur_14_194"/>
</filter>
<filter id="filter60_f_14_194" x="1478" y="686" width="9" height="9" filterUnits="userSpaceOnUse" color-interpolation-filters="sRGB">
<feFlood flood-opacity="0" result="BackgroundImageFix"/>
<feBlend mode="normal" in="SourceGraphic" in2="BackgroundImageFix" result="shape"/>
<feGaussianBlur stdDeviation="1.5" result="effect1_foregroundBlur_14_194"/>
</filter>
<filter id="filter61_f_14_194" x="1422" y="12" width="9" height="9" filterUnits="userSpaceOnUse" color-interpolation-filters="sRGB">
<feFlood flood-opacity="0" result="BackgroundImageFix"/>
<feBlend mode="normal" in="SourceGraphic" in2="BackgroundImageFix" result="shape"/>
<feGaussianBlur stdDeviation="1.5" result="effect1_foregroundBlur_14_194"/>
</filter>
<filter id="filter62_f_14_194" x="1844" y="687" width="9" height="9" filterUnits="userSpaceOnUse" color-interpolation-filters="sRGB">
<feFlood flood-opacity="0" result="BackgroundImageFix"/>
<feBlend mode="normal" in="SourceGraphic" in2="BackgroundImageFix" result="shape"/>
<feGaussianBlur stdDeviation="1.5" result="effect1_foregroundBlur_14_194"/>
</filter>
<filter id="filter63_f_14_194" x="63" y="202" width="9" height="9" filterUnits="userSpaceOnUse" color-interpolation-filters="sRGB">
<feFlood flood-opacity="0" result="BackgroundImageFix"/>
<feBlend mode="normal" in="SourceGraphic" in2="BackgroundImageFix" result="shape"/>
<feGaussianBlur stdDeviation="1.5" result="effect1_foregroundBlur_14_194"/>
</filter>
<filter id="filter64_f_14_194" x="114" y="521" width="9" height="9" filterUnits="userSpaceOnUse" color-interpolation-filters="sRGB">
<feFlood flood-opacity="0" result="BackgroundImageFix"/>
<feBlend mode="normal" in="SourceGraphic" in2="BackgroundImageFix" result="shape"/>
<feGaussianBlur stdDeviation="1.5" result="effect1_foregroundBlur_14_194"/>
</filter>
<filter id="filter65_f_14_194" x="1645" y="112" width="9" height="9" filterUnits="userSpaceOnUse" color-interpolation-filters="sRGB">
<feFlood flood-opacity="0" result="BackgroundImageFix"/>
<feBlend mode="normal" in="SourceGraphic" in2="BackgroundImageFix" result="shape"/>
<feGaussianBlur stdDeviation="1.5" result="effect1_foregroundBlur_14_194"/>
</filter>
<filter id="filter66_f_14_194" x="1702" y="12" width="9" height="9" filterUnits="userSpaceOnUse" color-interpolation-filters="sRGB">
<feFlood flood-opacity="0" result="BackgroundImageFix"/>
<feBlend mode="normal" in="SourceGraphic" in2="BackgroundImageFix" result="shape"/>
<feGaussianBlur stdDeviation="1.5" result="effect1_foregroundBlur_14_194"/>
</filter>
<filter id="filter67_f_14_194" x="1896" y="201" width="9" height="9" filterUnits="userSpaceOnUse" color-interpolation-filters="sRGB">
<feFlood flood-opacity="0" result="BackgroundImageFix"/>
<feBlend mode="normal" in="SourceGraphic" in2="BackgroundImageFix" result="shape"/>
<feGaussianBlur stdDeviation="1.5" result="effect1_foregroundBlur_14_194"/>
</filter>
<filter id="filter68_f_14_194" x="178" y="9" width="9" height="9" filterUnits="userSpaceOnUse" color-interpolation-filters="sRGB">
<feFlood flood-opacity="0" result="BackgroundImageFix"/>
<feBlend mode="normal" in="SourceGraphic" in2="BackgroundImageFix" result="shape"/>
<feGaussianBlur stdDeviation="1.5" result="effect1_foregroundBlur_14_194"/>
</filter>
<clipPath id="clip0_14_194">
<rect width="22" height="22" fill="white" transform="translate(1742 66)"/>
</clipPath>
<clipPath id="clip1_14_194">
<rect width="19" height="19" fill="white" transform="translate(336 22)"/>
</clipPath>
<clipPath id="clip2_14_194">
<rect width="18" height="18" fill="white" transform="translate(78 109)"/>
</clipPath>
<clipPath id="clip3_14_194">
<rect width="14" height="14" fill="white" transform="translate(164 335)"/>
</clipPath>
<clipPath id="clip4_14_194">
<rect width="14" height="14" fill="white" transform="translate(1813 694)"/>
</clipPath>
<clipPath id="clip5_14_194">
<rect width="22" height="22" fill="white" transform="translate(9 684)"/>
</clipPath>
<clipPath id="clip6_14_194">
<rect width="22" height="22" fill="white" transform="translate(1868 565)"/>
</clipPath>
<clipPath id="clip7_14_194">
<rect width="22" height="22" fill="white" transform="translate(403 617)"/>
</clipPath>
</defs>
</svg>
