<svg width="377" height="377" viewBox="0 0 377 377" fill="none" xmlns="http://www.w3.org/2000/svg">
<path d="M377 188.5C377 84.3943 292.606 -1.32918e-05 188.5 -1.32918e-05C84.3943 -1.32918e-05 0 84.3943 0 188.5C0 292.606 84.3943 377 188.5 377C292.606 377 377 292.606 377 188.5Z" fill="url(#paint0_radial_127_108)"/>
<rect width="127.229" height="127.229" transform="matrix(0.866025 0.5 -0.866025 0.5 192.508 133.818)" fill="url(#paint1_linear_127_108)"/>
<path d="M82.8672 197.482L192.493 260.775L192.493 270.978L82.8672 207.558L82.8672 197.482Z" fill="#6BBA2C"/>
<path d="M192.496 271.074L302.743 206.535L302.743 197.384L192.496 260.999L192.496 271.074Z" fill="#A15C2C"/>
<path d="M247.974 228.952C237.091 235.29 234.768 238.197 219.427 233.175C197.494 224.056 177.249 209.408 180.919 200.582C184.588 191.756 205.343 191.993 227.276 201.112C268.463 219.597 258.857 222.615 247.974 228.952Z" fill="black" fill-opacity="0.25"/>
<rect width="20.0168" height="67.1398" rx="9.90416" transform="matrix(-1 0 0 1 199.332 142.492)" fill="#A15C2C"/>
<path d="M199.357 156.871L192.395 160.923V209.26L194.204 208.481C195.698 207.838 196.948 206.735 197.773 205.333C198.81 203.57 199.357 201.561 199.357 199.515V156.871Z" fill="#78441F"/>
<path d="M185.421 38.1463C187.583 36.9609 191.089 36.9609 193.251 38.1463L248.387 68.3723C248.441 68.4019 248.441 68.45 248.387 68.4796L189.336 100.852L130.285 68.4796C130.231 68.45 130.231 68.4019 130.285 68.3723L185.421 38.1463Z" fill="#799602"/>
<path d="M189.359 100.852L248.508 68.4256L248.508 128.813C248.508 131.279 246.755 134.238 244.593 135.424L189.359 165.703L189.359 100.852Z" fill="#688005"/>
<path d="M130.188 68.4258L189.336 100.852L189.336 165.704L134.103 135.424C131.94 134.239 130.187 131.279 130.187 128.813L130.188 68.4258Z" fill="#88A900"/>
<path d="M229.274 104.386L223.866 101.273C223.57 101.103 223.208 101.094 222.903 101.249L217.574 103.963C217.029 104.241 217.001 105.009 217.525 105.326L222.381 108.262C222.68 108.443 223.051 108.457 223.362 108.298L229.25 105.3C229.618 105.113 229.632 104.592 229.274 104.386Z" fill="#FBD036"/>
<path d="M222.84 114.069V107.299C222.84 107.273 222.825 107.249 222.801 107.238L217.347 104.683C217.174 104.602 216.976 104.728 216.976 104.919V110.29C216.976 110.655 217.173 110.991 217.491 111.17L222.739 114.128C222.784 114.153 222.84 114.121 222.84 114.069Z" fill="#E4B717"/>
<path d="M229.418 110.13V105.484C229.418 104.733 228.628 104.245 227.956 104.58L222.918 107.098C222.895 107.109 222.881 107.132 222.881 107.158V114.074C222.881 114.125 222.935 114.157 222.98 114.133L228.879 111.024C229.21 110.85 229.418 110.505 229.418 110.13Z" fill="#FBD036"/>
<path d="M223.578 107.371L228.653 104.873C228.743 104.829 228.848 104.894 228.848 104.994V110.564C228.848 110.615 228.819 110.662 228.773 110.685L223.698 113.206C223.608 113.25 223.503 113.185 223.503 113.085V107.492C223.503 107.44 223.532 107.394 223.578 107.371Z" stroke="#FDF5ED" stroke-width="0.673698" stroke-linecap="round"/>
<circle r="0.353364" transform="matrix(-1 0 0 1 226.373 109.193)" fill="#FFE6CC"/>
<path d="M228.361 108.084L228.331 106.825C228.327 106.681 228.14 106.63 228.064 106.751L226.926 108.569C226.85 108.691 226.981 108.838 227.111 108.775L228.279 108.217C228.33 108.193 228.362 108.141 228.361 108.084Z" fill="#FFF06B"/>
<path d="M226.755 108.268L228.066 106.045C228.139 105.92 228.004 105.777 227.876 105.843L226.959 106.313C226.921 106.333 226.894 106.368 226.885 106.41L226.49 108.163C226.453 108.323 226.671 108.41 226.755 108.268Z" fill="#FFF06B"/>
<path d="M226.152 108.398L226.361 106.818C226.377 106.702 226.255 106.617 226.151 106.671L225.039 107.252C224.955 107.295 224.936 107.406 224.999 107.476L225.901 108.476C225.984 108.567 226.135 108.52 226.152 108.398Z" fill="#FFF06B"/>
<path d="M224.056 108.132L224.441 107.678C224.496 107.614 224.594 107.61 224.653 107.67L225.63 108.647C225.741 108.757 225.622 108.939 225.477 108.883L224.114 108.36C224.021 108.325 223.991 108.208 224.056 108.132Z" fill="#FFF06B"/>
<path d="M224.156 108.774L225.649 109.307C225.766 109.349 225.779 109.51 225.669 109.57L224.143 110.399C224.046 110.452 223.928 110.38 223.93 110.269L223.963 108.907C223.966 108.808 224.064 108.741 224.156 108.774Z" fill="#FFF06B"/>
<path d="M228.319 109.659V108.817C228.319 108.711 228.208 108.641 228.112 108.687L227.186 109.135C227.074 109.189 227.078 109.349 227.192 109.398L228.118 109.792C228.213 109.833 228.319 109.763 228.319 109.659Z" fill="#FFF06B"/>
<path d="M228.075 110.21L227.016 109.651C226.906 109.593 226.779 109.692 226.808 109.813L227.045 110.798C227.067 110.889 227.169 110.935 227.252 110.892L228.074 110.465C228.178 110.412 228.178 110.264 228.075 110.21Z" fill="#FFF06B"/>
<path d="M226.719 110.928L226.597 110.1C226.574 109.95 226.365 109.932 226.317 110.076L225.945 111.193C225.903 111.319 226.039 111.43 226.154 111.363L226.649 111.074C226.7 111.044 226.728 110.986 226.719 110.928Z" fill="#FFF06B"/>
<path d="M225.423 111.683L226.038 110.066C226.086 109.941 225.951 109.824 225.834 109.888L224.088 110.842C224.041 110.867 224.012 110.915 224.012 110.968V112.248C224.012 112.358 224.13 112.428 224.226 112.375L225.357 111.758C225.387 111.742 225.411 111.715 225.423 111.683Z" fill="#FFF06B"/>
<path d="M228.361 108.084L228.331 106.825C228.327 106.681 228.14 106.63 228.064 106.751L226.926 108.569C226.85 108.691 226.981 108.838 227.111 108.775L228.279 108.217C228.33 108.193 228.362 108.141 228.361 108.084Z" stroke="#FEFEFE" stroke-width="0.260023" stroke-linecap="round"/>
<path d="M226.755 108.268L228.066 106.045C228.139 105.92 228.004 105.777 227.876 105.843L226.959 106.313C226.921 106.333 226.894 106.368 226.885 106.41L226.49 108.163C226.453 108.323 226.671 108.41 226.755 108.268Z" stroke="#FEFEFE" stroke-width="0.260023" stroke-linecap="round"/>
<path d="M226.152 108.398L226.361 106.818C226.377 106.702 226.255 106.617 226.151 106.671L225.039 107.252C224.955 107.295 224.936 107.406 224.999 107.476L225.901 108.476C225.984 108.567 226.135 108.52 226.152 108.398Z" stroke="#FEFEFE" stroke-width="0.260023" stroke-linecap="round"/>
<path d="M224.056 108.132L224.441 107.678C224.496 107.614 224.594 107.61 224.653 107.67L225.63 108.647C225.741 108.757 225.622 108.939 225.477 108.883L224.114 108.36C224.021 108.325 223.991 108.208 224.056 108.132Z" stroke="#FEFEFE" stroke-width="0.260023" stroke-linecap="round"/>
<path d="M224.156 108.774L225.649 109.307C225.766 109.349 225.779 109.51 225.669 109.57L224.143 110.399C224.046 110.452 223.928 110.38 223.93 110.269L223.963 108.907C223.966 108.808 224.064 108.741 224.156 108.774Z" stroke="#FEFEFE" stroke-width="0.260023" stroke-linecap="round"/>
<path d="M228.319 109.659V108.817C228.319 108.711 228.208 108.641 228.112 108.687L227.186 109.135C227.074 109.189 227.078 109.349 227.192 109.398L228.118 109.792C228.213 109.833 228.319 109.763 228.319 109.659Z" stroke="#FEFEFE" stroke-width="0.260023" stroke-linecap="round"/>
<path d="M228.075 110.21L227.016 109.651C226.906 109.593 226.779 109.692 226.808 109.813L227.045 110.798C227.067 110.889 227.169 110.935 227.252 110.892L228.074 110.465C228.178 110.412 228.178 110.264 228.075 110.21Z" stroke="#FEFEFE" stroke-width="0.260023" stroke-linecap="round"/>
<path d="M226.719 110.928L226.597 110.1C226.574 109.95 226.365 109.932 226.317 110.076L225.945 111.193C225.903 111.319 226.039 111.43 226.154 111.363L226.649 111.074C226.7 111.044 226.728 110.986 226.719 110.928Z" stroke="#FEFEFE" stroke-width="0.260023" stroke-linecap="round"/>
<path d="M225.423 111.683L226.038 110.066C226.086 109.941 225.951 109.824 225.834 109.888L224.088 110.842C224.041 110.867 224.012 110.915 224.012 110.968V112.248C224.012 112.358 224.13 112.428 224.226 112.375L225.357 111.758C225.387 111.742 225.411 111.715 225.423 111.683Z" stroke="#FEFEFE" stroke-width="0.260023" stroke-linecap="round"/>
<path d="M244.496 124.089L239.089 120.976C238.793 120.806 238.431 120.797 238.126 120.952L232.797 123.666C232.252 123.944 232.224 124.712 232.747 125.029L237.603 127.966C237.902 128.146 238.273 128.16 238.585 128.001L244.473 125.003C244.841 124.816 244.854 124.295 244.496 124.089Z" fill="#FBD036"/>
<path d="M238.059 133.772V127.002C238.059 126.976 238.043 126.952 238.02 126.941L232.565 124.386C232.393 124.306 232.195 124.431 232.195 124.622V129.993C232.195 130.358 232.392 130.694 232.71 130.873L237.958 133.831C238.003 133.856 238.059 133.824 238.059 133.772Z" fill="#E4B717"/>
<path d="M244.645 129.834V125.187C244.645 124.436 243.854 123.948 243.182 124.283L238.145 126.801C238.122 126.812 238.107 126.836 238.107 126.861V133.777C238.107 133.828 238.161 133.86 238.206 133.837L244.105 130.728C244.437 130.553 244.645 130.209 244.645 129.834Z" fill="#FBD036"/>
<path d="M238.797 127.074L243.872 124.576C243.962 124.532 244.066 124.597 244.066 124.697V130.267C244.066 130.318 244.037 130.365 243.992 130.388L238.916 132.909C238.827 132.953 238.722 132.888 238.722 132.788V127.195C238.722 127.144 238.751 127.097 238.797 127.074Z" stroke="#FDF5ED" stroke-width="0.673698" stroke-linecap="round"/>
<circle r="0.353364" transform="matrix(-1 0 0 1 241.596 128.896)" fill="#FFE6CC"/>
<path d="M243.58 127.787L243.549 126.528C243.546 126.385 243.359 126.333 243.283 126.455L242.145 128.272C242.068 128.394 242.199 128.541 242.33 128.479L243.498 127.921C243.549 127.896 243.581 127.844 243.58 127.787Z" fill="#FFF06B"/>
<path d="M241.973 127.971L243.285 125.748C243.358 125.623 243.223 125.48 243.094 125.546L242.178 126.016C242.14 126.036 242.113 126.071 242.103 126.113L241.708 127.866C241.672 128.027 241.89 128.113 241.973 127.971Z" fill="#FFF06B"/>
<path d="M241.37 128.101L241.58 126.521C241.595 126.406 241.474 126.32 241.37 126.375L240.258 126.955C240.174 126.998 240.154 127.109 240.218 127.179L241.12 128.179C241.203 128.27 241.354 128.223 241.37 128.101Z" fill="#FFF06B"/>
<path d="M239.275 127.835L239.66 127.381C239.715 127.317 239.812 127.313 239.872 127.373L240.849 128.35C240.959 128.46 240.841 128.642 240.695 128.587L239.333 128.064C239.24 128.028 239.21 127.911 239.275 127.835Z" fill="#FFF06B"/>
<path d="M239.375 128.477L240.867 129.01C240.985 129.052 240.997 129.213 240.888 129.273L239.362 130.102C239.265 130.155 239.146 130.083 239.149 129.972L239.182 128.61C239.185 128.512 239.282 128.444 239.375 128.477Z" fill="#FFF06B"/>
<path d="M243.538 129.363V128.521C243.538 128.414 243.427 128.344 243.331 128.391L242.404 128.838C242.293 128.892 242.297 129.053 242.411 129.101L243.337 129.495C243.432 129.536 243.538 129.466 243.538 129.363Z" fill="#FFF06B"/>
<path d="M243.294 129.913L242.235 129.354C242.125 129.296 241.998 129.395 242.027 129.516L242.264 130.501C242.286 130.592 242.388 130.639 242.471 130.595L243.293 130.169C243.396 130.115 243.397 129.967 243.294 129.913Z" fill="#FFF06B"/>
<path d="M241.938 130.631L241.815 129.803C241.793 129.653 241.584 129.635 241.536 129.779L241.163 130.896C241.121 131.022 241.258 131.133 241.373 131.066L241.868 130.777C241.919 130.747 241.947 130.689 241.938 130.631Z" fill="#FFF06B"/>
<path d="M240.642 131.386L241.257 129.769C241.304 129.644 241.17 129.527 241.052 129.591L239.306 130.545C239.26 130.57 239.231 130.619 239.231 130.671V131.952C239.231 132.061 239.349 132.131 239.445 132.078L240.576 131.462C240.606 131.445 240.629 131.418 240.642 131.386Z" fill="#FFF06B"/>
<path d="M243.58 127.787L243.549 126.528C243.546 126.385 243.359 126.333 243.283 126.455L242.145 128.272C242.068 128.394 242.199 128.541 242.33 128.479L243.498 127.921C243.549 127.896 243.581 127.844 243.58 127.787Z" stroke="#FEFEFE" stroke-width="0.260023" stroke-linecap="round"/>
<path d="M241.973 127.971L243.285 125.748C243.358 125.623 243.223 125.48 243.094 125.546L242.178 126.016C242.14 126.036 242.113 126.071 242.103 126.113L241.708 127.866C241.672 128.027 241.89 128.113 241.973 127.971Z" stroke="#FEFEFE" stroke-width="0.260023" stroke-linecap="round"/>
<path d="M241.37 128.101L241.58 126.521C241.595 126.406 241.474 126.32 241.37 126.375L240.258 126.955C240.174 126.998 240.154 127.109 240.218 127.179L241.12 128.179C241.203 128.27 241.354 128.223 241.37 128.101Z" stroke="#FEFEFE" stroke-width="0.260023" stroke-linecap="round"/>
<path d="M239.275 127.835L239.66 127.381C239.715 127.317 239.812 127.313 239.872 127.373L240.849 128.35C240.959 128.46 240.841 128.642 240.695 128.587L239.333 128.064C239.24 128.028 239.21 127.911 239.275 127.835Z" stroke="#FEFEFE" stroke-width="0.260023" stroke-linecap="round"/>
<path d="M239.375 128.477L240.867 129.01C240.985 129.052 240.997 129.213 240.888 129.273L239.362 130.102C239.265 130.155 239.146 130.083 239.149 129.972L239.182 128.61C239.185 128.512 239.282 128.444 239.375 128.477Z" stroke="#FEFEFE" stroke-width="0.260023" stroke-linecap="round"/>
<path d="M243.538 129.363V128.521C243.538 128.414 243.427 128.344 243.331 128.391L242.404 128.838C242.293 128.892 242.297 129.053 242.411 129.101L243.337 129.495C243.432 129.536 243.538 129.466 243.538 129.363Z" stroke="#FEFEFE" stroke-width="0.260023" stroke-linecap="round"/>
<path d="M243.294 129.913L242.235 129.354C242.125 129.296 241.998 129.395 242.027 129.516L242.264 130.501C242.286 130.592 242.388 130.639 242.471 130.595L243.293 130.169C243.396 130.115 243.397 129.967 243.294 129.913Z" stroke="#FEFEFE" stroke-width="0.260023" stroke-linecap="round"/>
<path d="M241.938 130.631L241.815 129.803C241.793 129.653 241.584 129.635 241.536 129.779L241.163 130.896C241.121 131.022 241.258 131.133 241.373 131.066L241.868 130.777C241.919 130.747 241.947 130.689 241.938 130.631Z" stroke="#FEFEFE" stroke-width="0.260023" stroke-linecap="round"/>
<path d="M240.642 131.386L241.257 129.769C241.304 129.644 241.17 129.527 241.052 129.591L239.306 130.545C239.26 130.57 239.231 130.619 239.231 130.671V131.952C239.231 132.061 239.349 132.131 239.445 132.078L240.576 131.462C240.606 131.445 240.629 131.418 240.642 131.386Z" stroke="#FEFEFE" stroke-width="0.260023" stroke-linecap="round"/>
<path d="M173.265 127.843L178.673 124.73C178.969 124.56 179.331 124.551 179.636 124.706L184.965 127.42C185.51 127.698 185.538 128.466 185.014 128.783L180.158 131.719C179.859 131.9 179.488 131.914 179.177 131.755L173.289 128.757C172.921 128.57 172.907 128.049 173.265 127.843Z" fill="#FBD036"/>
<path d="M179.699 137.526V130.756C179.699 130.73 179.714 130.706 179.738 130.695L185.192 128.14C185.365 128.06 185.563 128.185 185.563 128.376V133.747C185.563 134.112 185.366 134.448 185.048 134.627L179.8 137.585C179.755 137.61 179.699 137.578 179.699 137.526Z" fill="#E4B717"/>
<path d="M173.121 133.588V128.941C173.121 128.19 173.911 127.702 174.583 128.037L179.621 130.555C179.644 130.566 179.658 130.589 179.658 130.615V137.531C179.658 137.582 179.604 137.614 179.56 137.59L173.66 134.482C173.329 134.307 173.121 133.963 173.121 133.588Z" fill="#FBD036"/>
<path d="M178.961 130.828L173.886 128.33C173.796 128.286 173.691 128.351 173.691 128.451V134.021C173.691 134.072 173.72 134.119 173.766 134.142L178.841 136.663C178.931 136.707 179.036 136.642 179.036 136.542V130.949C179.036 130.897 179.007 130.851 178.961 130.828Z" stroke="#FDF5ED" stroke-width="0.673698" stroke-linecap="round"/>
<circle cx="176.166" cy="132.65" r="0.353364" fill="#FFE6CC"/>
<path d="M174.178 131.541L174.208 130.282C174.212 130.139 174.399 130.087 174.475 130.209L175.613 132.026C175.689 132.148 175.559 132.295 175.428 132.232L174.26 131.674C174.209 131.65 174.177 131.598 174.178 131.541Z" fill="#FFF06B"/>
<path d="M175.784 131.725L174.473 129.502C174.4 129.377 174.535 129.234 174.663 129.3L175.58 129.77C175.618 129.79 175.645 129.825 175.655 129.867L176.05 131.62C176.086 131.78 175.868 131.867 175.784 131.725Z" fill="#FFF06B"/>
<path d="M176.387 131.855L176.178 130.275C176.163 130.159 176.284 130.074 176.388 130.128L177.5 130.709C177.584 130.752 177.603 130.863 177.54 130.933L176.638 131.933C176.555 132.024 176.404 131.977 176.387 131.855Z" fill="#FFF06B"/>
<path d="M178.483 131.589L178.098 131.135C178.043 131.071 177.945 131.067 177.886 131.127L176.909 132.104C176.798 132.214 176.917 132.396 177.063 132.34L178.425 131.818C178.518 131.782 178.548 131.665 178.483 131.589Z" fill="#FFF06B"/>
<path d="M178.383 132.231L176.89 132.764C176.773 132.806 176.76 132.967 176.87 133.027L178.396 133.856C178.493 133.909 178.612 133.837 178.609 133.726L178.576 132.364C178.573 132.265 178.475 132.198 178.383 132.231Z" fill="#FFF06B"/>
<path d="M174.22 133.116V132.274C174.22 132.168 174.331 132.098 174.427 132.144L175.354 132.592C175.465 132.646 175.461 132.806 175.347 132.855L174.421 133.249C174.326 133.29 174.22 133.22 174.22 133.116Z" fill="#FFF06B"/>
<path d="M174.464 133.667L175.523 133.108C175.633 133.05 175.76 133.149 175.731 133.27L175.494 134.255C175.472 134.346 175.37 134.392 175.287 134.349L174.465 133.922C174.361 133.869 174.361 133.721 174.464 133.667Z" fill="#FFF06B"/>
<path d="M175.82 134.385L175.942 133.557C175.965 133.407 176.174 133.389 176.222 133.533L176.594 134.65C176.636 134.776 176.5 134.887 176.385 134.82L175.89 134.531C175.839 134.501 175.811 134.443 175.82 134.385Z" fill="#FFF06B"/>
<path d="M177.116 135.14L176.501 133.523C176.454 133.398 176.588 133.281 176.705 133.345L178.451 134.299C178.498 134.324 178.527 134.372 178.527 134.425V135.706C178.527 135.815 178.409 135.885 178.313 135.832L177.182 135.215C177.152 135.199 177.128 135.172 177.116 135.14Z" fill="#FFF06B"/>
<path d="M174.178 131.541L174.208 130.282C174.212 130.139 174.399 130.087 174.475 130.209L175.613 132.026C175.689 132.148 175.559 132.295 175.428 132.232L174.26 131.674C174.209 131.65 174.177 131.598 174.178 131.541Z" stroke="#FEFEFE" stroke-width="0.260023" stroke-linecap="round"/>
<path d="M175.784 131.725L174.473 129.502C174.4 129.377 174.535 129.234 174.663 129.3L175.58 129.77C175.618 129.79 175.645 129.825 175.655 129.867L176.05 131.62C176.086 131.78 175.868 131.867 175.784 131.725Z" stroke="#FEFEFE" stroke-width="0.260023" stroke-linecap="round"/>
<path d="M176.387 131.855L176.178 130.275C176.163 130.159 176.284 130.074 176.388 130.128L177.5 130.709C177.584 130.752 177.603 130.863 177.54 130.933L176.638 131.933C176.555 132.024 176.404 131.977 176.387 131.855Z" stroke="#FEFEFE" stroke-width="0.260023" stroke-linecap="round"/>
<path d="M178.483 131.589L178.098 131.135C178.043 131.071 177.945 131.067 177.886 131.127L176.909 132.104C176.798 132.214 176.917 132.396 177.063 132.34L178.425 131.818C178.518 131.782 178.548 131.665 178.483 131.589Z" stroke="#FEFEFE" stroke-width="0.260023" stroke-linecap="round"/>
<path d="M178.383 132.231L176.89 132.764C176.773 132.806 176.76 132.967 176.87 133.027L178.396 133.856C178.493 133.909 178.612 133.837 178.609 133.726L178.576 132.364C178.573 132.265 178.475 132.198 178.383 132.231Z" stroke="#FEFEFE" stroke-width="0.260023" stroke-linecap="round"/>
<path d="M174.22 133.116V132.274C174.22 132.168 174.331 132.098 174.427 132.144L175.354 132.592C175.465 132.646 175.461 132.806 175.347 132.855L174.421 133.249C174.326 133.29 174.22 133.22 174.22 133.116Z" stroke="#FEFEFE" stroke-width="0.260023" stroke-linecap="round"/>
<path d="M174.464 133.667L175.523 133.108C175.633 133.05 175.76 133.149 175.731 133.27L175.494 134.255C175.472 134.346 175.37 134.392 175.287 134.349L174.465 133.922C174.361 133.869 174.361 133.721 174.464 133.667Z" stroke="#FEFEFE" stroke-width="0.260023" stroke-linecap="round"/>
<path d="M175.82 134.385L175.942 133.557C175.965 133.407 176.174 133.389 176.222 133.533L176.594 134.65C176.636 134.776 176.5 134.887 176.385 134.82L175.89 134.531C175.839 134.501 175.811 134.443 175.82 134.385Z" stroke="#FEFEFE" stroke-width="0.260023" stroke-linecap="round"/>
<path d="M177.116 135.14L176.501 133.523C176.454 133.398 176.588 133.281 176.705 133.345L178.451 134.299C178.498 134.324 178.527 134.372 178.527 134.425V135.706C178.527 135.815 178.409 135.885 178.313 135.832L177.182 135.215C177.152 135.199 177.128 135.172 177.116 135.14Z" stroke="#FEFEFE" stroke-width="0.260023" stroke-linecap="round"/>
<path d="M207.383 143.792L201.976 140.68C201.68 140.509 201.317 140.5 201.013 140.655L195.684 143.369C195.139 143.647 195.111 144.415 195.634 144.732L200.49 147.669C200.789 147.849 201.16 147.863 201.472 147.704L207.36 144.707C207.728 144.519 207.741 143.998 207.383 143.792Z" fill="#F18E27"/>
<path d="M200.949 153.475V146.705C200.949 146.679 200.934 146.656 200.91 146.644L195.456 144.089C195.284 144.009 195.086 144.135 195.086 144.325V149.696C195.086 150.061 195.282 150.397 195.6 150.576L200.849 153.534C200.894 153.559 200.949 153.527 200.949 153.475Z" fill="#C77136"/>
<path d="M207.527 149.537V144.891C207.527 144.139 206.737 143.651 206.065 143.987L201.027 146.504C201.005 146.515 200.99 146.539 200.99 146.564V153.48C200.99 153.531 201.044 153.563 201.089 153.54L206.988 150.431C207.32 150.256 207.527 149.912 207.527 149.537Z" fill="#F18E27"/>
<path d="M201.688 146.777L206.763 144.279C206.852 144.235 206.957 144.3 206.957 144.4V149.97C206.957 150.021 206.928 150.068 206.882 150.091L201.807 152.612C201.718 152.656 201.612 152.591 201.612 152.491V146.898C201.612 146.847 201.642 146.8 201.688 146.777Z" stroke="white" stroke-width="0.673698" stroke-linecap="round"/>
<circle r="0.353364" transform="matrix(-1 0 0 1 204.483 148.599)" fill="white"/>
<path d="M206.47 147.49L206.44 146.231C206.437 146.088 206.249 146.036 206.173 146.158L205.036 147.975C204.959 148.097 205.09 148.244 205.22 148.182L206.388 147.624C206.44 147.599 206.472 147.547 206.47 147.49Z" fill="#DD5A31"/>
<path d="M204.864 147.674L206.175 145.451C206.249 145.326 206.114 145.183 205.985 145.249L205.069 145.719C205.031 145.739 205.003 145.774 204.994 145.816L204.599 147.569C204.563 147.73 204.78 147.816 204.864 147.674Z" fill="#DD5A31"/>
<path d="M204.261 147.804L204.471 146.225C204.486 146.109 204.364 146.024 204.261 146.078L203.149 146.658C203.065 146.702 203.045 146.813 203.108 146.883L204.011 147.882C204.093 147.973 204.245 147.926 204.261 147.804Z" fill="#DD5A31"/>
<path d="M202.165 147.539L202.551 147.084C202.605 147.02 202.703 147.016 202.763 147.076L203.74 148.053C203.85 148.163 203.731 148.346 203.586 148.29L202.224 147.767C202.131 147.731 202.101 147.614 202.165 147.539Z" fill="#DD5A31"/>
<path d="M202.266 148.181L203.758 148.713C203.876 148.755 203.888 148.916 203.778 148.976L202.253 149.805C202.155 149.858 202.037 149.786 202.04 149.675L202.073 148.313C202.075 148.215 202.173 148.147 202.266 148.181Z" fill="#DD5A31"/>
<path d="M206.428 149.066V148.224C206.428 148.117 206.317 148.047 206.221 148.094L205.295 148.541C205.183 148.595 205.187 148.756 205.301 148.804L206.228 149.198C206.323 149.239 206.428 149.169 206.428 149.066Z" fill="#DD5A31"/>
<path d="M206.184 149.616L205.125 149.057C205.016 148.999 204.889 149.098 204.918 149.219L205.155 150.204C205.177 150.295 205.279 150.342 205.362 150.298L206.184 149.872C206.287 149.818 206.288 149.67 206.184 149.616Z" fill="#DD5A31"/>
<path d="M204.829 150.334L204.706 149.506C204.684 149.356 204.474 149.338 204.426 149.482L204.054 150.599C204.012 150.725 204.149 150.836 204.264 150.769L204.759 150.48C204.81 150.45 204.837 150.393 204.829 150.334Z" fill="#DD5A31"/>
<path d="M203.532 151.089L204.147 149.473C204.195 149.347 204.061 149.23 203.943 149.295L202.197 150.248C202.151 150.273 202.122 150.322 202.122 150.374V151.655C202.122 151.764 202.239 151.834 202.335 151.781L203.466 151.165C203.497 151.148 203.52 151.121 203.532 151.089Z" fill="#DD5A31"/>
<path d="M206.47 147.49L206.44 146.231C206.437 146.088 206.249 146.036 206.173 146.158L205.036 147.975C204.959 148.097 205.09 148.244 205.22 148.182L206.388 147.624C206.44 147.599 206.472 147.547 206.47 147.49Z" stroke="#DD5A31" stroke-width="0.288728" stroke-linecap="round"/>
<path d="M204.864 147.674L206.175 145.451C206.249 145.326 206.114 145.183 205.985 145.249L205.069 145.719C205.031 145.739 205.003 145.774 204.994 145.816L204.599 147.569C204.563 147.73 204.78 147.816 204.864 147.674Z" stroke="#DD5A31" stroke-width="0.288728" stroke-linecap="round"/>
<path d="M204.261 147.804L204.471 146.225C204.486 146.109 204.364 146.024 204.261 146.078L203.149 146.658C203.065 146.702 203.045 146.813 203.108 146.883L204.011 147.882C204.093 147.973 204.245 147.926 204.261 147.804Z" stroke="#DD5A31" stroke-width="0.288728" stroke-linecap="round"/>
<path d="M202.165 147.539L202.551 147.084C202.605 147.02 202.703 147.016 202.763 147.076L203.74 148.053C203.85 148.163 203.731 148.346 203.586 148.29L202.224 147.767C202.131 147.731 202.101 147.614 202.165 147.539Z" stroke="#DD5A31" stroke-width="0.288728" stroke-linecap="round"/>
<path d="M202.266 148.181L203.758 148.713C203.876 148.755 203.888 148.916 203.778 148.976L202.253 149.805C202.155 149.858 202.037 149.786 202.04 149.675L202.073 148.313C202.075 148.215 202.173 148.147 202.266 148.181Z" stroke="#DD5A31" stroke-width="0.288728" stroke-linecap="round"/>
<path d="M206.428 149.066V148.224C206.428 148.117 206.317 148.047 206.221 148.094L205.295 148.541C205.183 148.595 205.187 148.756 205.301 148.804L206.228 149.198C206.323 149.239 206.428 149.169 206.428 149.066Z" stroke="#DD5A31" stroke-width="0.288728" stroke-linecap="round"/>
<path d="M206.184 149.616L205.125 149.057C205.016 148.999 204.889 149.098 204.918 149.219L205.155 150.204C205.177 150.295 205.279 150.342 205.362 150.298L206.184 149.872C206.287 149.818 206.288 149.67 206.184 149.616Z" stroke="#DD5A31" stroke-width="0.288728" stroke-linecap="round"/>
<path d="M204.829 150.334L204.706 149.506C204.684 149.356 204.474 149.338 204.426 149.482L204.054 150.599C204.012 150.725 204.149 150.836 204.264 150.769L204.759 150.48C204.81 150.45 204.837 150.393 204.829 150.334Z" stroke="#DD5A31" stroke-width="0.288728" stroke-linecap="round"/>
<path d="M203.532 151.089L204.147 149.473C204.195 149.347 204.061 149.23 203.943 149.295L202.197 150.248C202.151 150.273 202.122 150.322 202.122 150.374V151.655C202.122 151.764 202.239 151.834 202.335 151.781L203.466 151.165C203.497 151.148 203.52 151.121 203.532 151.089Z" stroke="#DD5A31" stroke-width="0.288728" stroke-linecap="round"/>
<path d="M163.882 101.361L169.29 98.2479C169.586 98.0774 169.948 98.0681 170.253 98.2232L175.582 100.938C176.127 101.215 176.155 101.984 175.632 102.3L170.776 105.237C170.477 105.418 170.105 105.431 169.794 105.273L163.906 102.275C163.538 102.088 163.525 101.567 163.882 101.361Z" fill="#F18E27"/>
<path d="M170.316 111.044V104.274C170.316 104.248 170.332 104.224 170.355 104.213L175.81 101.658C175.982 101.577 176.18 101.703 176.18 101.893V107.264C176.18 107.629 175.983 107.966 175.665 108.145L170.417 111.102C170.372 111.128 170.316 111.095 170.316 111.044Z" fill="#C77136"/>
<path d="M163.738 107.105V102.459C163.738 101.708 164.529 101.219 165.201 101.555L170.238 104.072C170.261 104.084 170.276 104.107 170.276 104.133V111.048C170.276 111.099 170.222 111.132 170.177 111.108L164.278 107.999C163.946 107.824 163.738 107.48 163.738 107.105Z" fill="#F18E27"/>
<path d="M169.578 104.345L164.503 101.848C164.413 101.803 164.309 101.869 164.309 101.968V107.538C164.309 107.59 164.338 107.636 164.383 107.659L169.459 110.18C169.548 110.225 169.653 110.159 169.653 110.059V104.466C169.653 104.415 169.624 104.368 169.578 104.345Z" stroke="white" stroke-width="0.673698" stroke-linecap="round"/>
<circle cx="166.783" cy="106.168" r="0.353364" fill="white"/>
<path d="M164.795 105.058L164.826 103.799C164.829 103.656 165.016 103.605 165.092 103.726L166.23 105.543C166.307 105.666 166.176 105.812 166.045 105.75L164.877 105.192C164.826 105.168 164.794 105.115 164.795 105.058Z" fill="#DD5A31"/>
<path d="M166.402 105.243L165.09 103.019C165.017 102.895 165.152 102.751 165.281 102.818L166.197 103.288C166.235 103.307 166.262 103.343 166.272 103.385L166.667 105.137C166.703 105.298 166.485 105.384 166.402 105.243Z" fill="#DD5A31"/>
<path d="M167.005 105.372L166.795 103.793C166.78 103.677 166.901 103.592 167.005 103.646L168.117 104.226C168.201 104.27 168.221 104.381 168.157 104.451L167.255 105.45C167.172 105.541 167.021 105.494 167.005 105.372Z" fill="#DD5A31"/>
<path d="M169.1 105.107L168.715 104.653C168.66 104.588 168.563 104.584 168.503 104.644L167.526 105.621C167.416 105.731 167.534 105.914 167.68 105.858L169.042 105.335C169.135 105.299 169.165 105.183 169.1 105.107Z" fill="#DD5A31"/>
<path d="M169 105.749L167.508 106.282C167.39 106.323 167.378 106.485 167.487 106.544L169.013 107.374C169.11 107.427 169.229 107.354 169.226 107.243L169.193 105.881C169.19 105.783 169.093 105.716 169 105.749Z" fill="#DD5A31"/>
<path d="M164.837 106.634V105.792C164.837 105.686 164.948 105.616 165.044 105.662L165.971 106.11C166.082 106.164 166.078 106.324 165.964 106.373L165.038 106.767C164.943 106.807 164.837 106.737 164.837 106.634Z" fill="#DD5A31"/>
<path d="M165.081 107.184L166.14 106.626C166.25 106.568 166.377 106.666 166.348 106.787L166.111 107.772C166.089 107.864 165.987 107.91 165.904 107.867L165.082 107.44C164.979 107.386 164.978 107.239 165.081 107.184Z" fill="#DD5A31"/>
<path d="M166.437 107.903L166.56 107.075C166.582 106.925 166.791 106.906 166.839 107.05L167.212 108.167C167.254 108.294 167.117 108.405 167.002 108.337L166.507 108.048C166.456 108.019 166.428 107.961 166.437 107.903Z" fill="#DD5A31"/>
<path d="M167.733 108.658L167.118 107.041C167.071 106.916 167.205 106.799 167.323 106.863L169.069 107.816C169.115 107.841 169.144 107.89 169.144 107.943V109.223C169.144 109.333 169.026 109.402 168.93 109.35L167.799 108.733C167.769 108.717 167.746 108.69 167.733 108.658Z" fill="#DD5A31"/>
<path d="M164.795 105.058L164.826 103.799C164.829 103.656 165.016 103.605 165.092 103.726L166.23 105.543C166.307 105.666 166.176 105.812 166.045 105.75L164.877 105.192C164.826 105.168 164.794 105.115 164.795 105.058Z" stroke="#DD5A31" stroke-width="0.288728" stroke-linecap="round"/>
<path d="M166.402 105.243L165.09 103.019C165.017 102.895 165.152 102.751 165.281 102.818L166.197 103.288C166.235 103.307 166.262 103.343 166.272 103.385L166.667 105.137C166.703 105.298 166.485 105.384 166.402 105.243Z" stroke="#DD5A31" stroke-width="0.288728" stroke-linecap="round"/>
<path d="M167.005 105.372L166.795 103.793C166.78 103.677 166.901 103.592 167.005 103.646L168.117 104.226C168.201 104.27 168.221 104.381 168.157 104.451L167.255 105.45C167.172 105.541 167.021 105.494 167.005 105.372Z" stroke="#DD5A31" stroke-width="0.288728" stroke-linecap="round"/>
<path d="M169.1 105.107L168.715 104.653C168.66 104.588 168.563 104.584 168.503 104.644L167.526 105.621C167.416 105.731 167.534 105.914 167.68 105.858L169.042 105.335C169.135 105.299 169.165 105.183 169.1 105.107Z" stroke="#DD5A31" stroke-width="0.288728" stroke-linecap="round"/>
<path d="M169 105.749L167.508 106.282C167.39 106.323 167.378 106.485 167.487 106.544L169.013 107.374C169.11 107.427 169.229 107.354 169.226 107.243L169.193 105.881C169.19 105.783 169.093 105.716 169 105.749Z" stroke="#DD5A31" stroke-width="0.288728" stroke-linecap="round"/>
<path d="M164.837 106.634V105.792C164.837 105.686 164.948 105.616 165.044 105.662L165.971 106.11C166.082 106.164 166.078 106.324 165.964 106.373L165.038 106.767C164.943 106.807 164.837 106.737 164.837 106.634Z" stroke="#DD5A31" stroke-width="0.288728" stroke-linecap="round"/>
<path d="M165.081 107.184L166.14 106.626C166.25 106.568 166.377 106.666 166.348 106.787L166.111 107.772C166.089 107.864 165.987 107.91 165.904 107.867L165.082 107.44C164.979 107.386 164.978 107.239 165.081 107.184Z" stroke="#DD5A31" stroke-width="0.288728" stroke-linecap="round"/>
<path d="M166.437 107.903L166.56 107.075C166.582 106.925 166.791 106.906 166.839 107.05L167.212 108.167C167.254 108.294 167.117 108.405 167.002 108.337L166.507 108.048C166.456 108.019 166.428 107.961 166.437 107.903Z" stroke="#DD5A31" stroke-width="0.288728" stroke-linecap="round"/>
<path d="M167.733 108.658L167.118 107.041C167.071 106.916 167.205 106.799 167.323 106.863L169.069 107.816C169.115 107.841 169.144 107.89 169.144 107.943V109.223C169.144 109.333 169.026 109.402 168.93 109.35L167.799 108.733C167.769 108.717 167.746 108.69 167.733 108.658Z" stroke="#DD5A31" stroke-width="0.288728" stroke-linecap="round"/>
<path d="M153.668 130.656L159.075 127.543C159.371 127.372 159.733 127.363 160.038 127.518L165.367 130.233C165.912 130.51 165.94 131.279 165.417 131.595L160.561 134.532C160.262 134.713 159.891 134.726 159.579 134.568L153.691 131.57C153.323 131.383 153.31 130.862 153.668 130.656Z" fill="#F18E27"/>
<path d="M160.105 140.339V133.569C160.105 133.543 160.121 133.519 160.144 133.508L165.599 130.953C165.771 130.872 165.969 130.998 165.969 131.188V136.559C165.969 136.924 165.772 137.261 165.454 137.44L160.206 140.397C160.161 140.423 160.105 140.39 160.105 140.339Z" fill="#C77136"/>
<path d="M153.52 136.4V131.754C153.52 131.003 154.31 130.514 154.982 130.85L160.02 133.367C160.042 133.379 160.057 133.402 160.057 133.427V140.343C160.057 140.394 160.003 140.427 159.958 140.403L154.059 137.294C153.727 137.119 153.52 136.775 153.52 136.4Z" fill="#F18E27"/>
<path d="M159.367 133.64L154.292 131.142C154.202 131.098 154.098 131.164 154.098 131.263V136.833C154.098 136.885 154.127 136.931 154.172 136.954L159.248 139.475C159.337 139.52 159.442 139.454 159.442 139.354V133.761C159.442 133.71 159.413 133.663 159.367 133.64Z" stroke="white" stroke-width="0.673698" stroke-linecap="round"/>
<circle cx="156.568" cy="135.463" r="0.353364" fill="white"/>
<path d="M154.584 134.353L154.615 133.094C154.618 132.951 154.805 132.9 154.881 133.021L156.019 134.838C156.096 134.961 155.965 135.107 155.834 135.045L154.666 134.487C154.615 134.462 154.583 134.41 154.584 134.353Z" fill="#DD5A31"/>
<path d="M156.191 134.537L154.879 132.314C154.806 132.19 154.941 132.046 155.07 132.112L155.986 132.583C156.024 132.602 156.051 132.638 156.061 132.679L156.456 134.432C156.492 134.593 156.274 134.679 156.191 134.537Z" fill="#DD5A31"/>
<path d="M156.794 134.667L156.584 133.088C156.569 132.972 156.69 132.887 156.794 132.941L157.906 133.521C157.99 133.565 158.01 133.676 157.946 133.746L157.044 134.745C156.961 134.836 156.81 134.789 156.794 134.667Z" fill="#DD5A31"/>
<path d="M158.889 134.402L158.504 133.948C158.45 133.883 158.352 133.879 158.292 133.939L157.315 134.916C157.205 135.026 157.323 135.209 157.469 135.153L158.831 134.63C158.924 134.594 158.954 134.478 158.889 134.402Z" fill="#DD5A31"/>
<path d="M158.789 135.044L157.297 135.576C157.179 135.618 157.167 135.78 157.276 135.839L158.802 136.668C158.899 136.722 159.018 136.649 159.015 136.538L158.982 135.176C158.979 135.078 158.882 135.011 158.789 135.044Z" fill="#DD5A31"/>
<path d="M154.626 135.929V135.087C154.626 134.98 154.738 134.911 154.833 134.957L155.76 135.405C155.871 135.459 155.868 135.619 155.753 135.668L154.827 136.062C154.732 136.102 154.626 136.032 154.626 135.929Z" fill="#DD5A31"/>
<path d="M154.87 136.479L155.929 135.921C156.039 135.863 156.166 135.961 156.137 136.082L155.9 137.067C155.878 137.159 155.776 137.205 155.693 137.162L154.871 136.735C154.768 136.681 154.767 136.534 154.87 136.479Z" fill="#DD5A31"/>
<path d="M156.226 137.198L156.349 136.37C156.371 136.219 156.58 136.201 156.628 136.345L157.001 137.462C157.043 137.588 156.906 137.7 156.791 137.632L156.296 137.343C156.245 137.314 156.217 137.256 156.226 137.198Z" fill="#DD5A31"/>
<path d="M157.522 137.953L156.907 136.336C156.86 136.211 156.994 136.094 157.112 136.158L158.858 137.111C158.904 137.136 158.933 137.185 158.933 137.238V138.518C158.933 138.628 158.816 138.697 158.719 138.645L157.588 138.028C157.558 138.011 157.535 137.985 157.522 137.953Z" fill="#DD5A31"/>
<path d="M154.584 134.353L154.615 133.094C154.618 132.951 154.805 132.9 154.881 133.021L156.019 134.838C156.096 134.961 155.965 135.107 155.834 135.045L154.666 134.487C154.615 134.462 154.583 134.41 154.584 134.353Z" stroke="#DD5A31" stroke-width="0.288728" stroke-linecap="round"/>
<path d="M156.191 134.537L154.879 132.314C154.806 132.19 154.941 132.046 155.07 132.112L155.986 132.583C156.024 132.602 156.051 132.638 156.061 132.679L156.456 134.432C156.492 134.593 156.274 134.679 156.191 134.537Z" stroke="#DD5A31" stroke-width="0.288728" stroke-linecap="round"/>
<path d="M156.794 134.667L156.584 133.088C156.569 132.972 156.69 132.887 156.794 132.941L157.906 133.521C157.99 133.565 158.01 133.676 157.946 133.746L157.044 134.745C156.961 134.836 156.81 134.789 156.794 134.667Z" stroke="#DD5A31" stroke-width="0.288728" stroke-linecap="round"/>
<path d="M158.889 134.402L158.504 133.948C158.45 133.883 158.352 133.879 158.292 133.939L157.315 134.916C157.205 135.026 157.323 135.209 157.469 135.153L158.831 134.63C158.924 134.594 158.954 134.478 158.889 134.402Z" stroke="#DD5A31" stroke-width="0.288728" stroke-linecap="round"/>
<path d="M158.789 135.044L157.297 135.576C157.179 135.618 157.167 135.78 157.276 135.839L158.802 136.668C158.899 136.722 159.018 136.649 159.015 136.538L158.982 135.176C158.979 135.078 158.882 135.011 158.789 135.044Z" stroke="#DD5A31" stroke-width="0.288728" stroke-linecap="round"/>
<path d="M154.626 135.929V135.087C154.626 134.98 154.738 134.911 154.833 134.957L155.76 135.405C155.871 135.459 155.868 135.619 155.753 135.668L154.827 136.062C154.732 136.102 154.626 136.032 154.626 135.929Z" stroke="#DD5A31" stroke-width="0.288728" stroke-linecap="round"/>
<path d="M154.87 136.479L155.929 135.921C156.039 135.863 156.166 135.961 156.137 136.082L155.9 137.067C155.878 137.159 155.776 137.205 155.693 137.162L154.871 136.735C154.768 136.681 154.767 136.534 154.87 136.479Z" stroke="#DD5A31" stroke-width="0.288728" stroke-linecap="round"/>
<path d="M156.226 137.198L156.349 136.37C156.371 136.219 156.58 136.201 156.628 136.345L157.001 137.462C157.043 137.588 156.906 137.7 156.791 137.632L156.296 137.343C156.245 137.314 156.217 137.256 156.226 137.198Z" stroke="#DD5A31" stroke-width="0.288728" stroke-linecap="round"/>
<path d="M157.522 137.953L156.907 136.336C156.86 136.211 156.994 136.094 157.112 136.158L158.858 137.111C158.904 137.136 158.933 137.185 158.933 137.238V138.518C158.933 138.628 158.816 138.697 158.719 138.645L157.588 138.028C157.558 138.011 157.535 137.985 157.522 137.953Z" stroke="#DD5A31" stroke-width="0.288728" stroke-linecap="round"/>
<path d="M222.391 127.843L216.983 124.73C216.687 124.56 216.325 124.551 216.021 124.706L210.691 127.42C210.146 127.698 210.118 128.466 210.642 128.783L215.498 131.719C215.797 131.9 216.168 131.914 216.479 131.755L222.368 128.757C222.735 128.57 222.749 128.049 222.391 127.843Z" fill="#89C25B"/>
<path d="M215.957 137.526V130.756C215.957 130.73 215.942 130.706 215.918 130.695L210.464 128.14C210.291 128.06 210.094 128.185 210.094 128.376V133.747C210.094 134.112 210.29 134.448 210.608 134.627L215.857 137.585C215.901 137.61 215.957 137.578 215.957 137.526Z" fill="#7EAE57"/>
<path d="M222.535 133.588V128.941C222.535 128.19 221.745 127.702 221.073 128.037L216.035 130.555C216.012 130.566 215.998 130.589 215.998 130.615V137.531C215.998 137.582 216.052 137.614 216.097 137.59L221.996 134.482C222.328 134.307 222.535 133.963 222.535 133.588Z" fill="#D1EDBB"/>
<path d="M216.695 130.828L221.771 128.33C221.86 128.286 221.965 128.351 221.965 128.451V134.021C221.965 134.072 221.936 134.119 221.89 134.142L216.815 136.663C216.725 136.707 216.62 136.642 216.62 136.542V130.949C216.62 130.897 216.649 130.851 216.695 130.828Z" stroke="white" stroke-width="0.673698" stroke-linecap="round"/>
<circle r="0.353364" transform="matrix(-1 0 0 1 219.49 132.65)" fill="white"/>
<path d="M221.478 131.541L221.448 130.282C221.444 130.139 221.257 130.087 221.181 130.209L220.043 132.026C219.967 132.148 220.098 132.295 220.228 132.232L221.396 131.674C221.447 131.65 221.48 131.598 221.478 131.541Z" fill="#FDF2B6"/>
<path d="M219.872 131.725L221.183 129.502C221.257 129.377 221.121 129.234 220.993 129.3L220.077 129.77C220.039 129.79 220.011 129.825 220.002 129.867L219.607 131.62C219.571 131.78 219.788 131.867 219.872 131.725Z" fill="#FDF2B6"/>
<path d="M219.269 131.855L219.478 130.275C219.494 130.159 219.372 130.074 219.268 130.128L218.156 130.709C218.073 130.752 218.053 130.863 218.116 130.933L219.019 131.933C219.101 132.024 219.253 131.977 219.269 131.855Z" fill="#FDF2B6"/>
<path d="M217.173 131.589L217.558 131.135C217.613 131.071 217.711 131.067 217.771 131.127L218.748 132.104C218.858 132.214 218.739 132.396 218.594 132.34L217.231 131.818C217.139 131.782 217.109 131.665 217.173 131.589Z" fill="#FDF2B6"/>
<path d="M217.273 132.231L218.766 132.764C218.883 132.806 218.896 132.967 218.786 133.027L217.261 133.856C217.163 133.909 217.045 133.837 217.047 133.726L217.081 132.364C217.083 132.265 217.181 132.198 217.273 132.231Z" fill="#FDF2B6"/>
<path d="M221.436 133.116V132.274C221.436 132.168 221.325 132.098 221.229 132.144L220.303 132.592C220.191 132.646 220.195 132.806 220.309 132.855L221.235 133.249C221.331 133.29 221.436 133.22 221.436 133.116Z" fill="#FDF2B6"/>
<path d="M221.192 133.667L220.133 133.108C220.023 133.05 219.897 133.149 219.926 133.27L220.163 134.255C220.185 134.346 220.286 134.392 220.37 134.349L221.191 133.922C221.295 133.869 221.295 133.721 221.192 133.667Z" fill="#FDF2B6"/>
<path d="M219.837 134.385L219.714 133.557C219.692 133.407 219.482 133.389 219.434 133.533L219.062 134.65C219.02 134.776 219.157 134.887 219.272 134.82L219.767 134.531C219.818 134.501 219.845 134.443 219.837 134.385Z" fill="#FDF2B6"/>
<path d="M218.54 135.14L219.155 133.523C219.203 133.398 219.069 133.281 218.951 133.345L217.205 134.299C217.159 134.324 217.13 134.372 217.13 134.425V135.706C217.13 135.815 217.247 135.885 217.343 135.832L218.474 135.215C218.504 135.199 218.528 135.172 218.54 135.14Z" fill="#FDF2B6"/>
<path d="M221.478 131.541L221.448 130.282C221.444 130.139 221.257 130.087 221.181 130.209L220.043 132.026C219.967 132.148 220.098 132.295 220.228 132.232L221.396 131.674C221.447 131.65 221.48 131.598 221.478 131.541Z" stroke="#FDF2B6" stroke-width="0.288728" stroke-linecap="round"/>
<path d="M219.872 131.725L221.183 129.502C221.257 129.377 221.121 129.234 220.993 129.3L220.077 129.77C220.039 129.79 220.011 129.825 220.002 129.867L219.607 131.62C219.571 131.78 219.788 131.867 219.872 131.725Z" stroke="#FDF2B6" stroke-width="0.288728" stroke-linecap="round"/>
<path d="M219.269 131.855L219.478 130.275C219.494 130.159 219.372 130.074 219.268 130.128L218.156 130.709C218.073 130.752 218.053 130.863 218.116 130.933L219.019 131.933C219.101 132.024 219.253 131.977 219.269 131.855Z" stroke="#FDF2B6" stroke-width="0.288728" stroke-linecap="round"/>
<path d="M217.173 131.589L217.558 131.135C217.613 131.071 217.711 131.067 217.771 131.127L218.748 132.104C218.858 132.214 218.739 132.396 218.594 132.34L217.231 131.818C217.139 131.782 217.109 131.665 217.173 131.589Z" stroke="#FDF2B6" stroke-width="0.288728" stroke-linecap="round"/>
<path d="M217.273 132.231L218.766 132.764C218.883 132.806 218.896 132.967 218.786 133.027L217.261 133.856C217.163 133.909 217.045 133.837 217.047 133.726L217.081 132.364C217.083 132.265 217.181 132.198 217.273 132.231Z" stroke="#FDF2B6" stroke-width="0.288728" stroke-linecap="round"/>
<path d="M221.436 133.116V132.274C221.436 132.168 221.325 132.098 221.229 132.144L220.303 132.592C220.191 132.646 220.195 132.806 220.309 132.855L221.235 133.249C221.331 133.29 221.436 133.22 221.436 133.116Z" stroke="#FDF2B6" stroke-width="0.288728" stroke-linecap="round"/>
<path d="M221.192 133.667L220.133 133.108C220.023 133.05 219.897 133.149 219.926 133.27L220.163 134.255C220.185 134.346 220.286 134.392 220.37 134.349L221.191 133.922C221.295 133.869 221.295 133.721 221.192 133.667Z" stroke="#FDF2B6" stroke-width="0.288728" stroke-linecap="round"/>
<path d="M219.837 134.385L219.714 133.557C219.692 133.407 219.482 133.389 219.434 133.533L219.062 134.65C219.02 134.776 219.157 134.887 219.272 134.82L219.767 134.531C219.818 134.501 219.845 134.443 219.837 134.385Z" stroke="#FDF2B6" stroke-width="0.288728" stroke-linecap="round"/>
<path d="M218.54 135.14L219.155 133.523C219.203 133.398 219.069 133.281 218.951 133.345L217.205 134.299C217.159 134.324 217.13 134.372 217.13 134.425V135.706C217.13 135.815 217.247 135.885 217.343 135.832L218.474 135.215C218.504 135.199 218.528 135.172 218.54 135.14Z" stroke="#FDF2B6" stroke-width="0.288728" stroke-linecap="round"/>
<path d="M138.652 114.706L144.059 111.594C144.356 111.423 144.718 111.414 145.022 111.569L150.352 114.284C150.897 114.561 150.925 115.33 150.401 115.646L145.545 118.583C145.246 118.764 144.875 118.777 144.564 118.619L138.675 115.621C138.308 115.433 138.294 114.912 138.652 114.706Z" fill="#89C25B"/>
<path d="M145.09 124.391V117.621C145.09 117.595 145.105 117.572 145.129 117.56L150.583 115.006C150.755 114.925 150.953 115.051 150.953 115.241V120.612C150.953 120.977 150.757 121.313 150.439 121.492L145.19 124.45C145.145 124.475 145.09 124.443 145.09 124.391Z" fill="#7EAE57"/>
<path d="M138.504 120.451V115.805C138.504 115.053 139.294 114.565 139.966 114.901L145.004 117.418C145.027 117.429 145.041 117.453 145.041 117.478V124.394C145.041 124.445 144.987 124.477 144.942 124.454L139.043 121.345C138.712 121.17 138.504 120.826 138.504 120.451Z" fill="#D1EDBB"/>
<path d="M144.351 117.691L139.276 115.193C139.187 115.149 139.082 115.214 139.082 115.314V120.884C139.082 120.935 139.111 120.982 139.157 121.005L144.232 123.526C144.322 123.57 144.427 123.505 144.427 123.405V117.812C144.427 117.761 144.397 117.714 144.351 117.691Z" stroke="white" stroke-width="0.673698" stroke-linecap="round"/>
<circle cx="141.553" cy="119.514" r="0.353364" fill="white"/>
<path d="M139.569 118.404L139.599 117.145C139.602 117.002 139.79 116.95 139.866 117.072L141.003 118.889C141.08 119.011 140.949 119.158 140.819 119.096L139.651 118.538C139.599 118.513 139.567 118.461 139.569 118.404Z" fill="#FDF2B6"/>
<path d="M141.175 118.588L139.864 116.365C139.79 116.24 139.925 116.097 140.054 116.163L140.97 116.634C141.008 116.653 141.036 116.688 141.045 116.73L141.44 118.483C141.476 118.644 141.259 118.73 141.175 118.588Z" fill="#FDF2B6"/>
<path d="M141.778 118.718L141.569 117.139C141.553 117.023 141.675 116.938 141.778 116.992L142.89 117.572C142.974 117.616 142.994 117.727 142.931 117.797L142.028 118.796C141.946 118.887 141.794 118.84 141.778 118.718Z" fill="#FDF2B6"/>
<path d="M143.874 118.453L143.489 117.999C143.434 117.934 143.336 117.93 143.276 117.99L142.299 118.967C142.189 119.077 142.308 119.26 142.453 119.204L143.815 118.681C143.908 118.645 143.938 118.528 143.874 118.453Z" fill="#FDF2B6"/>
<path d="M143.773 119.095L142.281 119.627C142.163 119.669 142.151 119.83 142.261 119.89L143.786 120.719C143.884 120.772 144.002 120.7 143.999 120.589L143.966 119.227C143.964 119.129 143.866 119.062 143.773 119.095Z" fill="#FDF2B6"/>
<path d="M139.611 119.98V119.138C139.611 119.031 139.722 118.961 139.818 119.008L140.744 119.455C140.856 119.509 140.852 119.67 140.738 119.718L139.811 120.113C139.716 120.153 139.611 120.083 139.611 119.98Z" fill="#FDF2B6"/>
<path d="M139.855 120.53L140.914 119.971C141.023 119.914 141.15 120.012 141.121 120.133L140.884 121.118C140.862 121.209 140.761 121.256 140.677 121.213L139.855 120.786C139.752 120.732 139.752 120.584 139.855 120.53Z" fill="#FDF2B6"/>
<path d="M141.21 121.248L141.333 120.42C141.355 120.27 141.565 120.252 141.613 120.396L141.985 121.513C142.027 121.639 141.89 121.75 141.775 121.683L141.28 121.394C141.229 121.364 141.202 121.307 141.21 121.248Z" fill="#FDF2B6"/>
<path d="M142.507 122.003L141.892 120.387C141.844 120.261 141.978 120.144 142.096 120.209L143.842 121.162C143.888 121.187 143.917 121.236 143.917 121.289V122.569C143.917 122.678 143.8 122.748 143.704 122.696L142.573 122.079C142.542 122.062 142.519 122.035 142.507 122.003Z" fill="#FDF2B6"/>
<path d="M139.569 118.404L139.599 117.145C139.602 117.002 139.79 116.95 139.866 117.072L141.003 118.889C141.08 119.011 140.949 119.158 140.819 119.096L139.651 118.538C139.599 118.513 139.567 118.461 139.569 118.404Z" stroke="#FDF2B6" stroke-width="0.288728" stroke-linecap="round"/>
<path d="M141.175 118.588L139.864 116.365C139.79 116.24 139.925 116.097 140.054 116.163L140.97 116.634C141.008 116.653 141.036 116.688 141.045 116.73L141.44 118.483C141.476 118.644 141.259 118.73 141.175 118.588Z" stroke="#FDF2B6" stroke-width="0.288728" stroke-linecap="round"/>
<path d="M141.778 118.718L141.569 117.139C141.553 117.023 141.675 116.938 141.778 116.992L142.89 117.572C142.974 117.616 142.994 117.727 142.931 117.797L142.028 118.796C141.946 118.887 141.794 118.84 141.778 118.718Z" stroke="#FDF2B6" stroke-width="0.288728" stroke-linecap="round"/>
<path d="M143.874 118.453L143.489 117.999C143.434 117.934 143.336 117.93 143.276 117.99L142.299 118.967C142.189 119.077 142.308 119.26 142.453 119.204L143.815 118.681C143.908 118.645 143.938 118.528 143.874 118.453Z" stroke="#FDF2B6" stroke-width="0.288728" stroke-linecap="round"/>
<path d="M143.773 119.095L142.281 119.627C142.163 119.669 142.151 119.83 142.261 119.89L143.786 120.719C143.884 120.772 144.002 120.7 143.999 120.589L143.966 119.227C143.964 119.129 143.866 119.062 143.773 119.095Z" stroke="#FDF2B6" stroke-width="0.288728" stroke-linecap="round"/>
<path d="M139.611 119.98V119.138C139.611 119.031 139.722 118.961 139.818 119.008L140.744 119.455C140.856 119.509 140.852 119.67 140.738 119.718L139.811 120.113C139.716 120.153 139.611 120.083 139.611 119.98Z" stroke="#FDF2B6" stroke-width="0.288728" stroke-linecap="round"/>
<path d="M139.855 120.53L140.914 119.971C141.023 119.914 141.15 120.012 141.121 120.133L140.884 121.118C140.862 121.209 140.761 121.256 140.677 121.213L139.855 120.786C139.752 120.732 139.752 120.584 139.855 120.53Z" stroke="#FDF2B6" stroke-width="0.288728" stroke-linecap="round"/>
<path d="M141.21 121.248L141.333 120.42C141.355 120.27 141.565 120.252 141.613 120.396L141.985 121.513C142.027 121.639 141.89 121.75 141.775 121.683L141.28 121.394C141.229 121.364 141.202 121.307 141.21 121.248Z" stroke="#FDF2B6" stroke-width="0.288728" stroke-linecap="round"/>
<path d="M142.507 122.003L141.892 120.387C141.844 120.261 141.978 120.144 142.096 120.209L143.842 121.162C143.888 121.187 143.917 121.236 143.917 121.289V122.569C143.917 122.678 143.8 122.748 143.704 122.696L142.573 122.079C142.542 122.062 142.519 122.035 142.507 122.003Z" stroke="#FDF2B6" stroke-width="0.288728" stroke-linecap="round"/>
<path d="M244.809 87.0795L239.401 83.9666C239.105 83.7962 238.743 83.7869 238.439 83.942L233.109 86.6566C232.564 86.9342 232.536 87.7026 233.06 88.0191L237.916 90.9558C238.215 91.1366 238.586 91.1501 238.897 90.9916L244.785 87.9937C245.153 87.8063 245.167 87.2855 244.809 87.0795Z" fill="#FB9A36"/>
<path d="M238.371 96.7625V89.9926C238.371 89.9665 238.356 89.9427 238.332 89.9316L232.878 87.3766C232.706 87.2958 232.508 87.4217 232.508 87.6121V92.9832C232.508 93.348 232.704 93.6845 233.022 93.8636L238.271 96.8211C238.316 96.8465 238.371 96.814 238.371 96.7625Z" fill="#E47F17"/>
<path d="M244.957 92.8239V88.1776C244.957 87.4265 244.167 86.9379 243.495 87.2737L238.457 89.791C238.434 89.8024 238.42 89.8257 238.42 89.8513V96.7672C238.42 96.8179 238.474 96.8505 238.519 96.8268L244.418 93.7178C244.749 93.543 244.957 93.1988 244.957 92.8239Z" fill="#F18E27"/>
<path d="M239.11 90.0642L244.185 87.5663C244.274 87.5222 244.379 87.5874 244.379 87.6872V93.2572C244.379 93.3084 244.35 93.3551 244.304 93.3779L239.229 95.8989C239.139 95.9434 239.034 95.8782 239.034 95.7782V90.1851C239.034 90.1338 239.063 90.0869 239.11 90.0642Z" stroke="#FFE6CC" stroke-width="0.673698" stroke-linecap="round"/>
<circle r="0.353364" transform="matrix(-1 0 0 1 241.908 91.8866)" fill="#FFE6CC"/>
<path d="M243.892 90.777L243.862 89.518C243.858 89.3748 243.671 89.3235 243.595 89.4448L242.458 91.2619C242.381 91.3844 242.512 91.5311 242.642 91.4688L243.81 90.9108C243.862 90.8863 243.894 90.8339 243.892 90.777Z" fill="#FFB66B"/>
<path d="M242.286 90.9613L243.597 88.738C243.671 88.6134 243.536 88.4702 243.407 88.5363L242.491 89.0066C242.453 89.0261 242.425 89.0615 242.416 89.1033L242.021 90.8562C241.985 91.0168 242.202 91.1031 242.286 90.9613Z" fill="#FFB66B"/>
<path d="M241.683 91.0911L241.892 89.5117C241.908 89.3958 241.786 89.3107 241.683 89.3648L240.57 89.9449C240.487 89.9886 240.467 90.0996 240.53 90.1697L241.433 91.1689C241.515 91.2602 241.667 91.2131 241.683 91.0911Z" fill="#FFB66B"/>
<path d="M239.587 90.8257L239.972 90.3716C240.027 90.3072 240.125 90.3032 240.185 90.3629L241.162 91.3399C241.272 91.4501 241.153 91.6326 241.008 91.5768L239.645 91.0539C239.553 91.0182 239.523 90.9015 239.587 90.8257Z" fill="#FFB66B"/>
<path d="M239.688 91.4676L241.18 92.0003C241.297 92.0422 241.31 92.2035 241.2 92.2631L239.675 93.0923C239.577 93.1453 239.459 93.073 239.461 92.9619L239.495 91.6001C239.497 91.5018 239.595 91.4346 239.688 91.4676Z" fill="#FFB66B"/>
<path d="M243.85 92.3527V91.5108C243.85 91.4043 243.739 91.3345 243.643 91.3808L242.717 91.8285C242.605 91.8825 242.609 92.0428 242.723 92.0914L243.649 92.4856C243.745 92.5261 243.85 92.4562 243.85 92.3527Z" fill="#FFB66B"/>
<path d="M243.606 92.903L242.547 92.3445C242.437 92.2866 242.311 92.3852 242.34 92.506L242.577 93.4912C242.599 93.5824 242.7 93.6288 242.784 93.5856L243.606 93.1588C243.709 93.1051 243.709 92.9574 243.606 92.903Z" fill="#FFB66B"/>
<path d="M242.251 93.6213L242.128 92.7935C242.106 92.6433 241.896 92.6249 241.848 92.7691L241.476 93.8859C241.434 94.0123 241.571 94.1234 241.686 94.0562L242.181 93.7672C242.232 93.7374 242.259 93.6797 242.251 93.6213Z" fill="#FFB66B"/>
<path d="M240.954 94.3763L241.569 92.7597C241.617 92.6344 241.483 92.5174 241.365 92.5817L239.619 93.5349C239.573 93.5602 239.544 93.6088 239.544 93.6616V94.9418C239.544 95.0514 239.661 95.121 239.757 95.0686L240.888 94.4518C240.918 94.4353 240.942 94.4085 240.954 94.3763Z" fill="#FFB66B"/>
<path d="M243.892 90.777L243.862 89.518C243.858 89.3748 243.671 89.3235 243.595 89.4448L242.458 91.2619C242.381 91.3844 242.512 91.5311 242.642 91.4688L243.81 90.9108C243.862 90.8863 243.894 90.8339 243.892 90.777Z" stroke="#FFB66B" stroke-width="0.288728" stroke-linecap="round"/>
<path d="M242.286 90.9613L243.597 88.738C243.671 88.6134 243.536 88.4702 243.407 88.5363L242.491 89.0066C242.453 89.0261 242.425 89.0615 242.416 89.1033L242.021 90.8562C241.985 91.0168 242.202 91.1031 242.286 90.9613Z" stroke="#FFB66B" stroke-width="0.288728" stroke-linecap="round"/>
<path d="M241.683 91.0911L241.892 89.5117C241.908 89.3958 241.786 89.3107 241.683 89.3648L240.57 89.9449C240.487 89.9886 240.467 90.0996 240.53 90.1697L241.433 91.1689C241.515 91.2602 241.667 91.2131 241.683 91.0911Z" stroke="#FFB66B" stroke-width="0.288728" stroke-linecap="round"/>
<path d="M239.587 90.8257L239.972 90.3716C240.027 90.3072 240.125 90.3032 240.185 90.3629L241.162 91.3399C241.272 91.4501 241.153 91.6326 241.008 91.5768L239.645 91.0539C239.553 91.0182 239.523 90.9015 239.587 90.8257Z" stroke="#FFB66B" stroke-width="0.288728" stroke-linecap="round"/>
<path d="M239.688 91.4676L241.18 92.0003C241.297 92.0422 241.31 92.2035 241.2 92.2631L239.675 93.0923C239.577 93.1453 239.459 93.073 239.461 92.9619L239.495 91.6001C239.497 91.5018 239.595 91.4346 239.688 91.4676Z" stroke="#FFB66B" stroke-width="0.288728" stroke-linecap="round"/>
<path d="M243.85 92.3527V91.5108C243.85 91.4043 243.739 91.3345 243.643 91.3808L242.717 91.8285C242.605 91.8825 242.609 92.0428 242.723 92.0914L243.649 92.4856C243.745 92.5261 243.85 92.4562 243.85 92.3527Z" stroke="#FFB66B" stroke-width="0.288728" stroke-linecap="round"/>
<path d="M243.606 92.903L242.547 92.3445C242.437 92.2866 242.311 92.3852 242.34 92.506L242.577 93.4912C242.599 93.5824 242.7 93.6288 242.784 93.5856L243.606 93.1588C243.709 93.1051 243.709 92.9574 243.606 92.903Z" stroke="#FFB66B" stroke-width="0.288728" stroke-linecap="round"/>
<path d="M242.251 93.6213L242.128 92.7935C242.106 92.6433 241.896 92.6249 241.848 92.7691L241.476 93.8859C241.434 94.0123 241.571 94.1234 241.686 94.0562L242.181 93.7672C242.232 93.7374 242.259 93.6797 242.251 93.6213Z" stroke="#FFB66B" stroke-width="0.288728" stroke-linecap="round"/>
<path d="M240.954 94.3763L241.569 92.7597C241.617 92.6344 241.483 92.5174 241.365 92.5817L239.619 93.5349C239.573 93.5602 239.544 93.6088 239.544 93.6616V94.9418C239.544 95.0514 239.661 95.121 239.757 95.0686L240.888 94.4518C240.918 94.4353 240.942 94.4085 240.954 94.3763Z" stroke="#FFB66B" stroke-width="0.288728" stroke-linecap="round"/>
<path d="M208.11 110.015L202.702 106.902C202.406 106.732 202.044 106.722 201.739 106.878L196.41 109.592C195.865 109.87 195.837 110.638 196.361 110.955L201.217 113.891C201.516 114.072 201.887 114.086 202.198 113.927L208.086 110.929C208.454 110.742 208.468 110.221 208.11 110.015Z" fill="#FB9A36"/>
<path d="M201.676 119.698V112.928C201.676 112.902 201.661 112.878 201.637 112.867L196.183 110.312C196.01 110.231 195.812 110.357 195.812 110.548V115.919C195.812 116.284 196.009 116.62 196.327 116.799L201.575 119.757C201.62 119.782 201.676 119.75 201.676 119.698Z" fill="#E47F17"/>
<path d="M208.254 115.759V111.113C208.254 110.362 207.464 109.873 206.792 110.209L201.754 112.727C201.731 112.738 201.717 112.761 201.717 112.787V119.703C201.717 119.753 201.771 119.786 201.815 119.762L207.715 116.653C208.046 116.479 208.254 116.134 208.254 115.759Z" fill="#F18E27"/>
<path d="M202.414 113L207.489 110.502C207.579 110.458 207.684 110.523 207.684 110.623V116.193C207.684 116.244 207.655 116.291 207.609 116.313L202.534 118.834C202.444 118.879 202.339 118.814 202.339 118.714V113.121C202.339 113.069 202.368 113.022 202.414 113Z" stroke="#FFE6CC" stroke-width="0.673698" stroke-linecap="round"/>
<circle r="0.353364" transform="matrix(-1 0 0 1 205.209 114.822)" fill="#FFE6CC"/>
<path d="M207.197 113.713L207.167 112.454C207.163 112.31 206.976 112.259 206.9 112.38L205.762 114.197C205.686 114.32 205.816 114.467 205.947 114.404L207.115 113.846C207.166 113.822 207.198 113.769 207.197 113.713Z" fill="#FFB66B"/>
<path d="M205.591 113.897L206.902 111.674C206.975 111.549 206.84 111.406 206.712 111.472L205.795 111.942C205.757 111.962 205.73 111.997 205.72 112.039L205.325 113.792C205.289 113.952 205.507 114.039 205.591 113.897Z" fill="#FFB66B"/>
<path d="M204.988 114.027L205.197 112.447C205.212 112.331 205.091 112.246 204.987 112.3L203.875 112.88C203.791 112.924 203.772 113.035 203.835 113.105L204.737 114.104C204.82 114.196 204.971 114.149 204.988 114.027Z" fill="#FFB66B"/>
<path d="M202.892 113.761L203.277 113.307C203.332 113.243 203.43 113.239 203.489 113.298L204.466 114.275C204.577 114.386 204.458 114.568 204.312 114.512L202.95 113.989C202.857 113.954 202.827 113.837 202.892 113.761Z" fill="#FFB66B"/>
<path d="M202.992 114.403L204.485 114.936C204.602 114.978 204.615 115.139 204.505 115.199L202.979 116.028C202.882 116.081 202.763 116.009 202.766 115.897L202.799 114.536C202.802 114.437 202.9 114.37 202.992 114.403Z" fill="#FFB66B"/>
<path d="M207.155 115.288V114.446C207.155 114.34 207.044 114.27 206.948 114.316L206.021 114.764C205.91 114.818 205.914 114.978 206.028 115.027L206.954 115.421C207.049 115.462 207.155 115.392 207.155 115.288Z" fill="#FFB66B"/>
<path d="M206.911 115.839L205.852 115.28C205.742 115.222 205.615 115.321 205.644 115.442L205.881 116.427C205.903 116.518 206.005 116.564 206.088 116.521L206.91 116.094C207.014 116.041 207.014 115.893 206.911 115.839Z" fill="#FFB66B"/>
<path d="M205.555 116.557L205.433 115.729C205.41 115.579 205.201 115.56 205.153 115.705L204.781 116.821C204.739 116.948 204.875 117.059 204.99 116.992L205.485 116.703C205.536 116.673 205.564 116.615 205.555 116.557Z" fill="#FFB66B"/>
<path d="M204.259 117.312L204.874 115.695C204.921 115.57 204.787 115.453 204.67 115.517L202.924 116.47C202.877 116.496 202.848 116.544 202.848 116.597V117.877C202.848 117.987 202.966 118.057 203.062 118.004L204.193 117.387C204.223 117.371 204.247 117.344 204.259 117.312Z" fill="#FFB66B"/>
<path d="M207.197 113.713L207.167 112.454C207.163 112.31 206.976 112.259 206.9 112.38L205.762 114.197C205.686 114.32 205.816 114.467 205.947 114.404L207.115 113.846C207.166 113.822 207.198 113.769 207.197 113.713Z" stroke="#FFB66B" stroke-width="0.288728" stroke-linecap="round"/>
<path d="M205.591 113.897L206.902 111.674C206.975 111.549 206.84 111.406 206.712 111.472L205.795 111.942C205.757 111.962 205.73 111.997 205.72 112.039L205.325 113.792C205.289 113.952 205.507 114.039 205.591 113.897Z" stroke="#FFB66B" stroke-width="0.288728" stroke-linecap="round"/>
<path d="M204.988 114.027L205.197 112.447C205.212 112.331 205.091 112.246 204.987 112.3L203.875 112.88C203.791 112.924 203.772 113.035 203.835 113.105L204.737 114.104C204.82 114.196 204.971 114.149 204.988 114.027Z" stroke="#FFB66B" stroke-width="0.288728" stroke-linecap="round"/>
<path d="M202.892 113.761L203.277 113.307C203.332 113.243 203.43 113.239 203.489 113.298L204.466 114.275C204.577 114.386 204.458 114.568 204.312 114.512L202.95 113.989C202.857 113.954 202.827 113.837 202.892 113.761Z" stroke="#FFB66B" stroke-width="0.288728" stroke-linecap="round"/>
<path d="M202.992 114.403L204.485 114.936C204.602 114.978 204.615 115.139 204.505 115.199L202.979 116.028C202.882 116.081 202.763 116.009 202.766 115.897L202.799 114.536C202.802 114.437 202.9 114.37 202.992 114.403Z" stroke="#FFB66B" stroke-width="0.288728" stroke-linecap="round"/>
<path d="M207.155 115.288V114.446C207.155 114.34 207.044 114.27 206.948 114.316L206.021 114.764C205.91 114.818 205.914 114.978 206.028 115.027L206.954 115.421C207.049 115.462 207.155 115.392 207.155 115.288Z" stroke="#FFB66B" stroke-width="0.288728" stroke-linecap="round"/>
<path d="M206.911 115.839L205.852 115.28C205.742 115.222 205.615 115.321 205.644 115.442L205.881 116.427C205.903 116.518 206.005 116.564 206.088 116.521L206.91 116.094C207.014 116.041 207.014 115.893 206.911 115.839Z" stroke="#FFB66B" stroke-width="0.288728" stroke-linecap="round"/>
<path d="M205.555 116.557L205.433 115.729C205.41 115.579 205.201 115.56 205.153 115.705L204.781 116.821C204.739 116.948 204.875 117.059 204.99 116.992L205.485 116.703C205.536 116.673 205.564 116.615 205.555 116.557Z" stroke="#FFB66B" stroke-width="0.288728" stroke-linecap="round"/>
<path d="M204.259 117.312L204.874 115.695C204.921 115.57 204.787 115.453 204.67 115.517L202.924 116.47C202.877 116.496 202.848 116.544 202.848 116.597V117.877C202.848 117.987 202.966 118.057 203.062 118.004L204.193 117.387C204.223 117.371 204.247 117.344 204.259 117.312Z" stroke="#FFB66B" stroke-width="0.288728" stroke-linecap="round"/>
<path d="M141.988 91.978L147.395 88.8651C147.692 88.6946 148.054 88.6853 148.358 88.8404L153.687 91.555C154.233 91.8326 154.261 92.601 153.737 92.9176L148.881 95.8542C148.582 96.035 148.211 96.0486 147.9 95.89L142.011 92.8921C141.643 92.7048 141.63 92.184 141.988 91.978Z" fill="#FB9A36"/>
<path d="M148.426 101.663V94.893C148.426 94.8668 148.441 94.8431 148.465 94.832L153.919 92.277C154.091 92.1962 154.289 92.3221 154.289 92.5125V97.8836C154.289 98.2484 154.093 98.5849 153.775 98.764L148.526 101.722C148.481 101.747 148.426 101.714 148.426 101.663Z" fill="#E47F17"/>
<path d="M141.84 97.7223V93.0761C141.84 92.325 142.63 91.8363 143.302 92.1721L148.34 94.6894C148.363 94.7009 148.377 94.7242 148.377 94.7497V101.666C148.377 101.716 148.323 101.749 148.278 101.725L142.379 98.6163C142.047 98.4414 141.84 98.0973 141.84 97.7223Z" fill="#F18E27"/>
<path d="M147.687 94.9627L142.612 92.4647C142.523 92.4207 142.418 92.4858 142.418 92.5856V98.1556C142.418 98.2068 142.447 98.2535 142.493 98.2763L147.568 100.797C147.657 100.842 147.763 100.777 147.763 100.677V95.0835C147.763 95.0322 147.733 94.9853 147.687 94.9627Z" stroke="#FFE6CC" stroke-width="0.673698" stroke-linecap="round"/>
<circle cx="144.889" cy="96.785" r="0.353364" fill="#FFE6CC"/>
<path d="M142.905 95.6755L142.935 94.4164C142.938 94.2733 143.126 94.2219 143.202 94.3433L144.339 96.1604C144.416 96.2828 144.285 96.4295 144.155 96.3672L142.987 95.8092C142.935 95.7847 142.903 95.7323 142.905 95.6755Z" fill="#FFB66B"/>
<path d="M144.511 95.8597L143.2 93.6365C143.126 93.5119 143.261 93.3687 143.39 93.4347L144.306 93.905C144.344 93.9246 144.372 93.96 144.381 94.0017L144.776 95.7546C144.812 95.9152 144.595 96.0015 144.511 95.8597Z" fill="#FFB66B"/>
<path d="M145.114 95.9896L144.904 94.4102C144.889 94.2943 145.011 94.2091 145.114 94.2632L146.226 94.8434C146.31 94.8871 146.33 94.9981 146.267 95.0681L145.364 96.0674C145.282 96.1587 145.13 96.1116 145.114 95.9896Z" fill="#FFB66B"/>
<path d="M147.21 95.7241L146.824 95.27C146.77 95.2057 146.672 95.2017 146.612 95.2613L145.635 96.2384C145.525 96.3486 145.644 96.5311 145.789 96.4752L147.151 95.9523C147.244 95.9167 147.274 95.8 147.21 95.7241Z" fill="#FFB66B"/>
<path d="M147.109 96.3661L145.617 96.8987C145.499 96.9407 145.487 97.1019 145.597 97.1615L147.122 97.9907C147.22 98.0438 147.338 97.9714 147.335 97.8604L147.302 96.4985C147.3 96.4002 147.202 96.333 147.109 96.3661Z" fill="#FFB66B"/>
<path d="M142.947 97.2512V96.4092C142.947 96.3027 143.058 96.2329 143.154 96.2792L144.08 96.727C144.192 96.7809 144.188 96.9412 144.074 96.9898L143.147 97.384C143.052 97.4245 142.947 97.3547 142.947 97.2512Z" fill="#FFB66B"/>
<path d="M143.191 97.8014L144.25 97.243C144.359 97.185 144.486 97.2837 144.457 97.4044L144.22 98.3897C144.198 98.4809 144.096 98.5272 144.013 98.484L143.191 98.0573C143.088 98.0036 143.087 97.8558 143.191 97.8014Z" fill="#FFB66B"/>
<path d="M144.546 98.5198L144.669 97.692C144.691 97.5417 144.901 97.5234 144.949 97.6675L145.321 98.7844C145.363 98.9107 145.226 99.0218 145.111 98.9547L144.616 98.6656C144.565 98.6359 144.538 98.5781 144.546 98.5198Z" fill="#FFB66B"/>
<path d="M145.843 99.2748L145.228 97.6582C145.18 97.5328 145.314 97.4158 145.432 97.4801L147.178 98.4333C147.224 98.4586 147.253 98.5072 147.253 98.56V99.8403C147.253 99.9499 147.136 100.019 147.04 99.967L145.909 99.3502C145.878 99.3337 145.855 99.307 145.843 99.2748Z" fill="#FFB66B"/>
<path d="M142.905 95.6755L142.935 94.4164C142.938 94.2733 143.126 94.2219 143.202 94.3433L144.339 96.1604C144.416 96.2828 144.285 96.4295 144.155 96.3672L142.987 95.8092C142.935 95.7847 142.903 95.7323 142.905 95.6755Z" stroke="#FFB66B" stroke-width="0.288728" stroke-linecap="round"/>
<path d="M144.511 95.8597L143.2 93.6365C143.126 93.5119 143.261 93.3687 143.39 93.4347L144.306 93.905C144.344 93.9246 144.372 93.96 144.381 94.0017L144.776 95.7546C144.812 95.9152 144.595 96.0015 144.511 95.8597Z" stroke="#FFB66B" stroke-width="0.288728" stroke-linecap="round"/>
<path d="M145.114 95.9896L144.904 94.4102C144.889 94.2943 145.011 94.2091 145.114 94.2632L146.226 94.8434C146.31 94.8871 146.33 94.9981 146.267 95.0681L145.364 96.0674C145.282 96.1587 145.13 96.1116 145.114 95.9896Z" stroke="#FFB66B" stroke-width="0.288728" stroke-linecap="round"/>
<path d="M147.21 95.7241L146.824 95.27C146.77 95.2057 146.672 95.2017 146.612 95.2613L145.635 96.2384C145.525 96.3486 145.644 96.5311 145.789 96.4752L147.151 95.9523C147.244 95.9167 147.274 95.8 147.21 95.7241Z" stroke="#FFB66B" stroke-width="0.288728" stroke-linecap="round"/>
<path d="M147.109 96.3661L145.617 96.8987C145.499 96.9407 145.487 97.1019 145.597 97.1615L147.122 97.9907C147.22 98.0438 147.338 97.9714 147.335 97.8604L147.302 96.4985C147.3 96.4002 147.202 96.333 147.109 96.3661Z" stroke="#FFB66B" stroke-width="0.288728" stroke-linecap="round"/>
<path d="M142.947 97.2512V96.4092C142.947 96.3027 143.058 96.2329 143.154 96.2792L144.08 96.727C144.192 96.7809 144.188 96.9412 144.074 96.9898L143.147 97.384C143.052 97.4245 142.947 97.3547 142.947 97.2512Z" stroke="#FFB66B" stroke-width="0.288728" stroke-linecap="round"/>
<path d="M143.191 97.8014L144.25 97.243C144.359 97.185 144.486 97.2837 144.457 97.4044L144.22 98.3897C144.198 98.4809 144.096 98.5272 144.013 98.484L143.191 98.0573C143.088 98.0036 143.087 97.8558 143.191 97.8014Z" stroke="#FFB66B" stroke-width="0.288728" stroke-linecap="round"/>
<path d="M144.546 98.5198L144.669 97.692C144.691 97.5417 144.901 97.5234 144.949 97.6675L145.321 98.7844C145.363 98.9107 145.226 99.0218 145.111 98.9547L144.616 98.6656C144.565 98.6359 144.538 98.5781 144.546 98.5198Z" stroke="#FFB66B" stroke-width="0.288728" stroke-linecap="round"/>
<path d="M145.843 99.2748L145.228 97.6582C145.18 97.5328 145.314 97.4158 145.432 97.4801L147.178 98.4333C147.224 98.4586 147.253 98.5072 147.253 98.56V99.8403C147.253 99.9499 147.136 100.019 147.04 99.967L145.909 99.3502C145.878 99.3337 145.855 99.307 145.843 99.2748Z" stroke="#FFB66B" stroke-width="0.288728" stroke-linecap="round"/>
<ellipse cx="238.722" cy="195.6" rx="2.99243" ry="1.87528" transform="rotate(24.9012 238.722 195.6)" fill="black" fill-opacity="0.25"/>
<ellipse cx="244.771" cy="199.936" rx="2.99243" ry="1.87528" transform="rotate(23.1643 244.771 199.936)" fill="black" fill-opacity="0.25"/>
<rect width="3.12115" height="11.7763" rx="0.704576" transform="matrix(0.866025 -0.5 2.26075e-08 1 242.918 188.914)" fill="#9CA965"/>
<rect width="2.70527" height="11.7108" rx="0.704576" transform="matrix(0.866025 0.5 -2.20914e-08 1 240.699 187.635)" fill="#A4CB00"/>
<rect width="2.93922" height="2.93922" rx="0.704576" transform="matrix(0.866026 0.5 -0.866026 0.5 243.203 186.342)" fill="#95A457"/>
<rect width="3.12115" height="11.7763" rx="0.704576" transform="matrix(0.866025 -0.5 2.26075e-08 1 236.926 184.688)" fill="#9CA965"/>
<rect width="2.70527" height="11.7108" rx="0.704576" transform="matrix(0.866025 0.5 -2.20914e-08 1 234.707 183.408)" fill="#A4CB00"/>
<rect width="2.93922" height="2.93922" rx="0.704576" transform="matrix(0.866026 0.5 -0.866026 0.5 237.211 182.115)" fill="#95A457"/>
<rect width="3.12115" height="11.7763" rx="0.704576" transform="matrix(0.866025 -0.5 2.26075e-08 1 233.758 172.357)" fill="#9CA965"/>
<rect width="2.70527" height="11.7108" rx="0.704576" transform="matrix(0.866025 0.5 -2.20914e-08 1 231.539 171.078)" fill="#A4CB00"/>
<rect width="2.93922" height="2.93922" rx="0.704576" transform="matrix(0.866026 0.5 -0.866026 0.5 234.043 169.785)" fill="#95A457"/>
<rect width="5.48135" height="12.2782" rx="1.05686" transform="matrix(0.866025 -0.5 2.20305e-08 1 242.961 179.348)" fill="#CD8133"/>
<rect width="5.48135" height="12.2782" rx="1.05686" transform="matrix(0.866025 -0.5 0.866025 0.5 232.566 173.934)" fill="#BC6F20"/>
<rect width="10.5022" height="12.2782" rx="1.05686" transform="matrix(0.866025 0.5 -2.20305e-08 1 234.082 173.951)" fill="#F89B3C"/>
<path d="M230.823 163.311L238.471 158.909C239.049 158.576 239.756 158.558 240.351 158.86L248.582 163.054C249.961 163.756 250.032 165.7 248.708 166.5L241.262 171.003C240.678 171.356 239.954 171.382 239.346 171.073L230.913 166.779C229.517 166.068 229.466 164.092 230.823 163.311Z" fill="#FB9A36"/>
<path d="M240.207 181.169V169.215C240.207 169.168 240.231 169.126 240.271 169.102L247.71 164.617C249.025 163.824 250.702 164.771 250.702 166.306V173.588C250.702 174.259 250.36 174.884 249.795 175.247L240.41 181.28C240.322 181.336 240.207 181.273 240.207 181.169Z" fill="#E47F17"/>
<path d="M228.863 174.201V166.545C228.863 165.079 230.407 164.125 231.719 164.78L240.211 169.024C240.256 169.046 240.284 169.092 240.284 169.142V181.193C240.284 181.292 240.179 181.355 240.091 181.309L229.917 175.947C229.269 175.605 228.863 174.933 228.863 174.201Z" fill="#F18E27"/>
<path d="M239.742 164.01L240.164 161.08C240.317 160.021 240.157 158.941 239.705 157.972V157.972C239.275 157.051 238.599 156.267 237.751 155.708L237.234 155.367" stroke="#43731D" stroke-width="0.526189" stroke-linecap="round"/>
<path d="M246.224 152.626L248.982 149.658C248.993 149.647 248.987 149.629 248.973 149.625L248.231 149.435C247.109 149.146 245.954 149 244.795 149H244.589C243.873 149 243.159 149.066 242.455 149.198L241.796 149.322C241.439 149.389 241.091 149.493 240.756 149.633L240.477 149.749C239.357 150.215 238.474 151.116 238.03 152.245C237.93 152.499 237.853 152.761 237.801 153.029L237.358 155.302C237.355 155.32 237.369 155.337 237.388 155.337H240.203H240.413C242.655 155.337 244.783 154.345 246.224 152.626Z" fill="#6AB92B" stroke="#6AB92B" stroke-width="0.480138" stroke-linecap="round"/>
<path d="M226.922 158.655L225.969 158.956C225.962 158.958 225.955 158.952 225.957 158.945L226.151 158.023C226.514 156.3 227.523 154.782 228.969 153.779C230.43 152.98 232.105 152.659 233.758 152.862L233.917 152.882C235.004 153.156 235.98 153.759 236.712 154.608L237.388 155.392C237.39 155.394 237.39 155.396 237.389 155.398C236.72 156.622 235.635 157.567 234.331 158.061L233.363 158.428L233.009 158.51C232.085 158.725 231.124 158.728 230.199 158.519C229.114 158.273 227.983 158.32 226.922 158.655Z" fill="#6AB92B"/>
<path d="M239.058 169.498L230.246 165.161C230.072 165.075 229.867 165.202 229.867 165.397V175.067C229.867 175.167 229.924 175.258 230.013 175.302L238.824 179.679C238.999 179.766 239.204 179.639 239.204 179.444V169.734C239.204 169.634 239.148 169.542 239.058 169.498Z" stroke="#FFE6CC" stroke-width="1.31547" stroke-linecap="round"/>
<circle cx="234.188" cy="172.69" r="0.617342" fill="#FFE6CC"/>
<path d="M230.719 170.733L230.769 168.651C230.776 168.372 231.142 168.271 231.29 168.508L233.171 171.513C233.321 171.752 233.065 172.038 232.811 171.916L230.88 170.994C230.779 170.946 230.717 170.844 230.719 170.733Z" fill="#FFB66B"/>
<path d="M233.429 170.911L231.287 167.278C231.143 167.035 231.407 166.755 231.658 166.884L233.155 167.653C233.229 167.691 233.283 167.76 233.301 167.841L233.947 170.706C234.017 171.019 233.592 171.188 233.429 170.911Z" fill="#FFB66B"/>
<path d="M234.57 171.237L234.22 168.598C234.19 168.372 234.428 168.205 234.63 168.311L236.488 169.28C236.652 169.366 236.691 169.582 236.567 169.719L235.059 171.389C234.898 171.567 234.602 171.475 234.57 171.237Z" fill="#FFB66B"/>
<path d="M238.213 170.805L237.588 170.068C237.481 169.942 237.29 169.935 237.174 170.051L235.588 171.637C235.373 171.852 235.604 172.208 235.888 172.099L238.099 171.251C238.28 171.181 238.339 170.953 238.213 170.805Z" fill="#FFB66B"/>
<path d="M238.026 171.972L235.52 172.867C235.29 172.949 235.266 173.263 235.48 173.38L238.042 174.772C238.232 174.876 238.464 174.735 238.458 174.518L238.403 172.231C238.398 172.039 238.207 171.908 238.026 171.972Z" fill="#FFB66B"/>
<path d="M230.792 173.46V172.081C230.792 171.873 231.009 171.737 231.197 171.827L232.714 172.561C232.932 172.666 232.924 172.979 232.701 173.074L231.184 173.719C230.998 173.798 230.792 173.662 230.792 173.46Z" fill="#FFB66B"/>
<path d="M231.268 174.44L233.01 173.521C233.225 173.408 233.473 173.601 233.416 173.836L233.026 175.457C232.983 175.635 232.785 175.725 232.622 175.641L231.27 174.939C231.068 174.834 231.067 174.546 231.268 174.44Z" fill="#FFB66B"/>
<path d="M233.59 175.701L233.783 174.398C233.826 174.104 234.235 174.069 234.329 174.35L234.915 176.109C234.998 176.355 234.73 176.572 234.506 176.441L233.726 175.986C233.627 175.928 233.573 175.815 233.59 175.701Z" fill="#FFB66B"/>
<path d="M235.848 177.03L234.806 174.291C234.713 174.046 234.975 173.818 235.205 173.943L238.169 175.562C238.26 175.611 238.316 175.706 238.316 175.809V177.978C238.316 178.192 238.087 178.328 237.899 178.226L235.977 177.177C235.918 177.145 235.872 177.093 235.848 177.03Z" fill="#FFB66B"/>
<path d="M230.719 170.733L230.769 168.651C230.776 168.372 231.142 168.271 231.29 168.508L233.171 171.513C233.321 171.752 233.065 172.038 232.811 171.916L230.88 170.994C230.779 170.946 230.717 170.844 230.719 170.733Z" stroke="#FFB66B" stroke-width="0.563774" stroke-linecap="round"/>
<path d="M233.429 170.911L231.287 167.278C231.143 167.035 231.407 166.755 231.658 166.884L233.155 167.653C233.229 167.691 233.283 167.76 233.301 167.841L233.947 170.706C234.017 171.019 233.592 171.188 233.429 170.911Z" stroke="#FFB66B" stroke-width="0.563774" stroke-linecap="round"/>
<path d="M234.57 171.237L234.22 168.598C234.19 168.372 234.428 168.205 234.63 168.311L236.488 169.28C236.652 169.366 236.691 169.582 236.567 169.719L235.059 171.389C234.898 171.567 234.602 171.475 234.57 171.237Z" stroke="#FFB66B" stroke-width="0.563774" stroke-linecap="round"/>
<path d="M238.213 170.805L237.588 170.068C237.481 169.942 237.29 169.935 237.174 170.051L235.588 171.637C235.373 171.852 235.604 172.208 235.888 172.099L238.099 171.251C238.28 171.181 238.339 170.953 238.213 170.805Z" stroke="#FFB66B" stroke-width="0.563774" stroke-linecap="round"/>
<path d="M238.026 171.972L235.52 172.867C235.29 172.949 235.266 173.263 235.48 173.38L238.042 174.772C238.232 174.876 238.464 174.735 238.458 174.518L238.403 172.231C238.398 172.039 238.207 171.908 238.026 171.972Z" stroke="#FFB66B" stroke-width="0.563774" stroke-linecap="round"/>
<path d="M230.792 173.46V172.081C230.792 171.873 231.009 171.737 231.197 171.827L232.714 172.561C232.932 172.666 232.924 172.979 232.701 173.074L231.184 173.719C230.998 173.798 230.792 173.662 230.792 173.46Z" stroke="#FFB66B" stroke-width="0.563774" stroke-linecap="round"/>
<path d="M231.268 174.44L233.01 173.521C233.225 173.408 233.473 173.601 233.416 173.836L233.026 175.457C232.983 175.635 232.785 175.725 232.622 175.641L231.27 174.939C231.068 174.834 231.067 174.546 231.268 174.44Z" stroke="#FFB66B" stroke-width="0.563774" stroke-linecap="round"/>
<path d="M233.59 175.701L233.783 174.398C233.826 174.104 234.235 174.069 234.329 174.35L234.915 176.109C234.998 176.355 234.73 176.572 234.506 176.441L233.726 175.986C233.627 175.928 233.573 175.815 233.59 175.701Z" stroke="#FFB66B" stroke-width="0.563774" stroke-linecap="round"/>
<path d="M235.848 177.03L234.806 174.291C234.713 174.046 234.975 173.818 235.205 173.943L238.169 175.562C238.26 175.611 238.316 175.706 238.316 175.809V177.978C238.316 178.192 238.087 178.328 237.899 178.226L235.977 177.177C235.918 177.145 235.872 177.093 235.848 177.03Z" stroke="#FFB66B" stroke-width="0.563774" stroke-linecap="round"/>
<rect width="3.12115" height="11.7763" rx="0.704576" transform="matrix(0.866025 -0.5 2.26075e-08 1 246.762 180.188)" fill="#9CA965"/>
<rect width="2.70527" height="11.7108" rx="0.704576" transform="matrix(0.866025 0.5 -2.20914e-08 1 244.543 178.908)" fill="#A4CB00"/>
<rect width="2.93922" height="2.93922" rx="0.704576" transform="matrix(0.866026 0.5 -0.866026 0.5 247.047 177.615)" fill="#95A457"/>
<ellipse cx="110.432" cy="201.221" rx="4.24544" ry="2.13103" transform="rotate(17.5644 110.432 201.221)" fill="black" fill-opacity="0.28"/>
<ellipse cx="108.84" cy="198.025" rx="1.52955" ry="2.17098" transform="rotate(25.0769 108.84 198.025)" fill="#F2E6E5"/>
<ellipse cx="107.352" cy="201.904" rx="1.52955" ry="2.17098" transform="rotate(25.0769 107.352 201.904)" fill="#F2E6E5"/>
<ellipse cx="110.236" cy="200.857" rx="1.52955" ry="2.17098" transform="rotate(-64.9231 110.236 200.857)" fill="#F2E6E5"/>
<ellipse cx="106.197" cy="199.13" rx="1.52955" ry="2.17098" transform="rotate(-64.9231 106.197 199.13)" fill="#F2E6E5"/>
<ellipse rx="1.31469" ry="1.35503" transform="matrix(0.967412 -0.253206 -0.253206 -0.967412 108.233 199.919)" fill="#F9C4C1"/>
<ellipse cx="167.729" cy="172.561" rx="4.24544" ry="2.13103" transform="rotate(17.5644 167.729 172.561)" fill="black" fill-opacity="0.28"/>
<ellipse cx="166.137" cy="169.365" rx="1.52955" ry="2.17098" transform="rotate(25.0769 166.137 169.365)" fill="#F2E6E5"/>
<ellipse cx="164.649" cy="173.244" rx="1.52955" ry="2.17098" transform="rotate(25.0769 164.649 173.244)" fill="#F2E6E5"/>
<ellipse cx="167.533" cy="172.197" rx="1.52955" ry="2.17098" transform="rotate(-64.9231 167.533 172.197)" fill="#F2E6E5"/>
<ellipse cx="163.494" cy="170.47" rx="1.52955" ry="2.17098" transform="rotate(-64.9231 163.494 170.47)" fill="#F2E6E5"/>
<ellipse rx="1.31469" ry="1.35503" transform="matrix(0.967412 -0.253206 -0.253206 -0.967412 165.53 171.259)" fill="#F9C4C1"/>
<ellipse cx="215.549" cy="172.905" rx="4.24544" ry="2.13103" transform="rotate(17.5644 215.549 172.905)" fill="black" fill-opacity="0.28"/>
<ellipse cx="213.961" cy="169.708" rx="1.52955" ry="2.17098" transform="rotate(25.0769 213.961 169.708)" fill="#F2E6E5"/>
<ellipse cx="212.473" cy="173.587" rx="1.52955" ry="2.17098" transform="rotate(25.0769 212.473 173.587)" fill="#F2E6E5"/>
<ellipse cx="215.357" cy="172.541" rx="1.52955" ry="2.17098" transform="rotate(-64.9231 215.357 172.541)" fill="#F2E6E5"/>
<ellipse cx="211.318" cy="170.814" rx="1.52955" ry="2.17098" transform="rotate(-64.9231 211.318 170.814)" fill="#F2E6E5"/>
<ellipse rx="1.31469" ry="1.35503" transform="matrix(0.967412 -0.253206 -0.253206 -0.967412 213.355 171.602)" fill="#F9C4C1"/>
<ellipse cx="175.147" cy="237.961" rx="4.24544" ry="2.13103" transform="rotate(17.5644 175.147 237.961)" fill="black" fill-opacity="0.28"/>
<ellipse cx="173.555" cy="234.765" rx="1.52955" ry="2.17098" transform="rotate(25.0769 173.555 234.765)" fill="#F2E6E5"/>
<ellipse cx="172.067" cy="238.644" rx="1.52955" ry="2.17098" transform="rotate(25.0769 172.067 238.644)" fill="#F2E6E5"/>
<ellipse cx="174.951" cy="237.597" rx="1.52955" ry="2.17098" transform="rotate(-64.9231 174.951 237.597)" fill="#F2E6E5"/>
<ellipse cx="170.911" cy="235.871" rx="1.52955" ry="2.17098" transform="rotate(-64.9231 170.911 235.871)" fill="#F2E6E5"/>
<ellipse rx="1.31469" ry="1.35503" transform="matrix(0.967412 -0.253206 -0.253206 -0.967412 172.948 236.659)" fill="#F9C4C1"/>
<ellipse cx="275.588" cy="194.705" rx="4.24544" ry="2.13103" transform="rotate(17.5644 275.588 194.705)" fill="black" fill-opacity="0.28"/>
<ellipse cx="273.996" cy="191.509" rx="1.52955" ry="2.17098" transform="rotate(25.0769 273.996 191.509)" fill="#F2E6E5"/>
<ellipse cx="272.508" cy="195.388" rx="1.52955" ry="2.17098" transform="rotate(25.0769 272.508 195.388)" fill="#F2E6E5"/>
<ellipse cx="275.392" cy="194.341" rx="1.52955" ry="2.17098" transform="rotate(-64.9231 275.392 194.341)" fill="#F2E6E5"/>
<ellipse cx="271.353" cy="192.615" rx="1.52955" ry="2.17098" transform="rotate(-64.9231 271.353 192.615)" fill="#F2E6E5"/>
<ellipse rx="1.31469" ry="1.35503" transform="matrix(0.967412 -0.253206 -0.253206 -0.967412 273.39 193.403)" fill="#F9C4C1"/>
<defs>
<radialGradient id="paint0_radial_127_108" cx="0" cy="0" r="1" gradientUnits="userSpaceOnUse" gradientTransform="translate(188.5 188.5) rotate(-90) scale(188.5)">
<stop stop-color="#FFD12E" stop-opacity="0.3"/>
<stop offset="1" stop-color="#C4C4C4" stop-opacity="0"/>
</radialGradient>
<linearGradient id="paint1_linear_127_108" x1="80.2912" y1="75.0782" x2="-40.6176" y2="25.0859" gradientUnits="userSpaceOnUse">
<stop stop-color="#6AB92B"/>
<stop offset="1" stop-color="#6AB92B" stop-opacity="0"/>
</linearGradient>
</defs>
</svg>
