<svg width="377" height="377" viewBox="0 0 377 377" fill="none" xmlns="http://www.w3.org/2000/svg">
<path d="M377 188.5C377 84.3943 292.606 -1.32918e-05 188.5 -1.32918e-05C84.3943 -1.32918e-05 0 84.3943 0 188.5C0 292.606 84.3943 377 188.5 377C292.606 377 377 292.606 377 188.5Z" fill="url(#paint0_radial_127_106)"/>
<rect width="127.229" height="127.229" transform="matrix(0.866025 0.5 -0.866025 0.5 178.777 118.307)" fill="url(#paint1_linear_127_106)"/>
<path d="M69.1367 181.969L178.763 245.261L178.763 255.464L69.1367 192.044L69.1367 181.969Z" fill="#6BBA2C"/>
<path d="M178.766 255.562L289.012 191.023L289.012 181.873L178.766 245.487L178.766 255.562Z" fill="#A15C2C"/>
<path d="M230.719 160.757C222.826 174.169 233.121 169.1 219.635 166.796C219.635 166.796 237.271 185.13 246.683 178.191C256.095 171.251 230.719 160.757 230.719 160.757Z" fill="black" fill-opacity="0.26"/>
<path d="M210.827 150.04C203.09 162.677 212.975 158.022 200.175 155.605C200.175 155.605 216.659 173.352 225.735 166.902C234.811 160.452 210.827 150.04 210.827 150.04Z" fill="black" fill-opacity="0.26"/>
<rect width="9.55426" height="31.8548" rx="4.37863" transform="matrix(0.85264 -0.522499 0.026177 0.999657 225.176 140.783)" fill="#9CA965"/>
<rect width="9.55426" height="31.8548" rx="4.37863" transform="matrix(0.866025 -0.5 3.60519e-08 1 197.191 100.709)" fill="#9CA965"/>
<rect width="8.28119" height="31.1537" rx="4.1406" transform="matrix(0.866025 0.5 -1.89406e-08 1 190.395 96.791)" fill="#A4CB00"/>
<rect width="8.99732" height="8.99732" rx="1.75145" transform="matrix(0.991867 0.127281 -0.606162 0.795341 195.762 97.0645)" fill="#B5C962"/>
<rect width="8.28119" height="31.1537" rx="4.1406" transform="matrix(0.878817 0.477159 0.0261769 0.999657 218.273 136.855)" fill="#A4CB00"/>
<rect width="16.2672" height="36.4385" rx="4.37863" transform="matrix(0.866025 -0.5 2.20305e-08 1 221.348 113.117)" fill="#9CA965"/>
<rect width="9.55426" height="31.8548" rx="4.37863" transform="matrix(0.87462 -0.48481 -0.0174522 0.999848 207.109 128.674)" fill="#9CA965"/>
<rect width="8.28119" height="31.1537" rx="4.1406" transform="matrix(0.857167 0.515038 -0.0174525 0.999848 200.383 124.768)" fill="#A4CB00"/>
<rect width="16.2672" height="36.4385" rx="4.37863" transform="matrix(0.866025 -0.5 0.866025 0.5 190.5 97.0508)" fill="#B5C962"/>
<rect width="31.1677" height="36.4385" rx="4.37863" transform="matrix(0.866025 0.5 -2.20305e-08 1 195 97.0996)" fill="#A8C043"/>
<path d="M197.235 79.7429L211.275 71.6605C212.712 70.833 214.471 70.788 215.949 71.5408L231.181 79.3C234.609 81.0459 234.785 85.8776 231.493 87.868L217.823 96.1351C216.371 97.0126 214.57 97.0784 213.059 96.309L197.456 88.365C193.986 86.598 193.86 81.6858 197.235 79.7429Z" fill="#FB9A36"/>
<path d="M215.254 117.237V92.7182C215.254 92.6036 215.314 92.4974 215.412 92.4382L229.459 83.9689C232.728 81.9978 236.896 84.3521 236.896 88.1695V101.248C236.896 102.918 236.048 104.472 234.643 105.375L215.758 117.512C215.54 117.652 215.254 117.496 215.254 117.237Z" fill="#E47F17"/>
<path d="M191.859 102.465V88.534C191.859 84.8882 195.696 82.5166 198.957 84.1463L215.231 92.2783C215.342 92.3336 215.412 92.4469 215.412 92.5708V117.296C215.412 117.542 215.15 117.7 214.932 117.585L194.478 106.805C192.867 105.956 191.859 104.286 191.859 102.465Z" fill="#F18E27"/>
<path d="M214.301 81.9522L215.171 75.9092C215.486 73.726 215.157 71.4985 214.224 69.4996V69.4996C213.338 67.6008 211.943 65.9847 210.193 64.831L209.129 64.1289" stroke="#43731D" stroke-width="1.30801" stroke-linecap="round"/>
<path d="M227.66 58.4783L233.349 52.3573C233.37 52.3345 233.359 52.2975 233.329 52.2898L231.799 51.8965C229.484 51.3012 227.104 51 224.713 51H224.288C222.812 51 221.339 51.1369 219.888 51.4089L218.529 51.6637C217.793 51.8017 217.074 52.0164 216.383 52.3044L215.808 52.544C213.498 53.5062 211.678 55.3635 210.762 57.6915C210.556 58.2149 210.398 58.756 210.291 59.3081L209.378 63.9956C209.37 64.0335 209.399 64.0688 209.438 64.0688H215.244H215.676C220.301 64.0688 224.688 62.022 227.66 58.4783Z" fill="#6AB92B" stroke="#6AB92B" stroke-width="1.19354" stroke-linecap="round"/>
<path d="M187.861 70.9126L185.895 71.533C185.881 71.5374 185.867 71.5251 185.87 71.5108L186.272 69.6085C187.02 66.0564 189.1 62.9254 192.083 60.8572C195.095 59.2081 198.55 58.5464 201.958 58.9655L202.286 59.0059C204.528 59.5718 206.541 60.8148 208.05 62.5655L209.445 64.1823C209.448 64.1861 209.449 64.1916 209.446 64.196C208.067 66.7202 205.83 68.6678 203.14 69.6871L201.144 70.4436L200.413 70.6135C198.508 71.0566 196.527 71.0626 194.619 70.631C192.381 70.1247 190.049 70.2219 187.861 70.9126Z" fill="#6AB92B"/>
<path d="M212.816 93.2389L194.869 84.4054C194.434 84.1915 193.926 84.5078 193.926 84.9922V104.684C193.926 104.933 194.066 105.16 194.289 105.27L212.236 114.185C212.671 114.401 213.181 114.085 213.181 113.6V93.8257C213.181 93.5765 213.04 93.349 212.816 93.2389Z" stroke="#FFE6CC" stroke-width="3.27004" stroke-linecap="round"/>
<circle cx="202.839" cy="99.8551" r="1.27309" fill="#FFE6CC"/>
<path d="M150.773 181.225L197.791 154.071L188.315 149.697L142.754 176.669L150.773 181.225Z" stroke="black" stroke-width="0.364486"/>
<path d="M109.402 190.337V165.552L178.837 127.281V150.973L109.402 190.337Z" fill="#522413"/>
<path d="M109.582 189.79V166.463L160.428 193.799V219.313L109.582 189.79Z" fill="#863F20"/>
<path d="M178.652 150.973V127.281L229.134 154.982V179.585L178.652 150.973Z" fill="#A74E2B"/>
<path d="M160.066 219.315V193.801L229.319 155.348V178.675L160.066 219.315Z" fill="#522413"/>
<path d="M183.575 129.833L178.472 127.281L109.402 165.552L114.505 168.286L183.575 129.833Z" fill="#EF8439"/>
<path d="M229.134 155.346L224.031 152.795L154.961 191.066L160.064 193.8L229.134 155.346Z" fill="#EF8439"/>
<path d="M108.671 165.916L114.868 162.818L164.984 190.884L160.064 193.8L108.671 165.916Z" fill="#EF8439"/>
<path d="M173.916 129.833L179.019 127.281L229.5 155.164L224.397 157.534L173.916 129.833Z" fill="#EF8439"/>
<path d="M178.289 143.137L129.266 170.838L159.882 188.333L209.088 160.997L178.289 143.137Z" fill="#453535"/>
<path d="M190.683 147.874C188.132 147.51 178.473 143.318 178.473 143.318L208.725 161.178C208.725 161.178 212.188 159.356 212.917 158.991C213.646 158.627 196.697 153.402 195.786 152.066C194.875 150.73 193.234 148.239 190.683 147.874Z" fill="#453535"/>
<path d="M125.258 168.65L129.449 171.019L178.473 143.136C178.473 143.136 176.286 142.407 173.37 144.047C170.454 145.687 150.59 157.715 147.674 157.533C144.758 157.351 140.202 165.734 137.65 165.552C135.099 165.37 125.258 168.65 125.258 168.65Z" fill="#453535"/>
<path d="M195.784 152.066C194.178 149.304 195.111 150.233 191.593 148.057L139.289 176.487L147.126 181.043L195.784 152.066Z" fill="#383030"/>
<path d="M228.771 178.309L160.43 218.584L180.294 227.332L246.448 186.327L228.771 178.309Z" fill="black" fill-opacity="0.28"/>
<path d="M205.821 131.194C205.942 133.078 207.246 134.119 208.306 134.051C208.306 134.051 208.306 134.051 208.306 134.051C208.31 134.05 208.384 134.041 208.534 133.956C208.688 133.868 208.88 133.726 209.1 133.517C209.543 133.098 210.017 132.492 210.451 131.787C210.883 131.085 211.25 130.326 211.497 129.625C211.752 128.9 211.844 128.337 211.822 127.993C211.805 127.725 211.723 127.635 211.655 127.577C211.543 127.483 211.317 127.37 210.899 127.296C210.13 127.16 209.189 127.223 208.242 127.287C208.119 127.295 207.997 127.303 207.875 127.311C207.486 127.336 206.952 127.649 206.476 128.463C206.016 129.249 205.762 130.275 205.821 131.194Z" stroke="#C4C4C4" stroke-width="2.53349"/>
<path d="M208.59 123.775L195.066 131.51L196.004 146.17L207.41 139.277C208.695 138.501 209.441 137.073 209.345 135.575L208.59 123.775Z" fill="#DEDDDD"/>
<path d="M208.526 123.849L195.421 131.557L186.269 127.657L196.567 121.472C198.919 120.059 201.852 120.029 204.233 121.392L208.526 123.849Z" fill="#C4C4C4"/>
<path d="M186.333 127.624L187.02 138.371C187.168 140.686 188.605 142.721 190.737 143.636L196.562 146.135L195.314 131.483L186.333 127.624Z" fill="#A5A4A4"/>
<path d="M191.132 135.742C191.195 135.114 190.736 134.569 190.107 134.525L182.374 133.977L182.145 136.25L189.879 136.798C190.508 136.842 191.069 136.37 191.132 135.742Z" fill="#B5B4B4"/>
<ellipse rx="2.24956" ry="2.60475" transform="matrix(-0.997959 0.0638621 0.0638621 0.997959 184.3 135.399)" fill="#C4C4C4"/>
<path d="M199.964 121.186L188.375 127.428L195.192 130.371L206.052 123.758L199.964 121.186Z" fill="#6BC3EA"/>
<circle r="0.351874" transform="matrix(-0.997959 0.0638621 0.0638621 0.997959 184.238 135.471)" fill="#A5A4A4"/>
<circle r="0.351874" transform="matrix(-0.997959 0.0638621 0.0638621 0.997959 184.238 135.471)" fill="#A5A4A4"/>
<circle r="0.351874" transform="matrix(-0.997959 0.0638621 0.0638621 0.997959 184.238 135.471)" fill="#A5A4A4"/>
<circle r="0.351874" transform="matrix(-0.997959 0.0638621 0.0638621 0.997959 184.238 135.471)" fill="#A5A4A4"/>
<circle r="0.351874" transform="matrix(-0.997959 0.0638621 0.0638621 0.997959 183.14 134.837)" fill="#A5A4A4"/>
<circle r="0.351874" transform="matrix(-0.997959 0.0638621 0.0638621 0.997959 183.14 134.837)" fill="#A5A4A4"/>
<circle r="0.351874" transform="matrix(-0.997959 0.0638621 0.0638621 0.997959 183.14 134.837)" fill="#A5A4A4"/>
<circle r="0.351874" transform="matrix(-0.997959 0.0638621 0.0638621 0.997959 183.14 134.837)" fill="#A5A4A4"/>
<circle r="0.351874" transform="matrix(-0.997959 0.0638621 0.0638621 0.997959 184.171 134.419)" fill="#A5A4A4"/>
<circle r="0.351874" transform="matrix(-0.997959 0.0638621 0.0638621 0.997959 184.171 134.419)" fill="#A5A4A4"/>
<circle r="0.351874" transform="matrix(-0.997959 0.0638621 0.0638621 0.997959 184.171 134.419)" fill="#A5A4A4"/>
<circle r="0.351874" transform="matrix(-0.997959 0.0638621 0.0638621 0.997959 184.171 134.419)" fill="#A5A4A4"/>
<circle r="0.351874" transform="matrix(-0.997959 0.0638621 0.0638621 0.997959 184.304 136.524)" fill="#A5A4A4"/>
<circle r="0.351874" transform="matrix(-0.997959 0.0638621 0.0638621 0.997959 184.304 136.524)" fill="#A5A4A4"/>
<circle r="0.351874" transform="matrix(-0.997959 0.0638621 0.0638621 0.997959 184.304 136.524)" fill="#A5A4A4"/>
<circle r="0.351874" transform="matrix(-0.997959 0.0638621 0.0638621 0.997959 184.304 136.524)" fill="#A5A4A4"/>
<circle r="0.351874" transform="matrix(-0.997959 0.0638621 0.0638621 0.997959 185.246 134.7)" fill="#A5A4A4"/>
<circle r="0.351874" transform="matrix(-0.997959 0.0638621 0.0638621 0.997959 185.246 134.7)" fill="#A5A4A4"/>
<circle r="0.351874" transform="matrix(-0.997959 0.0638621 0.0638621 0.997959 185.246 134.7)" fill="#A5A4A4"/>
<circle r="0.351874" transform="matrix(-0.997959 0.0638621 0.0638621 0.997959 185.246 134.7)" fill="#A5A4A4"/>
<circle r="0.351874" transform="matrix(-0.997959 0.0638621 0.0638621 0.997959 185.316 135.754)" fill="#A5A4A4"/>
<circle r="0.351874" transform="matrix(-0.997959 0.0638621 0.0638621 0.997959 185.316 135.754)" fill="#A5A4A4"/>
<circle r="0.351874" transform="matrix(-0.997959 0.0638621 0.0638621 0.997959 185.316 135.754)" fill="#A5A4A4"/>
<circle r="0.351874" transform="matrix(-0.997959 0.0638621 0.0638621 0.997959 185.316 135.754)" fill="#A5A4A4"/>
<circle r="0.351874" transform="matrix(-0.997959 0.0638621 0.0638621 0.997959 183.206 135.889)" fill="#A5A4A4"/>
<circle r="0.351874" transform="matrix(-0.997959 0.0638621 0.0638621 0.997959 183.206 135.889)" fill="#A5A4A4"/>
<circle r="0.351874" transform="matrix(-0.997959 0.0638621 0.0638621 0.997959 183.206 135.889)" fill="#A5A4A4"/>
<circle r="0.351874" transform="matrix(-0.997959 0.0638621 0.0638621 0.997959 183.206 135.889)" fill="#A5A4A4"/>
<path d="M195.691 95.7412L195.783 91.9232C195.799 91.2285 196.708 90.9792 197.077 91.5682L200.527 97.0784C200.899 97.6729 200.264 98.3849 199.631 98.0825L196.089 96.3903C195.84 96.2713 195.684 96.0172 195.691 95.7412Z" fill="#FFB66B"/>
<path d="M200.89 95.5301L197.068 89.0493C196.711 88.4445 197.367 87.7493 197.992 88.07L200.662 89.4409C200.847 89.5358 200.98 89.7077 201.026 89.9103L202.177 95.0201C202.353 95.7997 201.296 96.2185 200.89 95.5301Z" fill="#FFB66B"/>
<path d="M203.596 96.6027L202.939 91.6442C202.864 91.0816 203.454 90.6683 203.957 90.9308L207.449 92.7523C207.855 92.9643 207.952 93.503 207.644 93.8432L204.811 96.9802C204.411 97.4234 203.675 97.1947 203.596 96.6027Z" fill="#FFB66B"/>
<path d="M211.034 95.8391L209.937 94.5467C209.672 94.2344 209.197 94.215 208.907 94.5046L206.127 97.2852C205.592 97.8202 206.167 98.706 206.873 98.4349L210.75 96.9467C211.201 96.7737 211.346 96.2073 211.034 95.8391Z" fill="#FFB66B"/>
<path d="M210.601 98.4301L205.84 100.129C205.27 100.333 205.209 101.116 205.741 101.405L210.608 104.05C211.082 104.308 211.656 103.956 211.643 103.418L211.537 99.073C211.526 98.5958 211.051 98.2697 210.601 98.4301Z" fill="#FFB66B"/>
<path d="M195.839 101.262V98.7895C195.839 98.2727 196.379 97.9337 196.844 98.1586L199.565 99.4733C200.107 99.7352 200.088 100.513 199.534 100.749L196.814 101.907C196.352 102.103 195.839 101.764 195.839 101.262Z" fill="#FFB66B"/>
<path d="M197.023 103.356L200.18 101.692C200.713 101.41 201.329 101.889 201.188 102.475L200.481 105.412C200.375 105.855 199.881 106.08 199.477 105.87L197.027 104.598C196.525 104.338 196.523 103.62 197.023 103.356Z" fill="#FFB66B"/>
<path d="M201.62 105.985L201.933 103.871C202.041 103.142 203.058 103.053 203.291 103.752L204.242 106.604C204.446 107.217 203.782 107.756 203.224 107.43L201.96 106.692C201.713 106.548 201.578 106.268 201.62 105.985Z" fill="#FFB66B"/>
<path d="M206.25 108.763L204.232 103.458C204 102.85 204.651 102.282 205.222 102.594L210.99 105.743C211.215 105.865 211.355 106.101 211.355 106.358V110.559C211.355 111.091 210.785 111.429 210.318 111.174L206.569 109.129C206.422 109.049 206.309 108.919 206.25 108.763Z" fill="#FFB66B"/>
<path d="M195.691 95.7412L195.783 91.9232C195.799 91.2285 196.708 90.9792 197.077 91.5682L200.527 97.0784C200.899 97.6729 200.264 98.3849 199.631 98.0825L196.089 96.3903C195.84 96.2713 195.684 96.0172 195.691 95.7412Z" stroke="#FFB66B" stroke-width="1.40144" stroke-linecap="round"/>
<path d="M200.89 95.5301L197.068 89.0493C196.711 88.4445 197.367 87.7493 197.992 88.07L200.662 89.4409C200.847 89.5358 200.98 89.7077 201.026 89.9103L202.177 95.0201C202.353 95.7997 201.296 96.2185 200.89 95.5301Z" stroke="#FFB66B" stroke-width="1.40144" stroke-linecap="round"/>
<path d="M203.596 96.6027L202.939 91.6442C202.864 91.0816 203.454 90.6683 203.957 90.9308L207.449 92.7523C207.855 92.9643 207.952 93.503 207.644 93.8432L204.811 96.9802C204.411 97.4234 203.675 97.1947 203.596 96.6027Z" stroke="#FFB66B" stroke-width="1.40144" stroke-linecap="round"/>
<path d="M211.034 95.8391L209.937 94.5467C209.672 94.2344 209.197 94.215 208.907 94.5046L206.127 97.2852C205.592 97.8202 206.167 98.706 206.873 98.4349L210.75 96.9467C211.201 96.7737 211.346 96.2073 211.034 95.8391Z" stroke="#FFB66B" stroke-width="1.40144" stroke-linecap="round"/>
<path d="M210.601 98.4301L205.84 100.129C205.27 100.333 205.209 101.116 205.741 101.405L210.608 104.05C211.082 104.308 211.656 103.956 211.643 103.418L211.537 99.073C211.526 98.5958 211.051 98.2697 210.601 98.4301Z" stroke="#FFB66B" stroke-width="1.40144" stroke-linecap="round"/>
<path d="M195.839 101.262V98.7895C195.839 98.2727 196.379 97.9337 196.844 98.1586L199.565 99.4733C200.107 99.7352 200.088 100.513 199.534 100.749L196.814 101.907C196.352 102.103 195.839 101.764 195.839 101.262Z" stroke="#FFB66B" stroke-width="1.40144" stroke-linecap="round"/>
<path d="M197.023 103.356L200.18 101.692C200.713 101.41 201.329 101.889 201.188 102.475L200.481 105.412C200.375 105.855 199.881 106.08 199.477 105.87L197.027 104.598C196.525 104.338 196.523 103.62 197.023 103.356Z" stroke="#FFB66B" stroke-width="1.40144" stroke-linecap="round"/>
<path d="M201.62 105.985L201.933 103.871C202.041 103.142 203.058 103.053 203.291 103.752L204.242 106.604C204.446 107.217 203.782 107.756 203.224 107.43L201.96 106.692C201.713 106.548 201.578 106.268 201.62 105.985Z" stroke="#FFB66B" stroke-width="1.40144" stroke-linecap="round"/>
<path d="M206.25 108.763L204.232 103.458C204 102.85 204.651 102.282 205.222 102.594L210.99 105.743C211.215 105.865 211.355 106.101 211.355 106.358V110.559C211.355 111.091 210.785 111.429 210.318 111.174L206.569 109.129C206.422 109.049 206.309 108.919 206.25 108.763Z" stroke="#FFB66B" stroke-width="1.40144" stroke-linecap="round"/>
<rect width="9.55426" height="31.8548" rx="4.37863" transform="matrix(0.773702 0.63355 -0.935521 0.353271 230.574 119.807)" fill="#9CA965"/>
<rect width="8.28119" height="31.1537" rx="4.1406" transform="matrix(-0.161819 0.98682 -0.935521 0.353271 231.836 112.064)" fill="#A4CB00"/>
<rect width="8.99732" height="8.99733" rx="1.75145" transform="matrix(-0.161819 0.986821 -0.773702 -0.63355 237.242 118.227)" fill="#B5C962"/>
<ellipse cx="176.838" cy="149.179" rx="2.95808" ry="2.02299" transform="rotate(28.4281 176.838 149.179)" fill="black" fill-opacity="0.36"/>
<ellipse cx="162.838" cy="175.275" rx="2.95808" ry="2.02299" transform="rotate(28.4281 162.838 175.275)" fill="black" fill-opacity="0.36"/>
<ellipse cx="201.662" cy="161.91" rx="2.95808" ry="2.02299" transform="rotate(28.4281 201.662 161.91)" fill="black" fill-opacity="0.36"/>
<path d="M162.559 172.672C162.08 173.278 161.509 173.467 160.921 173.002C160.333 172.537 160.384 171.938 160.864 171.332C161.343 170.726 162.068 170.342 162.656 170.807C163.244 171.272 163.038 172.066 162.559 172.672Z" fill="#FEFEFE"/>
<path d="M161.126 171.551C161.246 172.314 160.998 172.862 160.257 172.978C159.517 173.095 159.112 172.651 158.991 171.888C158.871 171.125 159.081 170.331 159.821 170.214C160.562 170.098 161.006 170.788 161.126 171.551Z" fill="#FEFEFE"/>
<path d="M162.121 172.429C161.349 172.46 160.861 172.811 160.891 173.56C160.921 174.309 161.436 174.619 162.208 174.588C162.98 174.557 163.717 174.197 163.687 173.448C163.657 172.699 162.893 172.398 162.121 172.429Z" fill="#FEFEFE"/>
<path d="M158.658 172.47C157.963 172.807 157.656 173.324 157.984 173.998C158.311 174.673 158.907 174.751 159.602 174.414C160.297 174.076 160.828 173.451 160.501 172.776C160.173 172.102 159.353 172.132 158.658 172.47Z" fill="#FEFEFE"/>
<path d="M161.684 174.861C161.516 175.616 161.084 176.034 160.353 175.871C159.621 175.708 159.407 175.146 159.575 174.392C159.743 173.637 160.229 172.976 160.961 173.139C161.693 173.302 161.852 174.107 161.684 174.861Z" fill="#FEFEFE"/>
<ellipse cx="160.921" cy="173.002" rx="1.08051" ry="1.0528" transform="rotate(38.3279 160.921 173.002)" fill="#F9E747"/>
<path d="M201.227 159.625C200.748 160.232 200.177 160.42 199.589 159.955C199.001 159.49 199.052 158.891 199.532 158.285C200.011 157.679 200.736 157.295 201.324 157.76C201.912 158.225 201.706 159.019 201.227 159.625Z" fill="#FEFEFE"/>
<path d="M199.794 158.504C199.914 159.268 199.666 159.815 198.925 159.932C198.185 160.048 197.78 159.604 197.659 158.841C197.539 158.078 197.749 157.284 198.489 157.168C199.23 157.051 199.674 157.741 199.794 158.504Z" fill="#FEFEFE"/>
<path d="M200.789 159.382C200.017 159.413 199.529 159.764 199.559 160.513C199.589 161.262 200.104 161.572 200.876 161.541C201.648 161.511 202.385 161.15 202.355 160.401C202.325 159.652 201.561 159.351 200.789 159.382Z" fill="#FEFEFE"/>
<path d="M197.326 159.423C196.631 159.76 196.324 160.277 196.651 160.952C196.979 161.626 197.575 161.704 198.27 161.367C198.965 161.029 199.496 160.404 199.169 159.729C198.841 159.055 198.021 159.085 197.326 159.423Z" fill="#FEFEFE"/>
<path d="M200.352 161.815C200.184 162.569 199.752 162.987 199.021 162.824C198.289 162.661 198.075 162.099 198.243 161.345C198.411 160.591 198.897 159.929 199.629 160.092C200.361 160.255 200.52 161.06 200.352 161.815Z" fill="#FEFEFE"/>
<ellipse cx="199.589" cy="159.955" rx="1.08051" ry="1.0528" transform="rotate(38.3279 199.589 159.955)" fill="#F9E747"/>
<path d="M176.563 146.897C176.084 147.503 175.513 147.692 174.925 147.227C174.337 146.762 174.388 146.163 174.868 145.557C175.347 144.951 176.072 144.566 176.66 145.031C177.248 145.496 177.042 146.291 176.563 146.897Z" fill="#FEFEFE"/>
<path d="M175.13 145.776C175.25 146.539 175.002 147.086 174.261 147.203C173.521 147.32 173.116 146.876 172.995 146.113C172.875 145.349 173.085 144.556 173.825 144.439C174.566 144.322 175.009 145.013 175.13 145.776Z" fill="#FEFEFE"/>
<path d="M176.125 146.654C175.353 146.685 174.865 147.035 174.895 147.784C174.925 148.533 175.44 148.844 176.212 148.813C176.984 148.782 177.721 148.421 177.691 147.672C177.661 146.923 176.897 146.623 176.125 146.654Z" fill="#FEFEFE"/>
<path d="M172.662 146.694C171.967 147.032 171.66 147.549 171.987 148.223C172.315 148.897 172.911 148.976 173.606 148.638C174.301 148.301 174.832 147.675 174.505 147.001C174.177 146.326 173.357 146.357 172.662 146.694Z" fill="#FEFEFE"/>
<path d="M175.688 149.086C175.52 149.84 175.088 150.258 174.356 150.095C173.625 149.932 173.411 149.37 173.579 148.616C173.747 147.862 174.233 147.201 174.965 147.364C175.697 147.527 175.856 148.332 175.688 149.086Z" fill="#FEFEFE"/>
<ellipse cx="174.925" cy="147.226" rx="1.08051" ry="1.0528" transform="rotate(38.3279 174.925 147.226)" fill="#F9E747"/>
<path d="M186.082 174.077C184.411 174.713 184.501 176.079 177.924 173.359C171.346 170.638 166.397 167.505 166.87 166.362C167.343 165.218 173.059 166.496 179.637 169.217C186.214 171.938 187.514 172.963 186.082 174.077Z" fill="black" fill-opacity="0.36"/>
<path d="M187.594 163.119C185.659 164.393 183.487 165.839 176.909 163.119C170.331 160.398 165.598 156.744 166.337 154.957C167.077 153.169 173.008 153.926 179.586 156.647C186.164 159.367 189.365 161.185 187.594 163.119Z" fill="black" fill-opacity="0.36"/>
<path d="M168.023 166.201V151.483V135.651L168.591 128.745C168.84 125.718 170.226 122.897 172.469 120.85V120.85C173.163 120.218 173.928 119.668 174.749 119.214L177.968 117.432" stroke="#668100" stroke-width="2.86413" stroke-linecap="round"/>
<path d="M160.058 116.987L158.736 116.782C158.726 116.78 158.722 116.769 158.728 116.762L159.509 115.771C160.967 113.921 163.078 112.699 165.409 112.356C167.636 112.264 169.835 112.874 171.697 114.099L171.876 114.217C173.016 115.192 173.829 116.494 174.203 117.947L174.548 119.289C174.549 119.292 174.548 119.296 174.545 119.298C173.016 120.368 171.154 120.857 169.296 120.675L167.917 120.54L167.444 120.428C166.208 120.137 165.054 119.57 164.069 118.77C162.913 117.831 161.529 117.216 160.058 116.987Z" fill="#5EA526"/>
<path d="M185.66 119.707L186.996 119.778C187.005 119.778 187.012 119.769 187.007 119.76L186.446 118.63C185.399 116.52 183.584 114.89 181.374 114.076C179.213 113.529 176.935 113.674 174.862 114.491L174.662 114.57C173.346 115.289 172.283 116.397 171.619 117.743L171.006 118.985C171.004 118.988 171.005 118.991 171.007 118.994C172.284 120.356 174.005 121.216 175.861 121.419L177.238 121.57L177.725 121.558C178.994 121.527 180.239 121.209 181.368 120.628C182.692 119.947 184.173 119.629 185.66 119.707Z" fill="#5EA526"/>
<path d="M185.66 119.707L186.996 119.778C187.005 119.778 187.012 119.769 187.007 119.76L186.446 118.63C185.399 116.52 183.584 114.89 181.374 114.076C179.213 113.529 176.935 113.674 174.862 114.491L174.662 114.57C173.346 115.289 172.283 116.397 171.619 117.743L171.006 118.985C171.004 118.988 171.005 118.991 171.007 118.994C172.284 120.356 174.005 121.216 175.861 121.419L177.238 121.57L177.725 121.558C178.994 121.527 180.239 121.209 181.368 120.628C182.692 119.947 184.173 119.629 185.66 119.707Z" fill="#5EA526"/>
<path d="M176.588 139.434L177.432 139.275C177.438 139.274 177.441 139.267 177.437 139.262L176.915 138.642C175.941 137.485 174.561 136.744 173.058 136.571C171.626 136.558 170.227 136.995 169.058 137.82L168.945 137.899C168.233 138.548 167.738 139.401 167.528 140.342L167.334 141.21C167.334 141.212 167.335 141.214 167.336 141.215C168.34 141.871 169.545 142.146 170.734 141.991L171.616 141.876L171.918 141.795C172.705 141.583 173.434 141.195 174.05 140.661C174.772 140.034 175.648 139.611 176.588 139.434Z" fill="#5EA526"/>
<path d="M158.291 150.442L157.447 150.283C157.441 150.282 157.438 150.274 157.442 150.27L157.964 149.65C158.938 148.492 160.318 147.752 161.821 147.579C163.252 147.566 164.652 148.003 165.821 148.828L165.934 148.907C166.646 149.556 167.141 150.409 167.351 151.349L167.545 152.218C167.545 152.22 167.544 152.222 167.542 152.223C166.539 152.879 165.334 153.154 164.145 152.999L163.263 152.884L162.961 152.803C162.174 152.59 161.445 152.203 160.829 151.669C160.107 151.042 159.231 150.619 158.291 150.442Z" fill="#5EA526"/>
<path d="M182.903 134.616L180.791 133.963C179.999 133.717 179.144 133.77 178.387 134.11V134.11C177.165 134.66 176.379 135.876 176.379 137.216V138.674V144.959V151.085V154.983" stroke="#6BC3EA" stroke-width="0.795593" stroke-linecap="round" stroke-dasharray="1.59 1.59"/>
<path d="M183.854 135.491L183.604 135.399C181.96 134.793 180.113 135.342 179.067 136.748V136.748C178.559 137.43 178.285 138.257 178.285 139.107V142.651V148.379V152.039V159.597" stroke="#6BC3EA" stroke-width="0.795593" stroke-linecap="round" stroke-dasharray="1.59 1.59"/>
<path d="M185.527 136.128V136.128C184.689 134.757 182.731 134.668 181.772 135.956L181.696 136.059C181.394 136.465 181.23 136.958 181.23 137.465V141.538V147.266V150.926V158.484" stroke="#6BC3EA" stroke-width="0.795593" stroke-linecap="round" stroke-dasharray="1.59 1.59"/>
<path d="M185.527 136.137V136.137C185.295 135.282 184.094 135.249 183.817 136.091L183.669 136.538C183.635 136.642 183.617 136.752 183.617 136.862V141.564V147.31V150.982V163.258" stroke="#6BC3EA" stroke-width="0.795593" stroke-linecap="round" stroke-dasharray="1.59 1.59"/>
<ellipse cx="141.037" cy="171.775" rx="2.95808" ry="2.02299" transform="rotate(28.4281 141.037 171.775)" fill="black" fill-opacity="0.36"/>
<path d="M140.664 168.979C140.185 169.585 139.615 169.774 139.026 169.309C138.438 168.844 138.49 168.245 138.969 167.639C139.448 167.033 140.174 166.648 140.762 167.113C141.35 167.578 141.144 168.373 140.664 168.979Z" fill="#FEFEFE"/>
<path d="M139.231 167.858C139.352 168.621 139.103 169.168 138.363 169.285C137.622 169.402 137.217 168.958 137.097 168.195C136.976 167.431 137.186 166.638 137.927 166.521C138.667 166.404 139.111 167.095 139.231 167.858Z" fill="#FEFEFE"/>
<path d="M140.227 168.736C139.455 168.767 138.967 169.117 138.997 169.866C139.027 170.615 139.541 170.926 140.313 170.895C141.085 170.864 141.823 170.504 141.793 169.754C141.763 169.005 140.999 168.705 140.227 168.736Z" fill="#FEFEFE"/>
<path d="M136.763 168.776C136.068 169.114 135.761 169.631 136.089 170.305C136.416 170.979 137.012 171.058 137.707 170.72C138.402 170.383 138.934 169.757 138.606 169.083C138.279 168.408 137.459 168.439 136.763 168.776Z" fill="#FEFEFE"/>
<path d="M139.79 171.168C139.622 171.922 139.19 172.34 138.458 172.177C137.726 172.014 137.512 171.453 137.68 170.698C137.848 169.944 138.335 169.283 139.066 169.446C139.798 169.609 139.958 170.414 139.79 171.168Z" fill="#FEFEFE"/>
<ellipse cx="139.027" cy="169.308" rx="1.08051" ry="1.0528" transform="rotate(38.3279 139.027 169.308)" fill="#F9E747"/>
<defs>
<radialGradient id="paint0_radial_127_106" cx="0" cy="0" r="1" gradientUnits="userSpaceOnUse" gradientTransform="translate(188.5 188.5) rotate(-90) scale(188.5)">
<stop stop-color="#FFD12E" stop-opacity="0.3"/>
<stop offset="1" stop-color="#C4C4C4" stop-opacity="0"/>
</radialGradient>
<linearGradient id="paint1_linear_127_106" x1="80.2912" y1="75.0782" x2="-40.6176" y2="25.0859" gradientUnits="userSpaceOnUse">
<stop stop-color="#6AB92B"/>
<stop offset="1" stop-color="#6AB92B" stop-opacity="0"/>
</linearGradient>
</defs>
</svg>
