<svg width="377" height="377" viewBox="0 0 377 377" fill="none" xmlns="http://www.w3.org/2000/svg">
<path d="M377 188.5C377 84.3943 292.606 -1.32918e-05 188.5 -1.32918e-05C84.3943 -1.32918e-05 0 84.3943 0 188.5C0 292.606 84.3943 377 188.5 377C292.606 377 377 292.606 377 188.5Z" fill="url(#paint0_radial_127_110)"/>
<rect width="127.229" height="127.229" transform="matrix(0.866025 0.5 -0.866025 0.5 188.094 143.588)" fill="url(#paint1_linear_127_110)"/>
<path d="M79.2695 207.887L188.895 271.179L188.895 281.382L79.2695 217.962L79.2695 207.887Z" fill="#6BBA2C"/>
<path d="M187.359 281.26L297.606 216.72L297.606 207.57L187.359 271.185L187.359 281.26Z" fill="#A15C2C"/>
<ellipse cx="234.771" cy="187.703" rx="54.6906" ry="8.17826" transform="rotate(27.8962 234.771 187.703)" fill="black" fill-opacity="0.25"/>
<path d="M185.234 125.332H196.816V160.927C196.816 163.178 195.51 165.226 193.469 166.176C191.92 166.898 190.13 166.898 188.581 166.176C186.54 165.226 185.234 163.178 185.234 160.927V125.332Z" fill="#A07A2F"/>
<path d="M190.301 52.9492L217.488 126.713C218.449 129.319 217.03 132.198 214.379 133.025C198.699 137.914 181.903 137.914 166.223 133.025C163.571 132.198 162.153 129.319 163.114 126.713L190.301 52.9492Z" fill="#688005"/>
<path d="M190.3 32.6816L215.091 107.417C215.793 109.535 214.663 111.825 212.555 112.555C198.139 117.55 182.462 117.55 168.046 112.555C165.937 111.825 164.807 109.535 165.51 107.417L190.3 32.6816Z" fill="#799602"/>
<path d="M190.302 32.6816L211.175 85.8263C212.016 87.9679 210.838 90.3698 208.63 91.016C196.662 94.5178 183.942 94.5178 171.974 91.016C169.766 90.3698 168.588 87.9679 169.429 85.8263L190.302 32.6816Z" fill="#88A900"/>
<ellipse cx="199.24" cy="203.944" rx="58.8482" ry="8.79997" transform="rotate(27.8962 199.24 203.944)" fill="black" fill-opacity="0.25"/>
<path d="M147.914 133.359H161.334V174.605C161.334 177.214 159.821 179.586 157.456 180.688C155.661 181.524 153.587 181.524 151.792 180.688C149.427 179.586 147.914 177.214 147.914 174.605V133.359Z" fill="#A07A2F"/>
<path d="M153.784 49.4844L185.287 134.959C186.4 137.978 184.757 141.314 181.685 142.272C163.516 147.938 144.052 147.938 125.883 142.272C122.811 141.314 121.168 137.978 122.281 134.959L153.784 49.4844Z" fill="#688005"/>
<path d="M153.784 26L182.511 112.599C183.325 115.054 182.015 117.707 179.572 118.553C162.867 124.341 144.702 124.341 127.997 118.553C125.554 117.707 124.244 115.054 125.058 112.599L153.784 26Z" fill="#799602"/>
<path d="M153.786 26L177.973 87.5814C178.947 90.063 177.582 92.8462 175.024 93.595C161.156 97.6527 146.416 97.6527 132.549 93.595C129.99 92.8462 128.625 90.063 129.6 87.5814L153.786 26Z" fill="#88A900"/>
<path d="M228.995 201.667C225.287 207.967 230.123 205.586 223.789 204.503C223.789 204.503 232.072 213.115 236.494 209.856C240.915 206.596 228.995 201.667 228.995 201.667Z" fill="black" fill-opacity="0.26"/>
<path d="M219.653 196.633C216.019 202.569 220.662 200.382 214.65 199.247C214.65 199.247 222.393 207.583 226.656 204.554C230.919 201.524 219.653 196.633 219.653 196.633Z" fill="black" fill-opacity="0.26"/>
<rect width="4.48783" height="14.9629" rx="2.05673" transform="matrix(0.85264 -0.522499 0.026177 0.999657 226.391 192.285)" fill="#9CA965"/>
<rect width="4.48783" height="14.9629" rx="2.05673" transform="matrix(0.866025 -0.5 3.60519e-08 1 213.246 173.459)" fill="#9CA965"/>
<rect width="3.88984" height="14.6335" rx="1.94492" transform="matrix(0.866025 0.5 -1.89406e-08 1 210.055 171.619)" fill="#A4CB00"/>
<rect width="4.22622" height="4.22622" rx="0.822692" transform="matrix(0.991867 0.127281 -0.606162 0.795341 212.574 171.748)" fill="#B5C962"/>
<rect width="3.88984" height="14.6335" rx="1.94492" transform="matrix(0.878817 0.477159 0.0261769 0.999657 223.148 190.439)" fill="#A4CB00"/>
<rect width="7.64102" height="17.1159" rx="2.05673" transform="matrix(0.866025 -0.5 2.20305e-08 1 224.594 179.289)" fill="#9CA965"/>
<rect width="4.48783" height="14.9629" rx="2.05673" transform="matrix(0.87462 -0.48481 -0.0174522 0.999848 217.902 186.596)" fill="#9CA965"/>
<rect width="3.88984" height="14.6335" rx="1.94492" transform="matrix(0.857167 0.515038 -0.0174525 0.999848 214.746 184.762)" fill="#A4CB00"/>
<rect width="7.64102" height="17.1159" rx="2.05673" transform="matrix(0.866025 -0.5 0.866025 0.5 210.105 171.742)" fill="#B5C962"/>
<rect width="14.6401" height="17.1159" rx="2.05673" transform="matrix(0.866025 0.5 -2.20305e-08 1 212.215 171.764)" fill="#A8C043"/>
<path d="M213.267 163.613L219.862 159.816C220.537 159.428 221.363 159.407 222.057 159.76L229.212 163.405C230.822 164.225 230.905 166.495 229.358 167.429L222.937 171.313C222.255 171.725 221.409 171.756 220.699 171.394L213.371 167.663C211.74 166.833 211.681 164.526 213.267 163.613Z" fill="#FB9A36"/>
<path d="M221.73 181.226V169.708C221.73 169.655 221.759 169.605 221.805 169.577L228.403 165.599C229.938 164.673 231.896 165.779 231.896 167.572V173.715C231.896 174.499 231.498 175.229 230.838 175.653L221.967 181.355C221.865 181.42 221.73 181.347 221.73 181.226Z" fill="#E47F17"/>
<path d="M210.742 174.286V167.743C210.742 166.03 212.544 164.916 214.076 165.682L221.72 169.501C221.772 169.527 221.805 169.581 221.805 169.639V181.252C221.805 181.368 221.682 181.442 221.58 181.388L211.972 176.325C211.216 175.926 210.742 175.141 210.742 174.286Z" fill="#F18E27"/>
<path d="M221.281 164.649L221.69 161.811C221.838 160.785 221.683 159.739 221.245 158.8V158.8C220.829 157.908 220.173 157.149 219.352 156.607L218.852 156.277" stroke="#43731D" stroke-width="0.614401" stroke-linecap="round"/>
<path d="M227.559 153.624L230.231 150.749C230.241 150.738 230.236 150.721 230.222 150.717L229.503 150.532C228.416 150.253 227.298 150.111 226.175 150.111H225.975C225.282 150.111 224.59 150.176 223.909 150.303L223.27 150.423C222.925 150.488 222.587 150.589 222.262 150.724L221.992 150.837C220.907 151.289 220.052 152.161 219.622 153.254C219.525 153.5 219.451 153.754 219.4 154.014L218.972 156.216C218.968 156.233 218.982 156.25 219 156.25H221.727H221.93C224.102 156.25 226.163 155.289 227.559 153.624Z" fill="#6AB92B" stroke="#6AB92B" stroke-width="0.56063" stroke-linecap="round"/>
<path d="M208.862 159.464L207.939 159.755C207.932 159.757 207.926 159.751 207.927 159.745L208.116 158.851C208.468 157.183 209.444 155.712 210.846 154.741C212.261 153.966 213.883 153.655 215.484 153.852L215.638 153.871C216.691 154.137 217.637 154.721 218.346 155.543L219.001 156.302C219.002 156.304 219.003 156.307 219.001 156.309C218.354 157.495 217.303 158.409 216.039 158.888L215.102 159.243L214.758 159.323C213.864 159.531 212.933 159.534 212.037 159.332C210.986 159.094 209.89 159.139 208.862 159.464Z" fill="#6AB92B"/>
<path d="M220.588 169.951L212.158 165.802C211.954 165.701 211.715 165.85 211.715 166.078V175.327C211.715 175.444 211.781 175.551 211.885 175.602L220.316 179.79C220.52 179.892 220.76 179.743 220.76 179.515V170.227C220.76 170.11 220.693 170.003 220.588 169.951Z" stroke="#FFE6CC" stroke-width="1.536" stroke-linecap="round"/>
<circle cx="215.899" cy="173.059" r="0.597996" fill="#FFE6CC"/>
<path d="M212.54 171.128L212.584 169.335C212.591 169.009 213.018 168.891 213.192 169.168L214.812 171.756C214.987 172.036 214.688 172.37 214.391 172.228L212.727 171.433C212.61 171.377 212.537 171.258 212.54 171.128Z" fill="#FFB66B"/>
<path d="M214.983 171.029L213.187 167.985C213.02 167.701 213.328 167.374 213.621 167.525L214.876 168.169C214.962 168.213 215.025 168.294 215.046 168.389L215.587 170.79C215.67 171.156 215.173 171.352 214.983 171.029Z" fill="#FFB66B"/>
<path d="M216.254 171.533L215.945 169.204C215.91 168.94 216.187 168.745 216.423 168.869L218.063 169.724C218.254 169.824 218.3 170.077 218.155 170.237L216.824 171.71C216.636 171.918 216.291 171.811 216.254 171.533Z" fill="#FFB66B"/>
<path d="M219.747 171.174L219.232 170.567C219.108 170.421 218.884 170.411 218.748 170.547L217.442 171.854C217.191 172.105 217.461 172.521 217.793 172.394L219.614 171.695C219.826 171.613 219.894 171.347 219.747 171.174Z" fill="#FFB66B"/>
<path d="M219.544 172.391L217.308 173.189C217.04 173.285 217.011 173.653 217.261 173.789L219.547 175.031C219.77 175.152 220.04 174.987 220.034 174.734L219.984 172.693C219.978 172.469 219.755 172.316 219.544 172.391Z" fill="#FFB66B"/>
<path d="M212.61 173.721V172.56C212.61 172.317 212.864 172.158 213.082 172.264L214.36 172.881C214.615 173.004 214.606 173.37 214.346 173.481L213.068 174.024C212.851 174.117 212.61 173.957 212.61 173.721Z" fill="#FFB66B"/>
<path d="M213.166 174.705L214.649 173.923C214.9 173.791 215.189 174.016 215.123 174.292L214.791 175.671C214.741 175.879 214.509 175.985 214.319 175.886L213.168 175.289C212.932 175.166 212.931 174.829 213.166 174.705Z" fill="#FFB66B"/>
<path d="M215.326 175.94L215.473 174.947C215.523 174.604 216.001 174.563 216.11 174.891L216.557 176.231C216.653 176.519 216.341 176.772 216.079 176.619L215.485 176.272C215.369 176.204 215.306 176.073 215.326 175.94Z" fill="#FFB66B"/>
<path d="M217.5 177.245L216.552 174.753C216.443 174.467 216.749 174.201 217.017 174.347L219.727 175.826C219.832 175.884 219.898 175.995 219.898 176.115V178.088C219.898 178.338 219.631 178.497 219.411 178.377L217.65 177.417C217.581 177.379 217.528 177.318 217.5 177.245Z" fill="#FFB66B"/>
<path d="M212.54 171.128L212.584 169.335C212.591 169.009 213.018 168.891 213.192 169.168L214.812 171.756C214.987 172.036 214.688 172.37 214.391 172.228L212.727 171.433C212.61 171.377 212.537 171.258 212.54 171.128Z" stroke="#FFB66B" stroke-width="0.658286" stroke-linecap="round"/>
<path d="M214.983 171.029L213.187 167.985C213.02 167.701 213.328 167.374 213.621 167.525L214.876 168.169C214.962 168.213 215.025 168.294 215.046 168.389L215.587 170.79C215.67 171.156 215.173 171.352 214.983 171.029Z" stroke="#FFB66B" stroke-width="0.658286" stroke-linecap="round"/>
<path d="M216.254 171.533L215.945 169.204C215.91 168.94 216.187 168.745 216.423 168.869L218.063 169.724C218.254 169.824 218.3 170.077 218.155 170.237L216.824 171.71C216.636 171.918 216.291 171.811 216.254 171.533Z" stroke="#FFB66B" stroke-width="0.658286" stroke-linecap="round"/>
<path d="M219.747 171.174L219.232 170.567C219.108 170.421 218.884 170.411 218.748 170.547L217.442 171.854C217.191 172.105 217.461 172.521 217.793 172.394L219.614 171.695C219.826 171.613 219.894 171.347 219.747 171.174Z" stroke="#FFB66B" stroke-width="0.658286" stroke-linecap="round"/>
<path d="M219.544 172.391L217.308 173.189C217.04 173.285 217.011 173.653 217.261 173.789L219.547 175.031C219.77 175.152 220.04 174.987 220.034 174.734L219.984 172.693C219.978 172.469 219.755 172.316 219.544 172.391Z" stroke="#FFB66B" stroke-width="0.658286" stroke-linecap="round"/>
<path d="M212.61 173.721V172.56C212.61 172.317 212.864 172.158 213.082 172.264L214.36 172.881C214.615 173.004 214.606 173.37 214.346 173.481L213.068 174.024C212.851 174.117 212.61 173.957 212.61 173.721Z" stroke="#FFB66B" stroke-width="0.658286" stroke-linecap="round"/>
<path d="M213.166 174.705L214.649 173.923C214.9 173.791 215.189 174.016 215.123 174.292L214.791 175.671C214.741 175.879 214.509 175.985 214.319 175.886L213.168 175.289C212.932 175.166 212.931 174.829 213.166 174.705Z" stroke="#FFB66B" stroke-width="0.658286" stroke-linecap="round"/>
<path d="M215.326 175.94L215.473 174.947C215.523 174.604 216.001 174.563 216.11 174.891L216.557 176.231C216.653 176.519 216.341 176.772 216.079 176.619L215.485 176.272C215.369 176.204 215.306 176.073 215.326 175.94Z" stroke="#FFB66B" stroke-width="0.658286" stroke-linecap="round"/>
<path d="M217.5 177.245L216.552 174.753C216.443 174.467 216.749 174.201 217.017 174.347L219.727 175.826C219.832 175.884 219.898 175.995 219.898 176.115V178.088C219.898 178.338 219.631 178.497 219.411 178.377L217.65 177.417C217.581 177.379 217.528 177.318 217.5 177.245Z" stroke="#FFB66B" stroke-width="0.658286" stroke-linecap="round"/>
<rect width="2.7504" height="6.92244" rx="1.17983" transform="matrix(0.737277 -0.67559 0.21644 0.976296 216.801 185.383)" fill="#4B3F3F"/>
<path d="M213.004 184.531C212.592 184.293 212.596 183.865 212.992 183.502L213.478 183.057C213.958 182.616 214.852 182.418 215.473 182.614L218.228 183.483C218.849 183.679 218.963 184.194 218.483 184.635L217.888 185.18C217.545 185.494 216.969 185.706 216.444 185.668C215.201 185.578 214.266 185.259 213.004 184.531Z" fill="#7D6868"/>
<path d="M212.648 185.405C212.47 184.603 213.127 184.292 213.923 184.802L214.189 184.972C214.429 185.125 214.672 185.211 214.885 185.219L215.844 185.251C216.515 185.274 217.346 186.049 217.515 186.811L218.422 190.903C218.564 191.539 218.174 191.896 217.553 191.7L214.905 190.865C214.283 190.669 213.665 189.995 213.524 189.358L212.648 185.405Z" fill="#554949"/>
<rect width="4.48783" height="14.9629" rx="2.05673" transform="matrix(0.773702 0.63355 -0.935521 0.353271 228.922 182.432)" fill="#9CA965"/>
<rect width="3.88984" height="14.6335" rx="1.94492" transform="matrix(-0.161819 0.98682 -0.935521 0.353271 229.52 178.795)" fill="#A4CB00"/>
<rect width="4.22622" height="4.22622" rx="0.822692" transform="matrix(-0.161819 0.986821 -0.773702 -0.63355 232.059 181.689)" fill="#B5C962"/>
<path d="M169.931 212.258L203.218 193.034L196.509 189.938L164.254 209.033L169.931 212.258Z" stroke="black" stroke-width="0.258041"/>
<path d="M140.641 218.708V201.161L189.798 174.066V190.839L140.641 218.708Z" fill="#522413"/>
<path d="M140.77 218.321V201.807L176.766 221.16V239.223L140.77 218.321Z" fill="#863F20"/>
<path d="M189.668 190.839V174.066L225.407 193.678V211.095L189.668 190.839Z" fill="#A74E2B"/>
<path d="M176.508 239.222V221.159L225.536 193.936V210.45L176.508 239.222Z" fill="#522413"/>
<path d="M193.152 175.873L189.539 174.066L140.641 201.161L144.253 203.096L193.152 175.873Z" fill="#EF8439"/>
<path d="M225.41 193.937L221.797 192.131L172.898 219.225L176.511 221.161L225.41 193.937Z" fill="#EF8439"/>
<path d="M140.125 201.42L144.511 199.227L179.992 219.096L176.509 221.16L140.125 201.42Z" fill="#EF8439"/>
<path d="M186.317 175.873L189.929 174.066L225.668 193.807L222.055 195.484L186.317 175.873Z" fill="#EF8439"/>
<path d="M189.41 185.291L154.703 204.902L176.379 217.288L211.214 197.935L189.41 185.291Z" fill="#453535"/>
<path d="M198.183 188.645C196.377 188.387 189.539 185.42 189.539 185.42L210.957 198.064C210.957 198.064 213.408 196.774 213.924 196.516C214.44 196.258 202.441 192.559 201.796 191.613C201.151 190.667 199.99 188.903 198.183 188.645Z" fill="#453535"/>
<path d="M151.867 203.355L154.835 205.032L189.541 185.292C189.541 185.292 187.993 184.776 185.929 185.937C183.864 187.098 169.801 195.614 167.737 195.485C165.672 195.356 162.447 201.291 160.641 201.162C158.834 201.033 151.867 203.355 151.867 203.355Z" fill="#453535"/>
<path d="M201.797 191.614C200.66 189.659 201.321 190.316 198.83 188.775L161.801 208.903L167.349 212.128L201.797 191.614Z" fill="#383030"/>
<path d="M225.148 210.193L176.766 238.707L190.829 244.9L237.663 215.87L225.148 210.193Z" fill="black" fill-opacity="0.28"/>
<path d="M182.703 169.68L194.315 174.636V202.451L184.578 197.399C183.426 196.802 182.703 195.612 182.703 194.314V169.68Z" fill="#88A900"/>
<path d="M205.926 169.68L194.314 174.636V202.451L204.051 197.399C205.203 196.802 205.926 195.612 205.926 194.314V169.68Z" fill="#668100"/>
<path d="M162.316 174.582L173.928 179.538V207.353L164.191 202.302C163.039 201.704 162.316 200.514 162.316 199.217V174.582Z" fill="#88A900"/>
<path d="M185.543 174.582L173.931 179.538V207.353L183.668 202.302C184.82 201.704 185.543 200.514 185.543 199.217V174.582Z" fill="#668100"/>
<path d="M172.214 169.324C173.226 168.787 174.437 168.783 175.453 169.313L185.527 174.576L173.831 179.648L162.317 174.576L172.214 169.324Z" fill="#A4CB00"/>
<path d="M192.601 164.421C193.613 163.884 194.824 163.88 195.839 164.411L205.914 169.673L194.217 174.746L182.704 169.673L192.601 164.421Z" fill="#A4CB00"/>
<path d="M163.142 180.233L164.867 179.24C165.161 179.071 165.521 179.062 165.823 179.215L167.279 179.957C167.82 180.233 167.848 180.995 167.329 181.31L166.054 182.08C165.758 182.26 165.389 182.273 165.08 182.116L163.165 181.141C162.8 180.955 162.787 180.438 163.142 180.233Z" fill="#FBD036"/>
<path d="M165.59 184.789V181.828C165.59 181.802 165.605 181.778 165.628 181.767L167.862 180.721C168.033 180.641 168.229 180.766 168.229 180.955V182.83C168.229 183.192 168.034 183.526 167.719 183.704L165.69 184.848C165.645 184.873 165.59 184.84 165.59 184.789Z" fill="#E4B717"/>
<path d="M162.625 182.749V181.874C162.625 181.129 163.409 180.644 164.076 180.977L165.531 181.704C165.553 181.715 165.568 181.738 165.568 181.764V184.794C165.568 184.844 165.514 184.876 165.47 184.853L163.16 183.636C162.831 183.462 162.625 183.121 162.625 182.749Z" fill="#FBD036"/>
<path d="M165.214 181.815L163.076 180.763C162.987 180.719 162.883 180.784 162.883 180.883V183.227C162.883 183.278 162.912 183.325 162.957 183.347L165.095 184.409C165.184 184.453 165.289 184.389 165.289 184.29V181.935C165.289 181.884 165.26 181.838 165.214 181.815Z" stroke="#FDF5ED" stroke-width="0.668565" stroke-linecap="round"/>
<circle cx="163.999" cy="182.657" r="0.15906" fill="#FFE6CC"/>
<path d="M163.104 182.107L163.11 181.852C163.113 181.71 163.299 181.659 163.375 181.779L163.605 182.148C163.682 182.27 163.552 182.415 163.422 182.353L163.185 182.24C163.134 182.216 163.102 182.164 163.104 182.107Z" fill="#FFF06B"/>
<path d="M163.572 181.811L163.373 181.473C163.3 181.349 163.434 181.207 163.562 181.273L163.701 181.344C163.739 181.364 163.766 181.399 163.775 181.44L163.835 181.707C163.871 181.866 163.655 181.952 163.572 181.811Z" fill="#FFF06B"/>
<path d="M164.075 182.132L164.023 181.738C164.007 181.623 164.128 181.538 164.231 181.592L164.508 181.737C164.591 181.78 164.611 181.89 164.548 181.96L164.323 182.209C164.241 182.299 164.091 182.253 164.075 182.132Z" fill="#FFF06B"/>
<path d="M164.969 182.096L164.922 182.04C164.868 181.976 164.771 181.972 164.711 182.032L164.592 182.151C164.483 182.26 164.6 182.441 164.745 182.386L164.911 182.322C165.003 182.287 165.033 182.171 164.969 182.096Z" fill="#FFF06B"/>
<path d="M164.893 182.505L164.488 182.65C164.372 182.691 164.359 182.851 164.468 182.911L164.882 183.136C164.979 183.188 165.096 183.116 165.094 183.006L165.085 182.637C165.082 182.539 164.985 182.472 164.893 182.505Z" fill="#FFF06B"/>
<path d="M163.121 182.749V182.613C163.121 182.507 163.232 182.438 163.327 182.484L163.476 182.556C163.587 182.61 163.583 182.769 163.47 182.817L163.321 182.881C163.226 182.921 163.121 182.852 163.121 182.749Z" fill="#FFF06B"/>
<path d="M163.364 183.045L163.555 182.944C163.664 182.887 163.79 182.985 163.761 183.105L163.718 183.282C163.696 183.373 163.595 183.419 163.513 183.376L163.364 183.299C163.262 183.246 163.261 183.099 163.364 183.045Z" fill="#FFF06B"/>
<path d="M164.415 183.751L164.224 183.249C164.176 183.124 164.309 183.008 164.426 183.072L164.985 183.377C165.031 183.402 165.06 183.45 165.06 183.503V183.901C165.06 184.01 164.944 184.079 164.848 184.027L164.48 183.826C164.45 183.81 164.427 183.783 164.415 183.751Z" fill="#FFF06B"/>
<path d="M164.125 183.362C164.167 183.487 164.032 183.597 163.918 183.53C163.868 183.501 163.841 183.444 163.849 183.386C163.871 183.238 164.078 183.22 164.125 183.362Z" fill="#FFF06B"/>
<path d="M163.104 182.107L163.11 181.852C163.113 181.71 163.299 181.659 163.375 181.779L163.605 182.148C163.682 182.27 163.552 182.415 163.422 182.353L163.185 182.24C163.134 182.216 163.102 182.164 163.104 182.107Z" stroke="#FEFEFE" stroke-width="0.258041" stroke-linecap="round"/>
<path d="M163.572 181.811L163.373 181.473C163.3 181.349 163.434 181.207 163.562 181.273L163.701 181.344C163.739 181.364 163.766 181.399 163.775 181.44L163.835 181.707C163.871 181.866 163.655 181.952 163.572 181.811Z" stroke="#FEFEFE" stroke-width="0.258041" stroke-linecap="round"/>
<path d="M164.075 182.132L164.023 181.738C164.007 181.623 164.128 181.538 164.231 181.592L164.508 181.737C164.591 181.78 164.611 181.89 164.548 181.96L164.323 182.209C164.241 182.299 164.091 182.253 164.075 182.132Z" stroke="#FEFEFE" stroke-width="0.258041" stroke-linecap="round"/>
<path d="M164.969 182.096L164.922 182.04C164.868 181.976 164.771 181.972 164.711 182.032L164.592 182.151C164.483 182.26 164.6 182.441 164.745 182.386L164.911 182.322C165.003 182.287 165.033 182.171 164.969 182.096Z" stroke="#FEFEFE" stroke-width="0.258041" stroke-linecap="round"/>
<path d="M164.893 182.505L164.488 182.65C164.372 182.691 164.359 182.851 164.468 182.911L164.882 183.136C164.979 183.188 165.096 183.116 165.094 183.006L165.085 182.637C165.082 182.539 164.985 182.472 164.893 182.505Z" stroke="#FEFEFE" stroke-width="0.258041" stroke-linecap="round"/>
<path d="M163.121 182.749V182.613C163.121 182.507 163.232 182.438 163.327 182.484L163.476 182.556C163.587 182.61 163.583 182.769 163.47 182.817L163.321 182.881C163.226 182.921 163.121 182.852 163.121 182.749Z" stroke="#FEFEFE" stroke-width="0.258041" stroke-linecap="round"/>
<path d="M163.364 183.045L163.555 182.944C163.664 182.887 163.79 182.985 163.761 183.105L163.718 183.282C163.696 183.373 163.595 183.419 163.513 183.376L163.364 183.299C163.262 183.246 163.261 183.099 163.364 183.045Z" stroke="#FEFEFE" stroke-width="0.258041" stroke-linecap="round"/>
<path d="M164.415 183.751L164.224 183.249C164.176 183.124 164.309 183.008 164.426 183.072L164.985 183.377C165.031 183.402 165.06 183.45 165.06 183.503V183.901C165.06 184.01 164.944 184.079 164.848 184.027L164.48 183.826C164.45 183.81 164.427 183.783 164.415 183.751Z" stroke="#FEFEFE" stroke-width="0.258041" stroke-linecap="round"/>
<path d="M164.125 183.362C164.167 183.487 164.032 183.597 163.918 183.53C163.868 183.501 163.841 183.444 163.849 183.386C163.871 183.238 164.078 183.22 164.125 183.362Z" stroke="#FEFEFE" stroke-width="0.258041" stroke-linecap="round"/>
<path d="M166.755 189.267L168.481 188.273C168.775 188.104 169.134 188.095 169.436 188.249L170.893 188.991C171.434 189.266 171.461 190.029 170.942 190.343L169.668 191.113C169.371 191.293 169.003 191.306 168.694 191.149L166.778 190.174C166.413 189.988 166.4 189.471 166.755 189.267Z" fill="#FBD036"/>
<path d="M169.199 193.822V190.861C169.199 190.835 169.214 190.811 169.238 190.8L171.471 189.754C171.642 189.674 171.839 189.799 171.839 189.988V191.864C171.839 192.226 171.643 192.56 171.328 192.737L169.299 193.881C169.254 193.906 169.199 193.874 169.199 193.822Z" fill="#E4B717"/>
<path d="M166.238 191.782V190.907C166.238 190.162 167.023 189.677 167.689 190.01L169.144 190.737C169.167 190.748 169.181 190.772 169.181 190.797V193.827C169.181 193.877 169.127 193.909 169.083 193.886L166.774 192.669C166.444 192.495 166.238 192.154 166.238 191.782Z" fill="#FBD036"/>
<path d="M168.827 190.849L166.689 189.796C166.6 189.752 166.496 189.817 166.496 189.916V192.261C166.496 192.311 166.525 192.358 166.57 192.38L168.709 193.443C168.798 193.487 168.902 193.422 168.902 193.323V190.968C168.902 190.918 168.873 190.871 168.827 190.849Z" stroke="#FDF5ED" stroke-width="0.668565" stroke-linecap="round"/>
<circle cx="167.608" cy="191.69" r="0.15906" fill="#FFE6CC"/>
<path d="M166.717 191.141L166.723 190.885C166.727 190.743 166.912 190.692 166.988 190.812L167.219 191.181C167.295 191.303 167.165 191.448 167.036 191.386L166.799 191.273C166.748 191.249 166.716 191.197 166.717 191.141Z" fill="#FFF06B"/>
<path d="M167.185 190.844L166.986 190.506C166.913 190.383 167.047 190.24 167.175 190.306L167.314 190.378C167.352 190.397 167.379 190.432 167.389 190.474L167.449 190.74C167.485 190.899 167.268 190.985 167.185 190.844Z" fill="#FFF06B"/>
<path d="M167.688 191.165L167.636 190.771C167.621 190.656 167.741 190.572 167.844 190.625L168.121 190.77C168.205 190.813 168.224 190.923 168.161 190.993L167.936 191.242C167.855 191.333 167.704 191.286 167.688 191.165Z" fill="#FFF06B"/>
<path d="M168.582 191.129L168.535 191.073C168.481 191.01 168.384 191.006 168.325 191.065L168.205 191.184C168.096 191.294 168.214 191.475 168.358 191.419L168.524 191.355C168.617 191.32 168.646 191.204 168.582 191.129Z" fill="#FFF06B"/>
<path d="M168.507 191.538L168.102 191.683C167.985 191.725 167.973 191.885 168.081 191.944L168.495 192.169C168.592 192.221 168.71 192.15 168.707 192.039L168.698 191.67C168.696 191.572 168.599 191.506 168.507 191.538Z" fill="#FFF06B"/>
<path d="M166.735 191.782V191.646C166.735 191.541 166.845 191.471 166.94 191.517L167.09 191.59C167.201 191.643 167.197 191.802 167.084 191.85L166.934 191.914C166.84 191.954 166.735 191.885 166.735 191.782Z" fill="#FFF06B"/>
<path d="M166.977 192.078L167.168 191.978C167.277 191.92 167.403 192.018 167.374 192.138L167.331 192.316C167.31 192.406 167.209 192.452 167.126 192.409L166.978 192.332C166.875 192.279 166.875 192.132 166.977 192.078Z" fill="#FFF06B"/>
<path d="M168.028 192.784L167.837 192.282C167.79 192.157 167.923 192.041 168.04 192.105L168.599 192.41C168.645 192.435 168.673 192.484 168.673 192.536V192.934C168.673 193.043 168.557 193.112 168.461 193.06L168.093 192.859C168.063 192.843 168.04 192.816 168.028 192.784Z" fill="#FFF06B"/>
<path d="M167.739 192.396C167.78 192.52 167.645 192.63 167.532 192.564C167.481 192.534 167.454 192.477 167.462 192.42C167.484 192.271 167.691 192.253 167.739 192.396Z" fill="#FFF06B"/>
<path d="M166.717 191.141L166.723 190.885C166.727 190.743 166.912 190.692 166.988 190.812L167.219 191.181C167.295 191.303 167.165 191.448 167.036 191.386L166.799 191.273C166.748 191.249 166.716 191.197 166.717 191.141Z" stroke="#FEFEFE" stroke-width="0.258041" stroke-linecap="round"/>
<path d="M167.185 190.844L166.986 190.506C166.913 190.383 167.047 190.24 167.175 190.306L167.314 190.378C167.352 190.397 167.379 190.432 167.389 190.474L167.449 190.74C167.485 190.899 167.268 190.985 167.185 190.844Z" stroke="#FEFEFE" stroke-width="0.258041" stroke-linecap="round"/>
<path d="M167.688 191.165L167.636 190.771C167.621 190.656 167.741 190.572 167.844 190.625L168.121 190.77C168.205 190.813 168.224 190.923 168.161 190.993L167.936 191.242C167.855 191.333 167.704 191.286 167.688 191.165Z" stroke="#FEFEFE" stroke-width="0.258041" stroke-linecap="round"/>
<path d="M168.582 191.129L168.535 191.073C168.481 191.01 168.384 191.006 168.325 191.065L168.205 191.184C168.096 191.294 168.214 191.475 168.358 191.419L168.524 191.355C168.617 191.32 168.646 191.204 168.582 191.129Z" stroke="#FEFEFE" stroke-width="0.258041" stroke-linecap="round"/>
<path d="M168.507 191.538L168.102 191.683C167.985 191.725 167.973 191.885 168.081 191.944L168.495 192.169C168.592 192.221 168.71 192.15 168.707 192.039L168.698 191.67C168.696 191.572 168.599 191.506 168.507 191.538Z" stroke="#FEFEFE" stroke-width="0.258041" stroke-linecap="round"/>
<path d="M166.735 191.782V191.646C166.735 191.541 166.845 191.471 166.94 191.517L167.09 191.59C167.201 191.643 167.197 191.802 167.084 191.85L166.934 191.914C166.84 191.954 166.735 191.885 166.735 191.782Z" stroke="#FEFEFE" stroke-width="0.258041" stroke-linecap="round"/>
<path d="M166.977 192.078L167.168 191.978C167.277 191.92 167.403 192.018 167.374 192.138L167.331 192.316C167.31 192.406 167.209 192.452 167.126 192.409L166.978 192.332C166.875 192.279 166.875 192.132 166.977 192.078Z" stroke="#FEFEFE" stroke-width="0.258041" stroke-linecap="round"/>
<path d="M168.028 192.784L167.837 192.282C167.79 192.157 167.923 192.041 168.04 192.105L168.599 192.41C168.645 192.435 168.673 192.484 168.673 192.536V192.934C168.673 193.043 168.557 193.112 168.461 193.06L168.093 192.859C168.063 192.843 168.04 192.816 168.028 192.784Z" stroke="#FEFEFE" stroke-width="0.258041" stroke-linecap="round"/>
<path d="M167.739 192.396C167.78 192.52 167.645 192.63 167.532 192.564C167.481 192.534 167.454 192.477 167.462 192.42C167.484 192.271 167.691 192.253 167.739 192.396Z" stroke="#FEFEFE" stroke-width="0.258041" stroke-linecap="round"/>
<path d="M162.368 196.751L164.094 195.758C164.388 195.588 164.747 195.579 165.049 195.733L166.506 196.475C167.047 196.75 167.075 197.513 166.555 197.827L165.281 198.598C164.984 198.777 164.616 198.791 164.307 198.633L162.392 197.658C162.026 197.472 162.013 196.955 162.368 196.751Z" fill="#FBD036"/>
<path d="M164.816 201.307V198.345C164.816 198.319 164.831 198.296 164.855 198.285L167.088 197.239C167.259 197.158 167.456 197.283 167.456 197.472V199.348C167.456 199.71 167.261 200.044 166.945 200.222L164.916 201.365C164.872 201.39 164.816 201.358 164.816 201.307Z" fill="#E4B717"/>
<path d="M161.852 199.266V198.392C161.852 197.646 162.636 197.161 163.303 197.495L164.757 198.221C164.78 198.233 164.794 198.256 164.794 198.281V201.311C164.794 201.362 164.741 201.394 164.696 201.37L162.387 200.153C162.058 199.98 161.852 199.638 161.852 199.266Z" fill="#FBD036"/>
<path d="M164.44 198.333L162.302 197.28C162.213 197.237 162.109 197.301 162.109 197.4V199.745C162.109 199.796 162.138 199.842 162.184 199.865L164.322 200.927C164.411 200.971 164.515 200.906 164.515 200.807V198.453C164.515 198.402 164.486 198.355 164.44 198.333Z" stroke="#FDF5ED" stroke-width="0.668565" stroke-linecap="round"/>
<circle cx="163.225" cy="199.175" r="0.15906" fill="#FFE6CC"/>
<path d="M162.33 198.625L162.337 198.369C162.34 198.227 162.526 198.176 162.601 198.297L162.832 198.666C162.908 198.787 162.778 198.933 162.649 198.871L162.412 198.758C162.361 198.733 162.329 198.681 162.33 198.625Z" fill="#FFF06B"/>
<path d="M162.799 198.329L162.599 197.991C162.526 197.867 162.66 197.725 162.788 197.79L162.927 197.862C162.965 197.881 162.992 197.916 163.002 197.958L163.062 198.224C163.098 198.384 162.882 198.469 162.799 198.329Z" fill="#FFF06B"/>
<path d="M163.301 198.649L163.249 198.255C163.234 198.14 163.355 198.056 163.457 198.11L163.735 198.254C163.818 198.298 163.838 198.408 163.775 198.477L163.55 198.726C163.468 198.817 163.317 198.77 163.301 198.649Z" fill="#FFF06B"/>
<path d="M164.196 198.613L164.149 198.558C164.094 198.494 163.997 198.49 163.938 198.549L163.819 198.669C163.709 198.778 163.827 198.959 163.971 198.904L164.138 198.84C164.23 198.804 164.259 198.689 164.196 198.613Z" fill="#FFF06B"/>
<path d="M164.12 199.023L163.715 199.167C163.598 199.209 163.586 199.369 163.695 199.428L164.109 199.653C164.205 199.706 164.323 199.634 164.32 199.524L164.311 199.154C164.309 199.057 164.212 198.99 164.12 199.023Z" fill="#FFF06B"/>
<path d="M162.348 199.266V199.131C162.348 199.025 162.458 198.956 162.554 199.002L162.703 199.074C162.814 199.127 162.81 199.287 162.697 199.335L162.547 199.398C162.453 199.438 162.348 199.369 162.348 199.266Z" fill="#FFF06B"/>
<path d="M162.59 199.563L162.781 199.462C162.89 199.404 163.016 199.502 162.988 199.622L162.945 199.8C162.923 199.891 162.822 199.937 162.739 199.894L162.591 199.817C162.488 199.763 162.488 199.617 162.59 199.563Z" fill="#FFF06B"/>
<path d="M163.641 200.269L163.45 199.766C163.403 199.642 163.536 199.526 163.653 199.589L164.212 199.895C164.258 199.92 164.287 199.968 164.287 200.02V200.418C164.287 200.527 164.17 200.596 164.075 200.544L163.707 200.344C163.677 200.327 163.654 200.301 163.641 200.269Z" fill="#FFF06B"/>
<path d="M163.352 199.88C163.393 200.005 163.258 200.114 163.145 200.048C163.095 200.019 163.067 199.962 163.076 199.904C163.098 199.756 163.304 199.738 163.352 199.88Z" fill="#FFF06B"/>
<path d="M162.33 198.625L162.337 198.369C162.34 198.227 162.526 198.176 162.601 198.297L162.832 198.666C162.908 198.787 162.778 198.933 162.649 198.871L162.412 198.758C162.361 198.733 162.329 198.681 162.33 198.625Z" stroke="#FEFEFE" stroke-width="0.258041" stroke-linecap="round"/>
<path d="M162.799 198.329L162.599 197.991C162.526 197.867 162.66 197.725 162.788 197.79L162.927 197.862C162.965 197.881 162.992 197.916 163.002 197.958L163.062 198.224C163.098 198.384 162.882 198.469 162.799 198.329Z" stroke="#FEFEFE" stroke-width="0.258041" stroke-linecap="round"/>
<path d="M163.301 198.649L163.249 198.255C163.234 198.14 163.355 198.056 163.457 198.11L163.735 198.254C163.818 198.298 163.838 198.408 163.775 198.477L163.55 198.726C163.468 198.817 163.317 198.77 163.301 198.649Z" stroke="#FEFEFE" stroke-width="0.258041" stroke-linecap="round"/>
<path d="M164.196 198.613L164.149 198.558C164.094 198.494 163.997 198.49 163.938 198.549L163.819 198.669C163.709 198.778 163.827 198.959 163.971 198.904L164.138 198.84C164.23 198.804 164.259 198.689 164.196 198.613Z" stroke="#FEFEFE" stroke-width="0.258041" stroke-linecap="round"/>
<path d="M164.12 199.023L163.715 199.167C163.598 199.209 163.586 199.369 163.695 199.428L164.109 199.653C164.205 199.706 164.323 199.634 164.32 199.524L164.311 199.154C164.309 199.057 164.212 198.99 164.12 199.023Z" stroke="#FEFEFE" stroke-width="0.258041" stroke-linecap="round"/>
<path d="M162.348 199.266V199.131C162.348 199.025 162.458 198.956 162.554 199.002L162.703 199.074C162.814 199.127 162.81 199.287 162.697 199.335L162.547 199.398C162.453 199.438 162.348 199.369 162.348 199.266Z" stroke="#FEFEFE" stroke-width="0.258041" stroke-linecap="round"/>
<path d="M162.59 199.563L162.781 199.462C162.89 199.404 163.016 199.502 162.988 199.622L162.945 199.8C162.923 199.891 162.822 199.937 162.739 199.894L162.591 199.817C162.488 199.763 162.488 199.617 162.59 199.563Z" stroke="#FEFEFE" stroke-width="0.258041" stroke-linecap="round"/>
<path d="M163.641 200.269L163.45 199.766C163.403 199.642 163.536 199.526 163.653 199.589L164.212 199.895C164.258 199.92 164.287 199.968 164.287 200.02V200.418C164.287 200.527 164.17 200.596 164.075 200.544L163.707 200.344C163.677 200.327 163.654 200.301 163.641 200.269Z" stroke="#FEFEFE" stroke-width="0.258041" stroke-linecap="round"/>
<path d="M163.352 199.88C163.393 200.005 163.258 200.114 163.145 200.048C163.095 200.019 163.067 199.962 163.076 199.904C163.098 199.756 163.304 199.738 163.352 199.88Z" stroke="#FEFEFE" stroke-width="0.258041" stroke-linecap="round"/>
<path d="M187.4 180.751L189.125 179.758C189.419 179.588 189.779 179.579 190.081 179.733L191.537 180.475C192.078 180.75 192.106 181.513 191.586 181.827L190.312 182.598C190.015 182.777 189.647 182.791 189.338 182.633L187.423 181.658C187.058 181.472 187.044 180.955 187.4 180.751Z" fill="#FBD036"/>
<path d="M189.848 185.307V182.345C189.848 182.319 189.863 182.296 189.886 182.285L192.119 181.239C192.291 181.158 192.487 181.283 192.487 181.472V183.348C192.487 183.71 192.292 184.044 191.976 184.222L189.947 185.365C189.903 185.39 189.848 185.358 189.848 185.307Z" fill="#E4B717"/>
<path d="M186.883 183.266V182.392C186.883 181.646 187.667 181.161 188.334 181.495L189.788 182.221C189.811 182.233 189.825 182.256 189.825 182.281V185.311C189.825 185.362 189.772 185.394 189.727 185.37L187.418 184.153C187.089 183.98 186.883 183.638 186.883 183.266Z" fill="#FBD036"/>
<path d="M189.472 182.333L187.333 181.28C187.245 181.237 187.141 181.301 187.141 181.4V183.745C187.141 183.796 187.169 183.842 187.215 183.865L189.353 184.927C189.442 184.971 189.546 184.906 189.546 184.807V182.453C189.546 182.402 189.517 182.355 189.472 182.333Z" stroke="#FDF5ED" stroke-width="0.668565" stroke-linecap="round"/>
<circle cx="188.257" cy="183.175" r="0.15906" fill="#FFE6CC"/>
<path d="M187.362 182.625L187.368 182.369C187.371 182.227 187.557 182.176 187.632 182.297L187.863 182.666C187.939 182.787 187.809 182.933 187.68 182.871L187.443 182.758C187.392 182.733 187.36 182.681 187.362 182.625Z" fill="#FFF06B"/>
<path d="M187.83 182.329L187.631 181.991C187.558 181.867 187.692 181.725 187.819 181.79L187.959 181.862C187.997 181.881 188.024 181.916 188.033 181.958L188.093 182.224C188.129 182.384 187.913 182.469 187.83 182.329Z" fill="#FFF06B"/>
<path d="M188.333 182.649L188.28 182.255C188.265 182.14 188.386 182.056 188.489 182.11L188.766 182.254C188.849 182.298 188.869 182.408 188.806 182.477L188.581 182.726C188.499 182.817 188.349 182.77 188.333 182.649Z" fill="#FFF06B"/>
<path d="M189.227 182.613L189.18 182.558C189.126 182.494 189.028 182.49 188.969 182.549L188.85 182.669C188.741 182.778 188.858 182.959 189.003 182.904L189.169 182.84C189.261 182.804 189.291 182.689 189.227 182.613Z" fill="#FFF06B"/>
<path d="M189.151 183.023L188.746 183.167C188.63 183.209 188.617 183.369 188.726 183.428L189.14 183.653C189.237 183.706 189.354 183.634 189.352 183.524L189.343 183.154C189.34 183.057 189.243 182.99 189.151 183.023Z" fill="#FFF06B"/>
<path d="M187.379 183.266V183.131C187.379 183.025 187.49 182.956 187.585 183.002L187.734 183.074C187.845 183.127 187.841 183.287 187.728 183.335L187.579 183.398C187.484 183.438 187.379 183.369 187.379 183.266Z" fill="#FFF06B"/>
<path d="M187.621 183.563L187.813 183.462C187.922 183.404 188.048 183.502 188.019 183.622L187.976 183.8C187.954 183.891 187.853 183.937 187.771 183.894L187.622 183.817C187.52 183.763 187.519 183.617 187.621 183.563Z" fill="#FFF06B"/>
<path d="M188.673 184.269L188.481 183.766C188.434 183.642 188.567 183.526 188.684 183.589L189.243 183.895C189.289 183.92 189.318 183.968 189.318 184.02V184.418C189.318 184.527 189.201 184.596 189.106 184.544L188.738 184.344C188.708 184.327 188.685 184.301 188.673 184.269Z" fill="#FFF06B"/>
<path d="M188.383 183.88C188.425 184.005 188.29 184.114 188.176 184.048C188.126 184.019 188.098 183.962 188.107 183.904C188.129 183.756 188.336 183.738 188.383 183.88Z" fill="#FFF06B"/>
<path d="M187.362 182.625L187.368 182.369C187.371 182.227 187.557 182.176 187.632 182.297L187.863 182.666C187.939 182.787 187.809 182.933 187.68 182.871L187.443 182.758C187.392 182.733 187.36 182.681 187.362 182.625Z" stroke="#FEFEFE" stroke-width="0.258041" stroke-linecap="round"/>
<path d="M187.83 182.329L187.631 181.991C187.558 181.867 187.692 181.725 187.819 181.79L187.959 181.862C187.997 181.881 188.024 181.916 188.033 181.958L188.093 182.224C188.129 182.384 187.913 182.469 187.83 182.329Z" stroke="#FEFEFE" stroke-width="0.258041" stroke-linecap="round"/>
<path d="M188.333 182.649L188.28 182.255C188.265 182.14 188.386 182.056 188.489 182.11L188.766 182.254C188.849 182.298 188.869 182.408 188.806 182.477L188.581 182.726C188.499 182.817 188.349 182.77 188.333 182.649Z" stroke="#FEFEFE" stroke-width="0.258041" stroke-linecap="round"/>
<path d="M189.227 182.613L189.18 182.558C189.126 182.494 189.028 182.49 188.969 182.549L188.85 182.669C188.741 182.778 188.858 182.959 189.003 182.904L189.169 182.84C189.261 182.804 189.291 182.689 189.227 182.613Z" stroke="#FEFEFE" stroke-width="0.258041" stroke-linecap="round"/>
<path d="M189.151 183.023L188.746 183.167C188.63 183.209 188.617 183.369 188.726 183.428L189.14 183.653C189.237 183.706 189.354 183.634 189.352 183.524L189.343 183.154C189.34 183.057 189.243 182.99 189.151 183.023Z" stroke="#FEFEFE" stroke-width="0.258041" stroke-linecap="round"/>
<path d="M187.379 183.266V183.131C187.379 183.025 187.49 182.956 187.585 183.002L187.734 183.074C187.845 183.127 187.841 183.287 187.728 183.335L187.579 183.398C187.484 183.438 187.379 183.369 187.379 183.266Z" stroke="#FEFEFE" stroke-width="0.258041" stroke-linecap="round"/>
<path d="M187.621 183.563L187.813 183.462C187.922 183.404 188.048 183.502 188.019 183.622L187.976 183.8C187.954 183.891 187.853 183.937 187.771 183.894L187.622 183.817C187.52 183.763 187.519 183.617 187.621 183.563Z" stroke="#FEFEFE" stroke-width="0.258041" stroke-linecap="round"/>
<path d="M188.673 184.269L188.481 183.766C188.434 183.642 188.567 183.526 188.684 183.589L189.243 183.895C189.289 183.92 189.318 183.968 189.318 184.02V184.418C189.318 184.527 189.201 184.596 189.106 184.544L188.738 184.344C188.708 184.327 188.685 184.301 188.673 184.269Z" stroke="#FEFEFE" stroke-width="0.258041" stroke-linecap="round"/>
<path d="M188.383 183.88C188.425 184.005 188.29 184.114 188.176 184.048C188.126 184.019 188.098 183.962 188.107 183.904C188.129 183.756 188.336 183.738 188.383 183.88Z" stroke="#FEFEFE" stroke-width="0.258041" stroke-linecap="round"/>
<path d="M187.4 191.073L189.125 190.08C189.419 189.911 189.779 189.901 190.081 190.055L191.537 190.797C192.078 191.073 192.106 191.835 191.586 192.149L190.312 192.92C190.015 193.099 189.647 193.113 189.338 192.956L187.423 191.98C187.058 191.794 187.044 191.278 187.4 191.073Z" fill="#FBD036"/>
<path d="M189.848 195.629V192.668C189.848 192.642 189.863 192.618 189.886 192.607L192.119 191.561C192.291 191.481 192.487 191.606 192.487 191.794V193.67C192.487 194.032 192.292 194.366 191.976 194.544L189.947 195.687C189.903 195.712 189.848 195.68 189.848 195.629Z" fill="#E4B717"/>
<path d="M186.883 193.588V192.714C186.883 191.969 187.667 191.484 188.334 191.817L189.788 192.544C189.811 192.555 189.825 192.578 189.825 192.604V195.634C189.825 195.684 189.772 195.716 189.727 195.693L187.418 194.476C187.089 194.302 186.883 193.961 186.883 193.588Z" fill="#FBD036"/>
<path d="M189.472 192.655L187.333 191.603C187.245 191.559 187.141 191.624 187.141 191.723V194.067C187.141 194.118 187.169 194.164 187.215 194.187L189.353 195.249C189.442 195.293 189.546 195.229 189.546 195.129V192.775C189.546 192.724 189.517 192.678 189.472 192.655Z" stroke="#FDF5ED" stroke-width="0.668565" stroke-linecap="round"/>
<circle cx="188.257" cy="193.497" r="0.15906" fill="#FFE6CC"/>
<path d="M187.362 192.947L187.368 192.692C187.371 192.55 187.557 192.499 187.632 192.619L187.863 192.988C187.939 193.109 187.809 193.255 187.68 193.193L187.443 193.08C187.392 193.056 187.36 193.004 187.362 192.947Z" fill="#FFF06B"/>
<path d="M187.83 192.651L187.631 192.313C187.558 192.189 187.692 192.047 187.819 192.113L187.959 192.184C187.997 192.204 188.024 192.239 188.033 192.28L188.093 192.547C188.129 192.706 187.913 192.792 187.83 192.651Z" fill="#FFF06B"/>
<path d="M188.333 192.971L188.28 192.578C188.265 192.463 188.386 192.378 188.489 192.432L188.766 192.576C188.849 192.62 188.869 192.73 188.806 192.8L188.581 193.049C188.499 193.139 188.349 193.093 188.333 192.971Z" fill="#FFF06B"/>
<path d="M189.227 192.936L189.18 192.88C189.126 192.816 189.028 192.812 188.969 192.871L188.85 192.991C188.741 193.1 188.858 193.281 189.003 193.226L189.169 193.162C189.261 193.127 189.291 193.011 189.227 192.936Z" fill="#FFF06B"/>
<path d="M189.151 193.345L188.746 193.49C188.63 193.531 188.617 193.691 188.726 193.75L189.14 193.975C189.237 194.028 189.354 193.956 189.352 193.846L189.343 193.477C189.34 193.379 189.243 193.312 189.151 193.345Z" fill="#FFF06B"/>
<path d="M187.379 193.589V193.453C187.379 193.347 187.49 193.278 187.585 193.324L187.734 193.396C187.845 193.45 187.841 193.609 187.728 193.657L187.579 193.721C187.484 193.761 187.379 193.691 187.379 193.589Z" fill="#FFF06B"/>
<path d="M187.621 193.885L187.813 193.784C187.922 193.727 188.048 193.825 188.019 193.944L187.976 194.122C187.954 194.213 187.853 194.259 187.771 194.216L187.622 194.139C187.52 194.086 187.519 193.939 187.621 193.885Z" fill="#FFF06B"/>
<path d="M188.673 194.591L188.481 194.088C188.434 193.964 188.567 193.848 188.684 193.912L189.243 194.217C189.289 194.242 189.318 194.29 189.318 194.343V194.741C189.318 194.849 189.201 194.919 189.106 194.866L188.738 194.666C188.708 194.649 188.685 194.623 188.673 194.591Z" fill="#FFF06B"/>
<path d="M188.383 194.202C188.425 194.327 188.29 194.436 188.176 194.37C188.126 194.341 188.098 194.284 188.107 194.226C188.129 194.078 188.336 194.06 188.383 194.202Z" fill="#FFF06B"/>
<path d="M187.362 192.947L187.368 192.692C187.371 192.55 187.557 192.499 187.632 192.619L187.863 192.988C187.939 193.109 187.809 193.255 187.68 193.193L187.443 193.08C187.392 193.056 187.36 193.004 187.362 192.947Z" stroke="#FEFEFE" stroke-width="0.258041" stroke-linecap="round"/>
<path d="M187.83 192.651L187.631 192.313C187.558 192.189 187.692 192.047 187.819 192.113L187.959 192.184C187.997 192.204 188.024 192.239 188.033 192.28L188.093 192.547C188.129 192.706 187.913 192.792 187.83 192.651Z" stroke="#FEFEFE" stroke-width="0.258041" stroke-linecap="round"/>
<path d="M188.333 192.971L188.28 192.578C188.265 192.463 188.386 192.378 188.489 192.432L188.766 192.576C188.849 192.62 188.869 192.73 188.806 192.8L188.581 193.049C188.499 193.139 188.349 193.093 188.333 192.971Z" stroke="#FEFEFE" stroke-width="0.258041" stroke-linecap="round"/>
<path d="M189.227 192.936L189.18 192.88C189.126 192.816 189.028 192.812 188.969 192.871L188.85 192.991C188.741 193.1 188.858 193.281 189.003 193.226L189.169 193.162C189.261 193.127 189.291 193.011 189.227 192.936Z" stroke="#FEFEFE" stroke-width="0.258041" stroke-linecap="round"/>
<path d="M189.151 193.345L188.746 193.49C188.63 193.531 188.617 193.691 188.726 193.75L189.14 193.975C189.237 194.028 189.354 193.956 189.352 193.846L189.343 193.477C189.34 193.379 189.243 193.312 189.151 193.345Z" stroke="#FEFEFE" stroke-width="0.258041" stroke-linecap="round"/>
<path d="M187.379 193.589V193.453C187.379 193.347 187.49 193.278 187.585 193.324L187.734 193.396C187.845 193.45 187.841 193.609 187.728 193.657L187.579 193.721C187.484 193.761 187.379 193.691 187.379 193.589Z" stroke="#FEFEFE" stroke-width="0.258041" stroke-linecap="round"/>
<path d="M187.621 193.885L187.813 193.784C187.922 193.727 188.048 193.825 188.019 193.944L187.976 194.122C187.954 194.213 187.853 194.259 187.771 194.216L187.622 194.139C187.52 194.086 187.519 193.939 187.621 193.885Z" stroke="#FEFEFE" stroke-width="0.258041" stroke-linecap="round"/>
<path d="M188.673 194.591L188.481 194.088C188.434 193.964 188.567 193.848 188.684 193.912L189.243 194.217C189.289 194.242 189.318 194.29 189.318 194.343V194.741C189.318 194.849 189.201 194.919 189.106 194.866L188.738 194.666C188.708 194.649 188.685 194.623 188.673 194.591Z" stroke="#FEFEFE" stroke-width="0.258041" stroke-linecap="round"/>
<path d="M188.383 194.202C188.425 194.327 188.29 194.436 188.176 194.37C188.126 194.341 188.098 194.284 188.107 194.226C188.129 194.078 188.336 194.06 188.383 194.202Z" stroke="#FEFEFE" stroke-width="0.258041" stroke-linecap="round"/>
<path d="M181.72 202.425L183.446 201.431C183.739 201.262 184.099 201.253 184.401 201.407L185.857 202.149C186.398 202.424 186.426 203.187 185.907 203.501L184.632 204.272C184.336 204.451 183.967 204.464 183.658 204.307L181.743 203.332C181.378 203.146 181.365 202.629 181.72 202.425Z" fill="#FBD036"/>
<path d="M184.168 206.981V204.019C184.168 203.993 184.183 203.97 184.206 203.959L186.44 202.912C186.611 202.832 186.807 202.957 186.807 203.146V205.022C186.807 205.384 186.612 205.718 186.297 205.896L184.268 207.039C184.223 207.064 184.168 207.032 184.168 206.981Z" fill="#E4B717"/>
<path d="M181.207 204.94V204.066C181.207 203.32 181.991 202.835 182.658 203.168L184.113 203.895C184.135 203.907 184.15 203.93 184.15 203.955V206.985C184.15 207.035 184.096 207.068 184.052 207.044L181.742 205.827C181.413 205.654 181.207 205.312 181.207 204.94Z" fill="#FBD036"/>
<path d="M183.796 204.007L181.658 202.954C181.569 202.911 181.465 202.975 181.465 203.074V205.419C181.465 205.47 181.494 205.516 181.539 205.539L183.677 206.601C183.766 206.645 183.871 206.58 183.871 206.481V204.127C183.871 204.076 183.842 204.029 183.796 204.007Z" stroke="#FDF5ED" stroke-width="0.668565" stroke-linecap="round"/>
<circle cx="182.577" cy="204.849" r="0.15906" fill="#FFE6CC"/>
<path d="M181.686 204.299L181.692 204.043C181.695 203.901 181.881 203.85 181.957 203.971L182.187 204.339C182.264 204.461 182.134 204.607 182.004 204.545L181.767 204.431C181.716 204.407 181.684 204.355 181.686 204.299Z" fill="#FFF06B"/>
<path d="M182.154 204.003L181.955 203.664C181.882 203.541 182.016 203.399 182.144 203.464L182.283 203.536C182.321 203.555 182.348 203.59 182.357 203.632L182.417 203.898C182.453 204.058 182.237 204.143 182.154 204.003Z" fill="#FFF06B"/>
<path d="M182.657 204.323L182.605 203.929C182.589 203.814 182.71 203.73 182.813 203.783L183.09 203.928C183.173 203.971 183.193 204.082 183.13 204.151L182.905 204.4C182.823 204.491 182.673 204.444 182.657 204.323Z" fill="#FFF06B"/>
<path d="M183.551 204.287L183.504 204.232C183.45 204.168 183.353 204.164 183.293 204.223L183.174 204.342C183.065 204.452 183.182 204.633 183.327 204.577L183.493 204.514C183.585 204.478 183.615 204.362 183.551 204.287Z" fill="#FFF06B"/>
<path d="M183.475 204.697L183.07 204.841C182.954 204.883 182.941 205.043 183.05 205.102L183.464 205.327C183.561 205.38 183.678 205.308 183.676 205.198L183.667 204.828C183.664 204.731 183.567 204.664 183.475 204.697Z" fill="#FFF06B"/>
<path d="M181.703 204.94V204.804C181.703 204.699 181.814 204.629 181.909 204.675L182.059 204.748C182.169 204.801 182.166 204.96 182.052 205.009L181.903 205.072C181.808 205.112 181.703 205.043 181.703 204.94Z" fill="#FFF06B"/>
<path d="M181.946 205.237L182.137 205.136C182.246 205.078 182.372 205.176 182.343 205.296L182.3 205.474C182.278 205.564 182.177 205.61 182.095 205.568L181.946 205.49C181.844 205.437 181.843 205.291 181.946 205.237Z" fill="#FFF06B"/>
<path d="M182.997 205.943L182.806 205.44C182.758 205.316 182.891 205.2 183.008 205.263L183.567 205.569C183.613 205.594 183.642 205.642 183.642 205.694V206.092C183.642 206.201 183.526 206.27 183.43 206.218L183.062 206.017C183.032 206.001 183.009 205.974 182.997 205.943Z" fill="#FFF06B"/>
<path d="M182.707 205.554C182.749 205.678 182.614 205.788 182.5 205.722C182.45 205.692 182.423 205.635 182.431 205.578C182.453 205.43 182.66 205.412 182.707 205.554Z" fill="#FFF06B"/>
<path d="M181.686 204.299L181.692 204.043C181.695 203.901 181.881 203.85 181.957 203.971L182.187 204.339C182.264 204.461 182.134 204.607 182.004 204.545L181.767 204.431C181.716 204.407 181.684 204.355 181.686 204.299Z" stroke="#FEFEFE" stroke-width="0.258041" stroke-linecap="round"/>
<path d="M182.154 204.003L181.955 203.664C181.882 203.541 182.016 203.399 182.144 203.464L182.283 203.536C182.321 203.555 182.348 203.59 182.357 203.632L182.417 203.898C182.453 204.058 182.237 204.143 182.154 204.003Z" stroke="#FEFEFE" stroke-width="0.258041" stroke-linecap="round"/>
<path d="M182.657 204.323L182.605 203.929C182.589 203.814 182.71 203.73 182.813 203.783L183.09 203.928C183.173 203.971 183.193 204.082 183.13 204.151L182.905 204.4C182.823 204.491 182.673 204.444 182.657 204.323Z" stroke="#FEFEFE" stroke-width="0.258041" stroke-linecap="round"/>
<path d="M183.551 204.287L183.504 204.232C183.45 204.168 183.353 204.164 183.293 204.223L183.174 204.342C183.065 204.452 183.182 204.633 183.327 204.577L183.493 204.514C183.585 204.478 183.615 204.362 183.551 204.287Z" stroke="#FEFEFE" stroke-width="0.258041" stroke-linecap="round"/>
<path d="M183.475 204.697L183.07 204.841C182.954 204.883 182.941 205.043 183.05 205.102L183.464 205.327C183.561 205.38 183.678 205.308 183.676 205.198L183.667 204.828C183.664 204.731 183.567 204.664 183.475 204.697Z" stroke="#FEFEFE" stroke-width="0.258041" stroke-linecap="round"/>
<path d="M181.703 204.94V204.804C181.703 204.699 181.814 204.629 181.909 204.675L182.059 204.748C182.169 204.801 182.166 204.96 182.052 205.009L181.903 205.072C181.808 205.112 181.703 205.043 181.703 204.94Z" stroke="#FEFEFE" stroke-width="0.258041" stroke-linecap="round"/>
<path d="M181.946 205.237L182.137 205.136C182.246 205.078 182.372 205.176 182.343 205.296L182.3 205.474C182.278 205.564 182.177 205.61 182.095 205.568L181.946 205.49C181.844 205.437 181.843 205.291 181.946 205.237Z" stroke="#FEFEFE" stroke-width="0.258041" stroke-linecap="round"/>
<path d="M182.997 205.943L182.806 205.44C182.758 205.316 182.891 205.2 183.008 205.263L183.567 205.569C183.613 205.594 183.642 205.642 183.642 205.694V206.092C183.642 206.201 183.526 206.27 183.43 206.218L183.062 206.017C183.032 206.001 183.009 205.974 182.997 205.943Z" stroke="#FEFEFE" stroke-width="0.258041" stroke-linecap="round"/>
<path d="M182.707 205.554C182.749 205.678 182.614 205.788 182.5 205.722C182.45 205.692 182.423 205.635 182.431 205.578C182.453 205.43 182.66 205.412 182.707 205.554Z" stroke="#FEFEFE" stroke-width="0.258041" stroke-linecap="round"/>
<path d="M182.01 206.983C181.213 206.65 180.479 205.987 179.863 205.031C179.863 205.031 180.768 206.034 182.01 206.983C183.539 207.623 185.302 207.055 186.915 205.031C186.915 205.031 189.627 206.881 186.915 208.361C185.441 209.165 183.487 208.112 182.01 206.983Z" fill="black" fill-opacity="0.26"/>
<path d="M159.561 211.886C158.764 211.552 158.03 210.89 157.414 209.934C157.414 209.934 158.319 210.937 159.561 211.886C161.09 212.526 162.853 211.957 164.466 209.934C164.466 209.934 167.178 211.783 164.466 213.263C162.992 214.067 161.038 213.015 159.561 211.886Z" fill="black" fill-opacity="0.26"/>
<path d="M158.653 236.002C157.906 235.692 157.218 235.077 156.641 234.189C156.641 234.189 157.489 235.121 158.653 236.002C160.087 236.596 161.739 236.068 163.252 234.189C163.252 234.189 165.795 235.907 163.252 237.281C161.87 238.028 160.038 237.051 158.653 236.002Z" fill="black" fill-opacity="0.26"/>
<path d="M159.013 207.587L160.739 206.593C161.032 206.424 161.392 206.415 161.694 206.569L163.15 207.311C163.691 207.586 163.719 208.349 163.2 208.663L161.925 209.434C161.629 209.613 161.26 209.627 160.951 209.469L159.036 208.494C158.671 208.308 158.658 207.791 159.013 207.587Z" fill="#FBD036"/>
<path d="M161.457 212.143V209.181C161.457 209.155 161.472 209.132 161.496 209.121L163.729 208.074C163.9 207.994 164.096 208.119 164.096 208.308V210.184C164.096 210.546 163.901 210.88 163.586 211.058L161.557 212.201C161.512 212.226 161.457 212.194 161.457 212.143Z" fill="#E4B717"/>
<path d="M158.496 210.102V209.228C158.496 208.482 159.28 207.997 159.947 208.331L161.402 209.057C161.424 209.069 161.439 209.092 161.439 209.117V212.147C161.439 212.198 161.385 212.23 161.341 212.206L159.031 210.989C158.702 210.816 158.496 210.474 158.496 210.102Z" fill="#FBD036"/>
<path d="M161.085 209.169L158.947 208.116C158.858 208.073 158.754 208.137 158.754 208.236V210.581C158.754 210.632 158.783 210.678 158.828 210.701L160.966 211.763C161.055 211.807 161.16 211.742 161.16 211.643V209.289C161.16 209.238 161.131 209.191 161.085 209.169Z" stroke="#FDF5ED" stroke-width="0.668565" stroke-linecap="round"/>
<circle cx="159.866" cy="210.011" r="0.15906" fill="#FFE6CC"/>
<path d="M158.975 209.461L158.981 209.205C158.984 209.063 159.17 209.012 159.246 209.133L159.477 209.502C159.553 209.623 159.423 209.769 159.293 209.707L159.056 209.594C159.005 209.569 158.974 209.517 158.975 209.461Z" fill="#FFF06B"/>
<path d="M159.443 209.165L159.244 208.827C159.171 208.703 159.305 208.561 159.433 208.626L159.572 208.698C159.61 208.717 159.637 208.752 159.646 208.794L159.706 209.06C159.742 209.22 159.526 209.305 159.443 209.165Z" fill="#FFF06B"/>
<path d="M159.946 209.485L159.894 209.091C159.878 208.976 159.999 208.892 160.102 208.946L160.379 209.09C160.462 209.134 160.482 209.244 160.419 209.313L160.194 209.562C160.112 209.653 159.962 209.606 159.946 209.485Z" fill="#FFF06B"/>
<path d="M160.84 209.449L160.793 209.394C160.739 209.33 160.642 209.326 160.583 209.385L160.463 209.504C160.354 209.614 160.471 209.795 160.616 209.74L160.782 209.676C160.874 209.64 160.904 209.525 160.84 209.449Z" fill="#FFF06B"/>
<path d="M160.764 209.859L160.36 210.003C160.243 210.045 160.23 210.205 160.339 210.264L160.753 210.489C160.85 210.542 160.967 210.47 160.965 210.36L160.956 209.99C160.953 209.893 160.856 209.826 160.764 209.859Z" fill="#FFF06B"/>
<path d="M158.993 210.102V209.967C158.993 209.861 159.103 209.792 159.198 209.838L159.348 209.91C159.458 209.963 159.455 210.122 159.341 210.171L159.192 210.234C159.097 210.274 158.993 210.205 158.993 210.102Z" fill="#FFF06B"/>
<path d="M159.235 210.399L159.426 210.298C159.535 210.24 159.661 210.338 159.632 210.458L159.589 210.636C159.567 210.726 159.467 210.773 159.384 210.73L159.236 210.653C159.133 210.599 159.132 210.453 159.235 210.399Z" fill="#FFF06B"/>
<path d="M160.286 211.105L160.095 210.602C160.047 210.478 160.181 210.362 160.297 210.425L160.856 210.731C160.902 210.756 160.931 210.804 160.931 210.856V211.254C160.931 211.363 160.815 211.432 160.719 211.38L160.351 211.179C160.321 211.163 160.298 211.137 160.286 211.105Z" fill="#FFF06B"/>
<path d="M159.996 210.716C160.038 210.841 159.903 210.95 159.789 210.884C159.739 210.855 159.712 210.798 159.72 210.74C159.742 210.592 159.949 210.574 159.996 210.716Z" fill="#FFF06B"/>
<path d="M158.975 209.461L158.981 209.205C158.984 209.063 159.17 209.012 159.246 209.133L159.477 209.502C159.553 209.623 159.423 209.769 159.293 209.707L159.056 209.594C159.005 209.569 158.974 209.517 158.975 209.461Z" stroke="#FEFEFE" stroke-width="0.258041" stroke-linecap="round"/>
<path d="M159.443 209.165L159.244 208.827C159.171 208.703 159.305 208.561 159.433 208.626L159.572 208.698C159.61 208.717 159.637 208.752 159.646 208.794L159.706 209.06C159.742 209.22 159.526 209.305 159.443 209.165Z" stroke="#FEFEFE" stroke-width="0.258041" stroke-linecap="round"/>
<path d="M159.946 209.485L159.894 209.091C159.878 208.976 159.999 208.892 160.102 208.946L160.379 209.09C160.462 209.134 160.482 209.244 160.419 209.313L160.194 209.562C160.112 209.653 159.962 209.606 159.946 209.485Z" stroke="#FEFEFE" stroke-width="0.258041" stroke-linecap="round"/>
<path d="M160.84 209.449L160.793 209.394C160.739 209.33 160.642 209.326 160.583 209.385L160.463 209.504C160.354 209.614 160.471 209.795 160.616 209.74L160.782 209.676C160.874 209.64 160.904 209.525 160.84 209.449Z" stroke="#FEFEFE" stroke-width="0.258041" stroke-linecap="round"/>
<path d="M160.764 209.859L160.36 210.003C160.243 210.045 160.23 210.205 160.339 210.264L160.753 210.489C160.85 210.542 160.967 210.47 160.965 210.36L160.956 209.99C160.953 209.893 160.856 209.826 160.764 209.859Z" stroke="#FEFEFE" stroke-width="0.258041" stroke-linecap="round"/>
<path d="M158.993 210.102V209.967C158.993 209.861 159.103 209.792 159.198 209.838L159.348 209.91C159.458 209.963 159.455 210.122 159.341 210.171L159.192 210.234C159.097 210.274 158.993 210.205 158.993 210.102Z" stroke="#FEFEFE" stroke-width="0.258041" stroke-linecap="round"/>
<path d="M159.235 210.399L159.426 210.298C159.535 210.24 159.661 210.338 159.632 210.458L159.589 210.636C159.567 210.726 159.467 210.773 159.384 210.73L159.236 210.653C159.133 210.599 159.132 210.453 159.235 210.399Z" stroke="#FEFEFE" stroke-width="0.258041" stroke-linecap="round"/>
<path d="M160.286 211.105L160.095 210.602C160.047 210.478 160.181 210.362 160.297 210.425L160.856 210.731C160.902 210.756 160.931 210.804 160.931 210.856V211.254C160.931 211.363 160.815 211.432 160.719 211.38L160.351 211.179C160.321 211.163 160.298 211.137 160.286 211.105Z" stroke="#FEFEFE" stroke-width="0.258041" stroke-linecap="round"/>
<path d="M159.996 210.716C160.038 210.841 159.903 210.95 159.789 210.884C159.739 210.855 159.712 210.798 159.72 210.74C159.742 210.592 159.949 210.574 159.996 210.716Z" stroke="#FEFEFE" stroke-width="0.258041" stroke-linecap="round"/>
<path d="M157.982 231.843L159.707 230.849C160.001 230.68 160.361 230.671 160.663 230.825L162.119 231.567C162.66 231.842 162.688 232.605 162.168 232.919L160.894 233.69C160.597 233.869 160.229 233.882 159.92 233.725L158.005 232.75C157.64 232.564 157.626 232.047 157.982 231.843Z" fill="#FBD036"/>
<path d="M160.426 236.399V233.437C160.426 233.411 160.441 233.388 160.464 233.377L162.698 232.33C162.869 232.25 163.065 232.375 163.065 232.564V234.44C163.065 234.802 162.87 235.136 162.555 235.313L160.525 236.457C160.481 236.482 160.426 236.45 160.426 236.399Z" fill="#E4B717"/>
<path d="M157.465 234.358V233.484C157.465 232.738 158.249 232.253 158.916 232.586L160.37 233.313C160.393 233.325 160.407 233.348 160.407 233.373V236.403C160.407 236.453 160.354 236.486 160.309 236.462L158 235.245C157.671 235.072 157.465 234.73 157.465 234.358Z" fill="#FBD036"/>
<path d="M160.054 233.425L157.915 232.372C157.827 232.328 157.723 232.393 157.723 232.492V234.837C157.723 234.888 157.751 234.934 157.797 234.956L159.935 236.019C160.024 236.063 160.128 235.998 160.128 235.899V233.545C160.128 233.494 160.099 233.447 160.054 233.425Z" stroke="#FDF5ED" stroke-width="0.668565" stroke-linecap="round"/>
<circle cx="158.835" cy="234.266" r="0.15906" fill="#FFE6CC"/>
<path d="M157.944 233.717L157.95 233.461C157.953 233.319 158.139 233.268 158.214 233.389L158.445 233.757C158.521 233.879 158.392 234.024 158.262 233.963L158.025 233.849C157.974 233.825 157.942 233.773 157.944 233.717Z" fill="#FFF06B"/>
<path d="M158.412 233.42L158.213 233.082C158.14 232.959 158.274 232.817 158.401 232.882L158.541 232.954C158.579 232.973 158.606 233.008 158.615 233.05L158.675 233.316C158.711 233.476 158.495 233.561 158.412 233.42Z" fill="#FFF06B"/>
<path d="M158.915 233.741L158.862 233.347C158.847 233.232 158.968 233.148 159.071 233.201L159.348 233.346C159.431 233.389 159.451 233.5 159.388 233.569L159.163 233.818C159.081 233.909 158.931 233.862 158.915 233.741Z" fill="#FFF06B"/>
<path d="M159.809 233.705L159.762 233.65C159.708 233.586 159.611 233.582 159.551 233.641L159.432 233.76C159.323 233.87 159.44 234.051 159.585 233.995L159.751 233.932C159.843 233.896 159.873 233.78 159.809 233.705Z" fill="#FFF06B"/>
<path d="M159.733 234.115L159.328 234.259C159.212 234.301 159.199 234.461 159.308 234.52L159.722 234.745C159.819 234.798 159.936 234.726 159.934 234.616L159.925 234.246C159.922 234.148 159.825 234.082 159.733 234.115Z" fill="#FFF06B"/>
<path d="M157.961 234.358V234.222C157.961 234.117 158.072 234.047 158.167 234.093L158.316 234.166C158.427 234.219 158.423 234.378 158.31 234.426L158.161 234.49C158.066 234.53 157.961 234.461 157.961 234.358Z" fill="#FFF06B"/>
<path d="M158.203 234.655L158.395 234.554C158.504 234.496 158.63 234.594 158.601 234.714L158.558 234.892C158.536 234.982 158.435 235.028 158.353 234.985L158.204 234.908C158.102 234.855 158.101 234.708 158.203 234.655Z" fill="#FFF06B"/>
<path d="M159.255 235.36L159.064 234.858C159.016 234.734 159.149 234.617 159.266 234.681L159.825 234.987C159.871 235.012 159.9 235.06 159.9 235.112V235.51C159.9 235.619 159.783 235.688 159.688 235.636L159.32 235.435C159.29 235.419 159.267 235.392 159.255 235.36Z" fill="#FFF06B"/>
<path d="M158.965 234.972C159.007 235.096 158.872 235.206 158.758 235.14C158.708 235.11 158.681 235.053 158.689 234.996C158.711 234.848 158.918 234.83 158.965 234.972Z" fill="#FFF06B"/>
<path d="M157.944 233.717L157.95 233.461C157.953 233.319 158.139 233.268 158.214 233.389L158.445 233.757C158.521 233.879 158.392 234.024 158.262 233.963L158.025 233.849C157.974 233.825 157.942 233.773 157.944 233.717Z" stroke="#FEFEFE" stroke-width="0.258041" stroke-linecap="round"/>
<path d="M158.412 233.42L158.213 233.082C158.14 232.959 158.274 232.817 158.401 232.882L158.541 232.954C158.579 232.973 158.606 233.008 158.615 233.05L158.675 233.316C158.711 233.476 158.495 233.561 158.412 233.42Z" stroke="#FEFEFE" stroke-width="0.258041" stroke-linecap="round"/>
<path d="M158.915 233.741L158.862 233.347C158.847 233.232 158.968 233.148 159.071 233.201L159.348 233.346C159.431 233.389 159.451 233.5 159.388 233.569L159.163 233.818C159.081 233.909 158.931 233.862 158.915 233.741Z" stroke="#FEFEFE" stroke-width="0.258041" stroke-linecap="round"/>
<path d="M159.809 233.705L159.762 233.65C159.708 233.586 159.611 233.582 159.551 233.641L159.432 233.76C159.323 233.87 159.44 234.051 159.585 233.995L159.751 233.932C159.843 233.896 159.873 233.78 159.809 233.705Z" stroke="#FEFEFE" stroke-width="0.258041" stroke-linecap="round"/>
<path d="M159.733 234.115L159.328 234.259C159.212 234.301 159.199 234.461 159.308 234.52L159.722 234.745C159.819 234.798 159.936 234.726 159.934 234.616L159.925 234.246C159.922 234.148 159.825 234.082 159.733 234.115Z" stroke="#FEFEFE" stroke-width="0.258041" stroke-linecap="round"/>
<path d="M157.961 234.358V234.222C157.961 234.117 158.072 234.047 158.167 234.093L158.316 234.166C158.427 234.219 158.423 234.378 158.31 234.426L158.161 234.49C158.066 234.53 157.961 234.461 157.961 234.358Z" stroke="#FEFEFE" stroke-width="0.258041" stroke-linecap="round"/>
<path d="M158.203 234.655L158.395 234.554C158.504 234.496 158.63 234.594 158.601 234.714L158.558 234.892C158.536 234.982 158.435 235.028 158.353 234.985L158.204 234.908C158.102 234.855 158.101 234.708 158.203 234.655Z" stroke="#FEFEFE" stroke-width="0.258041" stroke-linecap="round"/>
<path d="M159.255 235.36L159.064 234.858C159.016 234.734 159.149 234.617 159.266 234.681L159.825 234.987C159.871 235.012 159.9 235.06 159.9 235.112V235.51C159.9 235.619 159.783 235.688 159.688 235.636L159.32 235.435C159.29 235.419 159.267 235.392 159.255 235.36Z" stroke="#FEFEFE" stroke-width="0.258041" stroke-linecap="round"/>
<path d="M158.965 234.972C159.007 235.096 158.872 235.206 158.758 235.14C158.708 235.11 158.681 235.053 158.689 234.996C158.711 234.848 158.918 234.83 158.965 234.972Z" stroke="#FEFEFE" stroke-width="0.258041" stroke-linecap="round"/>
<ellipse cx="144.574" cy="229.937" rx="48.7078" ry="7.28361" transform="rotate(27.8962 144.574 229.937)" fill="black" fill-opacity="0.25"/>
<path d="M100.457 174.391H110.771V206.091C110.771 208.097 109.609 209.92 107.791 210.767C106.411 211.409 104.817 211.409 103.437 210.767C101.619 209.92 100.457 208.097 100.457 206.091V174.391Z" fill="#A07A2F"/>
<path d="M104.97 109.926L129.183 175.621C130.038 177.941 128.775 180.506 126.414 181.242C112.449 185.596 97.4899 185.596 83.5254 181.242C81.1641 180.506 79.901 177.941 80.7564 175.621L104.97 109.926Z" fill="#688005"/>
<path d="M104.969 91.875L127.048 158.435C127.673 160.321 126.667 162.36 124.789 163.011C111.95 167.459 97.9881 167.459 85.1491 163.011C83.2711 162.36 82.2647 160.321 82.8904 158.435L104.969 91.875Z" fill="#799602"/>
<path d="M104.968 91.875L123.558 139.206C124.307 141.113 123.258 143.252 121.291 143.828C110.633 146.947 99.3041 146.947 88.6456 143.828C86.6788 143.252 85.6298 141.113 86.3789 139.206L104.968 91.875Z" fill="#88A900"/>
<defs>
<radialGradient id="paint0_radial_127_110" cx="0" cy="0" r="1" gradientUnits="userSpaceOnUse" gradientTransform="translate(188.5 188.5) rotate(-90) scale(188.5)">
<stop stop-color="#FFD12E" stop-opacity="0.3"/>
<stop offset="1" stop-color="#C4C4C4" stop-opacity="0"/>
</radialGradient>
<linearGradient id="paint1_linear_127_110" x1="80.2912" y1="75.0782" x2="-40.6176" y2="25.0859" gradientUnits="userSpaceOnUse">
<stop stop-color="#6AB92B"/>
<stop offset="1" stop-color="#6AB92B" stop-opacity="0"/>
</linearGradient>
</defs>
</svg>
