<?xml version="1.0" standalone="no"?>
<!DOCTYPE svg PUBLIC "-//W3C//DTD SVG 20010904//EN"
 "http://www.w3.org/TR/2001/REC-SVG-20010904/DTD/svg10.dtd">
<svg version="1.0" xmlns="http://www.w3.org/2000/svg"
 width="940.000000pt" height="940.000000pt" viewBox="0 0 940.000000 940.000000"
 preserveAspectRatio="xMidYMid meet">
<metadata>
Created by potrace 1.14, written by Peter Selinger 2001-2017
</metadata>
<g transform="translate(0.000000,940.000000) scale(0.100000,-0.100000)"
fill="#000000" stroke="none">
<path d="M6299 9395 c-2 -1 -42 -6 -89 -9 -47 -3 -96 -8 -110 -10 -14 -3 -45
-7 -70 -10 -25 -4 -58 -9 -75 -12 -16 -2 -40 -7 -52 -9 -13 -2 -58 -11 -100
-19 -93 -18 -128 -25 -168 -33 -86 -15 -400 -133 -445 -167 -8 -6 -31 -20 -50
-30 -82 -45 -177 -120 -304 -242 -6 -6 -22 -25 -36 -43 -14 -18 -30 -38 -37
-45 -52 -56 -192 -312 -193 -351 0 -3 -6 -18 -13 -33 -8 -15 -18 -45 -22 -67
-4 -22 -10 -44 -13 -50 -3 -5 -7 -16 -8 -25 -1 -8 -5 -27 -8 -42 -15 -71 -18
-85 -21 -113 -6 -41 -95 -486 -101 -505 -4 -12 -10 -10 -25 10 -100 124 -306
335 -358 366 -17 10 -31 22 -31 26 0 4 -6 8 -13 8 -7 0 -20 9 -30 20 -9 11
-23 20 -30 20 -7 0 -22 8 -33 18 -38 35 -274 145 -336 157 -9 2 -26 9 -37 15
-12 6 -21 9 -21 6 0 -3 -15 0 -32 5 -98 29 -519 32 -668 5 -14 -3 -42 -7 -62
-10 -69 -11 -223 -46 -260 -61 -21 -8 -38 -13 -38 -11 0 2 -35 -9 -77 -26 -43
-16 -91 -34 -108 -40 -16 -6 -34 -15 -40 -19 -5 -5 -17 -9 -27 -9 -10 0 -18
-5 -18 -12 0 -6 -3 -9 -6 -5 -8 7 -171 -78 -194 -103 -3 -3 -25 -21 -50 -39
-129 -99 -301 -280 -385 -406 -22 -33 -43 -62 -46 -65 -21 -17 -138 -242 -180
-348 -47 -117 -93 -265 -104 -337 -2 -11 -6 -31 -9 -45 -8 -37 -26 -122 -32
-155 -3 -16 -7 -32 -10 -37 -13 -20 10 -25 53 -11 27 8 53 16 58 17 6 1 64 19
130 40 145 45 155 48 180 52 11 2 40 8 65 13 99 21 173 26 350 25 206 -2 260
-5 260 -17 0 -5 4 -6 8 -3 4 3 26 1 48 -4 167 -36 284 -51 429 -54 154 -3 309
9 395 29 14 3 36 8 50 11 68 14 145 37 240 74 58 23 110 43 115 44 6 2 23 8
38 14 16 7 31 12 34 12 24 0 318 162 343 190 3 3 25 19 50 35 24 17 96 82 160
145 121 121 125 125 180 205 19 28 38 52 41 55 3 3 14 20 24 38 11 17 23 32
27 32 10 0 102 -63 106 -72 2 -5 9 -8 15 -8 7 0 24 -10 38 -23 15 -12 42 -33
60 -47 37 -27 203 -190 232 -228 10 -13 38 -52 63 -85 24 -34 47 -66 52 -72
13 -17 118 -228 129 -260 6 -16 14 -38 18 -48 7 -17 4 -18 -41 -11 -55 8 -54
8 -109 0 -37 -5 -113 -33 -125 -46 -9 -9 -85 -51 -112 -61 -16 -6 -28 -15 -28
-20 0 -5 -4 -9 -9 -9 -5 0 -64 -32 -132 -71 -68 -40 -137 -79 -154 -89 -16 -9
-106 -61 -200 -115 -93 -54 -264 -152 -380 -218 -115 -66 -211 -124 -213 -129
-2 -4 -8 -8 -14 -8 -6 0 -57 -26 -112 -59 -56 -32 -117 -68 -136 -79 -46 -26
-247 -140 -285 -162 -16 -10 -86 -50 -155 -89 -69 -39 -132 -76 -140 -81 -38
-23 -236 -138 -278 -160 -26 -13 -49 -27 -52 -30 -6 -7 -168 -100 -174 -100
-5 0 -116 -67 -145 -87 -47 -34 -81 -76 -110 -137 -47 -100 -44 -88 -51 -246
0 -14 0 -46 1 -72 1 -27 -1 -51 -4 -54 -3 -4 -2 -14 3 -24 5 -10 7 -19 5 -21
-4 -5 -5 -37 -6 -204 0 -125 0 -115 2 -177 1 -27 -1 -51 -4 -54 -3 -4 -2 -14
3 -24 5 -10 7 -19 5 -21 -4 -5 -6 -67 -4 -139 0 -25 0 -49 -1 -55 -1 -5 -2
-14 -1 -19 2 -8 2 -63 0 -116 -1 -8 0 -42 0 -75 0 -33 1 -67 1 -75 0 -8 0 -36
1 -62 1 -27 -1 -51 -4 -54 -3 -4 -2 -14 3 -24 5 -10 7 -19 5 -21 -4 -5 -6 -67
-4 -139 0 -25 0 -49 -1 -55 -1 -5 -1 -14 0 -20 1 -5 1 -64 1 -130 -2 -146 -2
-139 0 -197 1 -27 -1 -51 -4 -54 -3 -4 -2 -14 3 -24 5 -10 7 -19 5 -21 -4 -5
-6 -67 -4 -139 0 -25 0 -49 -1 -55 -1 -5 -2 -14 -1 -19 2 -8 2 -63 0 -116 -1
-8 0 -42 0 -75 0 -33 1 -67 1 -75 0 -8 0 -36 1 -62 1 -27 -1 -51 -4 -54 -3 -4
-2 -14 3 -24 5 -10 7 -19 5 -21 -6 -7 -7 -89 -1 -144 6 -57 54 -155 94 -192
39 -36 80 -62 238 -144 76 -40 189 -99 249 -131 61 -32 144 -75 185 -96 41
-20 77 -40 80 -43 3 -3 41 -24 85 -46 139 -70 239 -124 252 -135 7 -6 13 -8
13 -5 0 3 30 -11 67 -32 38 -21 122 -66 188 -101 66 -34 152 -80 190 -100 39
-21 120 -63 180 -95 61 -31 116 -62 123 -67 6 -6 12 -7 12 -2 0 5 4 5 8 -1 4
-5 30 -22 57 -36 46 -23 178 -92 370 -194 153 -81 251 -132 410 -215 88 -46
165 -86 170 -90 36 -27 309 -159 324 -157 10 1 69 36 132 77 63 40 148 95 189
121 41 27 81 53 88 59 6 6 12 7 12 3 0 -4 4 -3 8 2 8 11 23 21 217 146 209
133 313 200 427 274 112 73 115 75 219 139 35 22 66 43 69 46 3 3 28 19 55 35
28 15 52 31 55 35 3 4 19 15 35 24 17 9 42 24 56 34 14 9 46 30 70 45 24 16
56 37 71 48 15 10 31 19 36 19 5 0 17 9 27 20 10 11 22 20 27 20 4 0 49 27 99
60 50 33 92 60 95 60 2 0 26 16 53 35 26 19 53 35 60 35 6 0 11 3 11 8 0 4 20
18 45 32 25 14 45 28 45 32 0 5 4 8 10 8 5 0 74 42 152 93 79 51 177 114 218
140 140 89 289 185 306 199 43 35 77 78 102 128 l27 55 3 1380 c2 938 -1 1394
-8 1425 -6 25 -12 50 -13 55 -10 41 -115 164 -140 165 -5 0 -21 8 -35 19 -15
10 -184 98 -377 196 -662 336 -800 407 -812 417 -7 6 -13 8 -13 4 0 -3 -19 6
-42 20 -22 14 -46 27 -52 28 -6 1 -18 6 -26 11 -16 10 -224 116 -535 273 -104
52 -191 99 -193 104 -2 4 -8 8 -14 8 -11 0 -186 86 -202 99 -6 5 -17 11 -25
13 -8 2 -44 19 -81 38 -36 19 -159 82 -273 140 l-206 105 -22 70 c-25 78 -108
261 -138 304 -11 16 -18 31 -14 34 3 4 -2 9 -11 13 -9 3 -16 10 -16 16 0 9
-56 97 -69 108 -4 3 -19 22 -35 43 -33 45 -201 213 -241 242 -33 24 -95 70
-112 85 -7 6 -13 8 -13 4 0 -3 -7 -1 -15 6 -8 7 -15 15 -15 19 0 4 192 7 428
7 520 0 590 4 787 45 55 12 107 22 115 24 8 2 27 8 43 14 15 6 27 9 27 6 0 -2
17 3 37 11 20 9 45 17 55 19 28 6 200 75 236 96 18 10 39 19 47 19 7 0 15 3
17 8 3 6 84 53 135 77 13 5 23 13 23 18 0 4 5 7 11 7 6 0 28 14 49 30 21 17
43 30 49 30 6 0 11 5 11 10 0 6 6 10 14 10 8 0 16 3 18 8 2 4 39 36 83 72 84
68 213 194 330 325 39 42 90 99 115 125 25 26 88 94 140 151 83 90 174 187
275 295 254 273 259 278 245 304 -11 20 -75 46 -125 51 -2 0 -34 9 -70 19 -36
10 -68 19 -70 19 -3 1 -6 1 -7 2 -2 0 -10 2 -18 4 -8 2 -26 6 -40 9 -64 14
-229 47 -260 52 -55 7 -114 16 -130 19 -8 2 -49 6 -90 10 -41 4 -88 10 -105
12 -38 5 -602 13 -606 8z"/>
</g>
</svg>
