<svg width="603" height="182" viewBox="0 0 603 182" fill="none" xmlns="http://www.w3.org/2000/svg">
<g clip-path="url(#clip0_19_76)">
<path d="M373.642 141.938C338.643 167.736 287.913 181.499 244.236 181.499C182.993 181.499 127.859 158.848 86.148 121.175C82.871 118.212 85.807 114.175 89.74 116.482C134.754 142.672 190.413 158.429 247.906 158.429C286.681 158.429 329.336 150.406 368.556 133.759C374.481 131.242 379.436 137.639 373.642 141.938Z" fill="#FF9900"/>
<path d="M388.192 125.291C383.735 119.575 358.62 122.59 347.347 123.927C343.912 124.347 343.388 121.358 346.481 119.208C366.485 105.13 399.308 109.193 403.136 113.912C406.964 118.658 402.14 151.56 383.342 167.264C380.458 169.676 377.706 168.391 378.99 165.193C383.211 154.653 392.675 131.032 388.192 125.291Z" fill="#FF9900"/>
<path d="M348.133 19.8201V6.13507C348.133 4.06407 349.706 2.67407 351.594 2.67407H412.862C414.829 2.67407 416.402 4.09007 416.402 6.13507V17.8541C416.375 19.8201 414.724 22.3891 411.788 26.4531L380.039 71.782C391.837 71.494 404.29 73.2501 414.986 79.2801C417.398 80.6431 418.053 82.6361 418.237 84.6021V99.2051C418.237 101.197 416.035 103.531 413.728 102.325C394.878 92.4411 369.841 91.3661 348.998 102.429C346.875 103.583 344.646 101.276 344.646 99.2831V85.4151C344.646 83.1861 344.672 79.3851 346.901 76.0031L383.683 23.2551H351.672C349.706 23.2551 348.133 21.8651 348.133 19.8201Z" fill="white"/>
<path d="M124.634 105.208H105.994C104.212 105.077 102.796 103.74 102.665 102.036V6.37097C102.665 4.45697 104.264 2.93695 106.256 2.93695H123.638C125.447 3.01495 126.889 4.40495 127.02 6.13495V18.64H127.361C131.897 6.55395 140.417 0.917969 151.9 0.917969C163.566 0.917969 170.855 6.55395 176.098 18.64C180.607 6.55395 190.858 0.917969 201.843 0.917969C209.656 0.917969 218.202 4.14293 223.42 11.3779C229.318 19.4269 228.112 31.1199 228.112 41.3699L228.086 101.748C228.086 103.662 226.487 105.208 224.494 105.208H205.88C204.019 105.077 202.525 103.583 202.525 101.748V51.0439C202.525 47.0069 202.892 36.9399 202 33.1119C200.611 26.6889 196.442 24.8799 191.042 24.8799C186.532 24.8799 181.813 27.8949 179.9 32.7189C177.986 37.5429 178.169 45.6179 178.169 51.0439V101.748C178.169 103.662 176.57 105.208 174.578 105.208H155.964C154.076 105.077 152.608 103.583 152.608 101.748L152.582 51.0439C152.582 40.3739 154.338 24.6699 141.099 24.6699C127.702 24.6699 128.226 39.9809 128.226 51.0439V101.748C128.226 103.662 126.627 105.208 124.634 105.208Z" fill="white"/>
<path d="M469.15 0.917969C496.809 0.917969 511.779 24.6699 511.779 54.8719C511.779 84.0509 495.236 107.201 469.15 107.201C441.989 107.201 427.203 83.448 427.203 53.85C427.203 24.067 442.173 0.917969 469.15 0.917969ZM469.307 20.449C455.57 20.449 454.704 39.168 454.704 50.835C454.704 62.527 454.521 87.486 469.15 87.486C483.595 87.486 484.277 67.351 484.277 55.082C484.277 47.007 483.936 37.359 481.498 29.704C479.401 23.045 475.232 20.449 469.307 20.449Z" fill="white"/>
<path d="M547.643 105.208H529.082C527.22 105.077 525.726 103.583 525.726 101.748L525.7 6.05597C525.857 4.29997 527.404 2.93695 529.291 2.93695H546.568C548.194 3.01495 549.531 4.11596 549.898 5.61096V20.2399H550.239C555.456 7.15693 562.77 0.917969 575.643 0.917969C584.006 0.917969 592.159 3.93298 597.403 12.191C602.279 19.846 602.279 32.719 602.279 41.973V102.194C602.069 103.871 600.523 105.208 598.687 105.208H579.995C578.291 105.077 576.875 103.819 576.691 102.194V50.2319C576.691 39.7709 577.897 24.4609 565.025 24.4609C560.489 24.4609 556.321 27.502 554.25 32.116C551.628 37.962 551.287 43.7819 551.287 50.2319V101.748C551.261 103.662 549.636 105.208 547.643 105.208Z" fill="white"/>
<path d="M299.291 59.512V55.475C285.816 55.475 271.58 58.359 271.58 74.246C271.58 82.295 275.748 87.748 282.905 87.748C288.149 87.748 292.842 84.523 295.804 79.28C299.475 72.831 299.291 66.775 299.291 59.512ZM318.089 104.946C316.856 106.047 315.074 106.126 313.684 105.392C307.497 100.253 306.396 97.868 302.988 92.965C292.763 103.399 285.527 106.519 272.261 106.519C256.584 106.519 244.367 96.845 244.367 77.471C244.367 62.344 252.573 52.041 264.239 47.007C274.359 42.55 288.49 41.764 299.291 40.531V38.12C299.291 33.689 299.632 28.446 297.036 24.618C294.756 21.183 290.404 19.768 286.576 19.768C279.471 19.768 273.127 23.412 271.58 30.962C271.265 32.64 270.033 34.292 268.355 34.371L250.266 32.43C248.745 32.09 247.067 30.857 247.487 28.524C251.655 6.60699 271.449 0 289.171 0C298.242 0 310.092 2.41201 317.25 9.28101C326.321 17.749 325.455 29.049 325.455 41.344V70.392C325.455 79.123 329.073 82.95 332.482 87.669C333.688 89.347 333.95 91.366 332.429 92.624C328.628 95.797 321.864 101.695 318.141 104.999L318.089 104.946Z" fill="white"/>
<path d="M54.924 59.512V55.475C41.448 55.475 27.213 58.359 27.213 74.246C27.213 82.295 31.381 87.748 38.538 87.748C43.782 87.748 48.474 84.523 51.437 79.28C55.107 72.831 54.924 66.775 54.924 59.512ZM73.721 104.946C72.489 106.047 70.706 106.126 69.317 105.392C63.13 100.253 62.029 97.868 58.62 92.965C48.396 103.399 41.16 106.519 27.894 106.519C12.217 106.519 0 96.845 0 77.471C0 62.344 8.20501 52.041 19.872 47.007C29.992 42.55 44.123 41.764 54.924 40.531V38.12C54.924 33.689 55.265 28.446 52.669 24.618C50.388 21.183 46.036 19.768 42.209 19.768C35.104 19.768 28.759 23.412 27.213 30.962C26.898 32.64 25.666 34.292 23.988 34.371L5.89801 32.43C4.37801 32.09 2.7 30.857 3.119 28.524C7.288 6.60699 27.082 0 44.804 0C53.875 0 65.725 2.41201 72.882 9.28101C81.953 17.749 81.088 29.049 81.088 41.344V70.392C81.088 79.123 84.706 82.95 88.114 87.669C89.32 89.347 89.583 91.366 88.062 92.624C84.26 95.797 77.497 101.695 73.774 104.999L73.721 104.946Z" fill="white"/>
</g>
<defs>
<clipPath id="clip0_19_76">
<rect width="602.279" height="181.499" fill="white"/>
</clipPath>
</defs>
</svg>
