<svg width="3621" height="1653" viewBox="0 0 3621 1653" fill="none" xmlns="http://www.w3.org/2000/svg">
<path d="M3034.28 859.34L2899.34 1012H2666.73L2922.56 724.648L2937.36 708.026L2922.56 691.402L2666.72 404H2908.94L3046.58 555.639L3065.44 576.425L3083.91 555.287L3216.11 404H3447.31L3192.85 690.045L3178.03 706.706L3192.9 723.327L3451.1 1012H3207.92L3071.66 859.255L3052.92 838.245L3034.28 859.34Z" stroke="white" stroke-width="50"/>
<path d="M2279.57 576.112H2254.57V601.112V805.218V830.218H2279.57H2586V1012H2061V25H2586V206.148H2279.57H2254.57V231.148V378.685V403.685H2279.57H2586V576.112H2279.57Z" stroke="white" stroke-width="50"/>
<path d="M1793.11 0V424.396H1790.43C1736.65 362.612 1669.53 341.125 1591.64 341.125C1432.06 341.125 1311.84 449.684 1269.66 593.131C1221.48 435.067 1097.37 338.152 913.336 338.152C763.89 338.152 645.863 405.247 584.292 514.586V378.692H275.365V231.152H612.495V0H0V1037.02H275.365V601.122H549.853C541.669 633.134 537.285 667.437 537.285 703.64C537.285 919.93 702.514 1071.76 913.336 1071.76C1090.65 1071.76 1207.5 988.487 1269.27 836.708H1033.26C1001.36 882.363 977.148 895.86 913.336 895.86C839.344 895.86 775.532 831.299 775.532 754.752H1256.07C1276.92 926.557 1410.73 1074.73 1594.32 1074.73C1673.52 1074.73 1746.06 1035.75 1790.38 969.971H1793.06V1037.11H2035.79V0H1793.11ZM783.228 604.192C798.524 538.315 849.622 495.291 913.385 495.291C983.578 495.291 1032.05 537 1044.81 604.192H783.228ZM1645.76 879.147C1556.28 879.147 1500.65 795.73 1500.65 708.658C1500.65 615.593 1549.02 526.085 1645.76 526.085C1746.06 526.085 1786 615.593 1786 708.658C1786 796.899 1743.67 879.147 1645.76 879.147ZM2035.89 1555.55V1183.92H2241.16V1211.65H2069.74V1348.66H2233.9V1376.39H2069.74V1527.73H2248.8V1555.5H2035.89V1555.55ZM2273.31 1555.55L2373.41 1422.09L2278.47 1295.84H2316.95L2394.45 1399L2470.39 1295.84H2508.87L2412.43 1422.09L2512.97 1555.55H2474L2390.85 1445.14L2311.84 1555.55H2273.31ZM2578.09 1653H2546.77V1373.37C2546.77 1347.69 2546.77 1321.57 2545.21 1295.84H2576.05L2577.07 1334.87C2596.5 1304.03 2622.18 1289.71 2660.71 1289.71C2740.74 1289.71 2775.08 1355.87 2775.08 1425.65C2775.08 1495.52 2740.74 1561.69 2660.71 1561.69C2624.76 1561.69 2596.55 1547.85 2578.09 1518.03V1653ZM2741.76 1425.65C2741.76 1370.25 2718.62 1315.82 2657.1 1315.82C2599.14 1315.82 2578.09 1363.57 2578.09 1425.65C2578.09 1487.77 2599.14 1535.47 2657.1 1535.47C2718.67 1535.47 2741.76 1481.1 2741.76 1425.65ZM2936.02 1319.92C2884.19 1319.92 2866.17 1363.57 2866.17 1408.69V1555.55H2834.85V1372.25C2834.85 1347.1 2834.36 1321.52 2833.34 1295.84H2864.22L2866.22 1333.31C2881.61 1303.59 2907.33 1289.71 2941.67 1289.71C2946.3 1289.71 2951.42 1290.19 2956.04 1290.73V1322.06C2948.83 1320.94 2943.18 1319.92 2936.02 1319.92V1319.92ZM2994.38 1431.3C2994.38 1489.77 3022.05 1538.01 3078.99 1538.01C3123.07 1538.01 3143.63 1508.77 3151.33 1479.54H3181.09C3167.21 1533.92 3133.84 1561.69 3074.85 1561.69C2995.84 1561.69 2960.91 1503.17 2960.91 1430.33C2960.91 1355.92 2997.35 1289.71 3078.94 1289.71C3161.56 1289.71 3183.62 1362.01 3183.62 1431.3H2994.38ZM2995.35 1407.72H3150.3C3150.3 1356.9 3126.24 1313.29 3076.94 1313.29C3032.32 1313.24 3001.49 1347.1 2995.35 1407.72ZM3305.84 1561.69C3252.5 1561.69 3212.51 1536.5 3212.51 1479.54H3243.83C3243.83 1518.52 3269.45 1538.01 3307.45 1538.01C3342.86 1538.01 3370.53 1521.05 3370.53 1486.26C3370.53 1454.93 3338.23 1446.7 3304.38 1436.95C3263.36 1425.16 3218.69 1412.3 3218.69 1362.01C3218.69 1306.13 3265.36 1289.71 3309 1289.71C3359.23 1289.71 3396.73 1309.15 3398.24 1363.04H3366.92C3365.41 1332.29 3343.35 1314.85 3309.98 1314.85C3283.82 1314.85 3252.01 1325.08 3252.01 1358.94C3252.01 1389.79 3283.82 1398.51 3317.68 1407.72C3358.79 1418.97 3403.89 1431.3 3403.89 1481.63C3403.85 1540.1 3358.74 1561.69 3305.84 1561.69V1561.69ZM3522.9 1561.69C3469.51 1561.69 3429.52 1536.5 3429.52 1479.54H3460.84C3460.84 1518.52 3486.46 1538.01 3524.5 1538.01C3559.92 1538.01 3587.58 1521.05 3587.58 1486.26C3587.58 1454.93 3555.24 1446.7 3521.39 1436.95C3480.37 1425.16 3435.75 1412.3 3435.75 1362.01C3435.75 1306.13 3482.42 1289.71 3526.06 1289.71C3576.28 1289.71 3613.79 1309.15 3615.3 1363.04H3583.98C3582.47 1332.29 3560.4 1314.85 3527.04 1314.85C3500.88 1314.85 3469.07 1325.08 3469.07 1358.94C3469.07 1389.79 3500.88 1398.51 3534.78 1407.72C3575.84 1418.97 3621 1431.3 3621 1481.63C3620.9 1540.1 3575.75 1561.69 3522.9 1561.69V1561.69Z" fill="white"/>
</svg>
