<svg width="924" height="145" viewBox="0 0 924 145" fill="none" xmlns="http://www.w3.org/2000/svg">
<path d="M108.581 37.9219H113.798L128.672 23.0488L129.401 16.7319C101.719 -7.70396 59.4726 -5.06419 35.0368 22.6174C28.2474 30.3005 23.3274 39.4523 20.6362 49.354C22.2899 48.6761 24.1285 48.5631 25.8541 49.0459L55.6003 44.1361C55.6003 44.1361 57.1102 41.6299 57.9011 41.784C71.1308 27.2498 93.3993 25.555 108.683 37.9219H108.581Z" fill="#EA4335"/>
<path d="M149.861 49.354C146.441 36.7612 139.426 25.442 129.668 16.7935L108.796 37.6651C117.609 44.8654 122.632 55.7223 122.416 67.1031V70.8111C132.677 70.8111 140.997 79.131 140.997 89.3922C140.997 99.6534 132.677 107.973 122.416 107.973H85.2539L81.5459 111.733V134.022L85.2539 137.73H122.416C149.101 137.935 170.908 116.468 171.113 89.7825C171.236 73.5741 163.255 58.4134 149.861 49.354Z" fill="#4285F4"/>
<path d="M48.0406 137.493H85.2028V107.747H48.0406C45.3906 107.747 42.7816 107.172 40.3678 106.073L35.1499 107.696L20.1741 122.569L18.8696 127.787C27.2614 134.135 37.5123 137.545 48.0406 137.493Z" fill="#34A853"/>
<path d="M48.0405 41.0033C21.3449 41.1574 -0.153249 62.9226 0.000822996 89.6182C0.0932662 104.522 7.04705 118.553 18.8695 127.633L40.419 106.083C31.072 101.862 26.9121 90.8507 31.1336 81.5037C35.3552 72.1567 46.3662 67.9967 55.7133 72.2183C59.8321 74.0774 63.1292 77.3849 64.9987 81.5037L86.5482 59.9542C77.386 47.9571 63.1293 40.9417 48.0405 41.0033Z" fill="#FBBC05"/>
<path d="M270.048 116.725C257.116 116.889 244.688 111.784 235.608 102.581C226.23 93.7679 220.991 81.4216 221.156 68.5515C221.002 55.6813 226.24 43.3453 235.608 34.5221C244.646 25.2264 257.085 20.0188 270.048 20.1215C282.394 19.9572 294.299 24.754 303.081 33.4333L293.795 42.8831C287.437 36.7305 278.892 33.3614 270.048 33.4847C260.773 33.3717 251.867 37.1619 245.52 43.9205C238.925 50.4634 235.289 59.4202 235.443 68.7056C235.361 77.8882 238.997 86.7114 245.52 93.1825C258.955 106.576 280.617 106.833 294.371 93.7577C298.469 89.2793 300.975 83.5684 301.52 77.5287H270.202V64.1758H314.513C314.944 66.867 315.119 69.5889 315.037 72.3211C315.591 83.7122 311.462 94.8362 303.605 103.115C294.864 112.205 282.661 117.156 270.048 116.725ZM373.071 107.85C360.714 119.693 341.219 119.693 328.862 107.85C322.874 102.047 319.608 94.0042 319.834 85.674C319.608 77.3439 322.884 69.3013 328.862 63.4979C341.229 51.6857 360.704 51.6857 373.071 63.4979C379.049 69.3013 382.325 77.3439 382.099 85.674C382.315 94.0144 379.018 102.057 373.019 107.85H373.071ZM338.62 99.1399C344.999 105.96 355.702 106.309 362.522 99.9205C362.789 99.6637 363.056 99.407 363.302 99.1399C366.784 95.5346 368.664 90.6865 368.52 85.674C368.674 80.6513 366.795 75.7723 363.302 72.1568C356.739 65.316 345.872 65.0797 339.021 71.6432C338.846 71.8075 338.671 71.9822 338.507 72.1568C335.015 75.7723 333.135 80.6513 333.289 85.674C333.156 90.6865 335.056 95.5449 338.558 99.1399H338.62ZM441.016 107.85C428.66 119.693 409.165 119.693 396.808 107.85C390.82 102.047 387.553 94.0042 387.779 85.674C387.553 77.3439 390.83 69.3013 396.808 63.4979C409.165 51.6549 428.66 51.6549 441.016 63.4979C446.994 69.3013 450.271 77.3439 450.045 85.674C450.281 94.0042 447.005 102.047 441.016 107.85ZM406.576 99.1399C412.955 105.96 423.658 106.309 430.478 99.9205C430.745 99.6637 431.012 99.407 431.258 99.1399C434.74 95.5346 436.62 90.6865 436.476 85.674C436.63 80.6513 434.751 75.7723 431.258 72.1568C424.695 65.316 413.828 65.0797 406.987 71.6432C406.812 71.8075 406.638 71.9822 406.473 72.1568C402.981 75.7723 401.101 80.6513 401.255 85.674C401.122 90.6865 403.022 95.5449 406.525 99.1399H406.576ZM485.687 144.591C479.432 144.786 473.3 142.835 468.308 139.055C463.878 135.723 460.388 131.299 458.18 126.215L470.074 121.254C471.369 124.295 473.392 126.965 475.97 129.03C478.723 131.248 482.184 132.419 485.728 132.317C490.268 132.594 494.705 130.879 497.889 127.623C501.033 123.833 502.583 118.964 502.224 114.054V109.565H501.751C497.715 114.352 491.665 116.961 485.42 116.612C477.501 116.632 469.931 113.345 464.548 107.532C458.714 101.769 455.489 93.8706 455.622 85.6637C455.479 77.4158 458.704 69.4656 464.548 63.6417C469.92 57.8075 477.49 54.4898 485.42 54.5104C488.738 54.5001 492.024 55.2397 495.024 56.6469C497.622 57.7767 499.933 59.4715 501.813 61.608H502.286V56.6469H515.228V112.226C515.916 121.111 512.917 129.893 506.928 136.497C501.228 141.951 493.575 144.868 485.687 144.591ZM486.632 104.512C491.141 104.615 495.465 102.694 498.424 99.294C501.639 95.6065 503.344 90.8303 503.169 85.9308C503.364 80.9491 501.669 76.0907 498.424 72.3108C495.465 68.9007 491.141 66.9902 486.632 67.0929C482 67.0005 477.552 68.9007 474.419 72.3108C470.968 75.9572 469.088 80.8156 469.201 85.8281C469.099 90.7995 470.968 95.6065 474.419 99.1913C477.531 102.632 481.979 104.574 486.632 104.512ZM538.246 23.6241V114.845H524.626V23.6241H538.246ZM575.614 116.725C567.366 116.94 559.405 113.705 553.643 107.799C547.798 101.944 544.604 93.9425 544.82 85.674C544.512 77.3849 547.583 69.3218 553.325 63.3336C558.748 57.6226 566.328 54.459 574.196 54.6131C577.781 54.572 581.325 55.2705 584.632 56.6469C587.611 57.8486 590.322 59.6256 592.613 61.8648C594.585 63.765 596.331 65.8809 597.831 68.1817C599.043 70.123 600.07 72.167 600.912 74.283L602.319 77.8369L560.576 95.0108C563.165 100.948 569.132 104.687 575.603 104.409C581.859 104.43 587.662 101.153 590.898 95.8017L601.333 102.848C598.671 106.662 595.26 109.895 591.308 112.349C586.625 115.307 581.16 116.827 575.614 116.725ZM558.183 84.729L585.947 73.1942C585.094 71.1604 583.564 69.4862 581.612 68.4488C579.435 67.2162 576.969 66.5896 574.463 66.6204C570.221 66.7334 566.184 68.5104 563.247 71.5816C559.683 74.9917 557.823 79.809 558.183 84.729Z" fill="#5F6368"/>
<path d="M673.675 116.725C649.928 117.136 630.35 98.2156 629.939 74.4679C629.929 73.8927 629.929 73.3073 629.95 72.7321C629.395 48.9844 648.202 29.294 671.939 28.7394C672.515 28.7291 673.1 28.7291 673.675 28.7291C685.549 28.3593 696.95 33.4334 704.623 42.5031L697.104 49.8061C691.465 42.7086 682.776 38.7335 673.727 39.1033C665.047 38.9081 656.655 42.2669 650.503 48.3887C644.104 54.8289 640.683 63.6418 641.053 72.7115C640.673 81.7812 644.104 90.5941 650.503 97.0343C656.655 103.166 665.047 106.515 673.727 106.32C683.834 106.433 693.438 101.934 699.816 94.107L707.335 101.626C703.401 106.33 698.46 110.089 692.883 112.637C686.864 115.431 680.3 116.827 673.675 116.725Z" fill="#5F6368"/>
<path d="M727.529 114.845H716.723V30.5574H727.529V114.845Z" fill="#5F6368"/>
<path d="M745.175 64.1142C756.956 52.415 775.979 52.415 787.76 64.1142C793.348 70.0203 796.358 77.9088 796.111 86.0335C796.358 94.1583 793.348 102.047 787.76 107.953C775.979 119.652 756.956 119.652 745.175 107.953C739.587 102.047 736.578 94.1583 736.824 86.0335C736.578 77.9088 739.577 70.0203 745.175 64.1142ZM753.207 101.174C760.12 108.477 771.644 108.795 778.958 101.882C779.204 101.656 779.44 101.41 779.666 101.174C783.477 97.0856 785.49 91.6315 785.254 86.0438C785.501 80.4561 783.487 75.002 779.666 70.914C772.754 63.6109 761.229 63.2925 753.916 70.2052C753.669 70.4312 753.433 70.6777 753.207 70.914C749.396 75.002 747.383 80.4561 747.619 86.0438C747.404 91.6212 749.437 97.0548 753.258 101.122L753.207 101.174Z" fill="#5F6368"/>
<path d="M855.963 114.845H845.527V106.864H845.219C843.36 109.894 840.73 112.38 837.598 114.064C834.352 115.944 830.654 116.94 826.895 116.93C820.711 117.351 814.682 114.927 810.512 110.356C806.557 105.354 804.575 99.0784 804.924 92.7203V57.2324H815.73V90.7379C815.73 101.492 820.475 106.864 829.976 106.864C834.259 106.998 838.337 105.056 840.936 101.646C843.74 98.1026 845.229 93.6961 845.168 89.1767V57.2324H855.973V114.845H855.963Z" fill="#5F6368"/>
<path d="M892.653 116.725C885.237 116.745 878.18 113.53 873.342 107.902C867.929 101.924 865.033 94.0967 865.249 86.0336C865.033 77.9705 867.929 70.1436 873.342 64.1656C878.18 58.5471 885.237 55.3219 892.653 55.3424C896.761 55.2808 900.819 56.2463 904.445 58.1568C907.639 59.7592 910.34 62.1935 912.271 65.203H912.744L912.271 57.2221V30.5574H923.077V114.845H912.641V106.864H912.169C910.238 109.874 907.536 112.308 904.342 113.91C900.747 115.8 896.731 116.776 892.653 116.725ZM894.43 106.864C899.37 106.936 904.106 104.882 907.423 101.225C911.09 97.0446 912.97 91.5904 912.641 86.0336C912.97 80.487 911.09 75.0225 907.423 70.8421C900.87 63.6315 889.715 63.1076 882.505 69.6711C882.094 70.0409 881.703 70.4415 881.334 70.8421C877.657 74.9917 875.777 80.4356 876.116 85.9719C875.777 91.5083 877.657 96.9521 881.334 101.102C884.662 104.841 889.438 106.936 894.43 106.864Z" fill="#5F6368"/>
</svg>
